M48
INCH,TZ
T1C0.0787
%
G90
G05
T1
X59331Y-41929
X62795Y-41929
X49409Y-23031
X72244Y-23071
X72244Y-26535
X72244Y-14803
X72244Y-18268
X37992Y-40394
X37992Y-43858
X37992Y-32126
X37992Y-35591
X59291Y-16732
X62756Y-16732
X37992Y-23071
X37992Y-26535
X49409Y-26496
X72244Y-32126
X72244Y-35591
X49409Y-40394
X49409Y-43858
T0
M30
