G04 #@! TF.GenerationSoftware,KiCad,Pcbnew,(5.0.2)-1*
G04 #@! TF.CreationDate,2019-06-12T12:13:46+02:00*
G04 #@! TF.ProjectId,Aquarius,41717561-7269-4757-932e-6b696361645f,rev?*
G04 #@! TF.SameCoordinates,Original*
G04 #@! TF.FileFunction,Soldermask,Top*
G04 #@! TF.FilePolarity,Negative*
%FSLAX46Y46*%
G04 Gerber Fmt 4.6, Leading zero omitted, Abs format (unit mm)*
G04 Created by KiCad (PCBNEW (5.0.2)-1) date 12.06.2019 12:13:46*
%MOMM*%
%LPD*%
G01*
G04 APERTURE LIST*
%ADD10C,0.100000*%
G04 APERTURE END LIST*
D10*
G36*
X117750026Y-115196115D02*
X117968412Y-115286573D01*
X118164958Y-115417901D01*
X118332099Y-115585042D01*
X118463427Y-115781588D01*
X118553885Y-115999974D01*
X118600000Y-116231809D01*
X118600000Y-116468191D01*
X118553885Y-116700026D01*
X118463427Y-116918412D01*
X118332099Y-117114958D01*
X118164958Y-117282099D01*
X117968412Y-117413427D01*
X117750026Y-117503885D01*
X117518191Y-117550000D01*
X117281809Y-117550000D01*
X117049974Y-117503885D01*
X116831588Y-117413427D01*
X116635042Y-117282099D01*
X116467901Y-117114958D01*
X116336573Y-116918412D01*
X116246115Y-116700026D01*
X116200000Y-116468191D01*
X116200000Y-116231809D01*
X116246115Y-115999974D01*
X116336573Y-115781588D01*
X116467901Y-115585042D01*
X116635042Y-115417901D01*
X116831588Y-115286573D01*
X117049974Y-115196115D01*
X117281809Y-115150000D01*
X117518191Y-115150000D01*
X117750026Y-115196115D01*
X117750026Y-115196115D01*
G37*
G36*
X110600026Y-115146115D02*
X110818412Y-115236573D01*
X111014958Y-115367901D01*
X111182099Y-115535042D01*
X111313427Y-115731588D01*
X111403885Y-115949974D01*
X111450000Y-116181809D01*
X111450000Y-116418191D01*
X111403885Y-116650026D01*
X111313427Y-116868412D01*
X111182099Y-117064958D01*
X111014958Y-117232099D01*
X110818412Y-117363427D01*
X110600026Y-117453885D01*
X110368191Y-117500000D01*
X110131809Y-117500000D01*
X109899974Y-117453885D01*
X109681588Y-117363427D01*
X109485042Y-117232099D01*
X109317901Y-117064958D01*
X109186573Y-116868412D01*
X109096115Y-116650026D01*
X109050000Y-116418191D01*
X109050000Y-116181809D01*
X109096115Y-115949974D01*
X109186573Y-115731588D01*
X109317901Y-115535042D01*
X109485042Y-115367901D01*
X109681588Y-115236573D01*
X109899974Y-115146115D01*
X110131809Y-115100000D01*
X110368191Y-115100000D01*
X110600026Y-115146115D01*
X110600026Y-115146115D01*
G37*
G36*
X102800026Y-115146115D02*
X103018412Y-115236573D01*
X103214958Y-115367901D01*
X103382099Y-115535042D01*
X103513427Y-115731588D01*
X103603885Y-115949974D01*
X103650000Y-116181809D01*
X103650000Y-116418191D01*
X103603885Y-116650026D01*
X103513427Y-116868412D01*
X103382099Y-117064958D01*
X103214958Y-117232099D01*
X103018412Y-117363427D01*
X102800026Y-117453885D01*
X102568191Y-117500000D01*
X102331809Y-117500000D01*
X102099974Y-117453885D01*
X101881588Y-117363427D01*
X101685042Y-117232099D01*
X101517901Y-117064958D01*
X101386573Y-116868412D01*
X101296115Y-116650026D01*
X101250000Y-116418191D01*
X101250000Y-116181809D01*
X101296115Y-115949974D01*
X101386573Y-115731588D01*
X101517901Y-115535042D01*
X101685042Y-115367901D01*
X101881588Y-115236573D01*
X102099974Y-115146115D01*
X102331809Y-115100000D01*
X102568191Y-115100000D01*
X102800026Y-115146115D01*
X102800026Y-115146115D01*
G37*
G36*
X97141716Y-109284544D02*
X97542090Y-109450384D01*
X97902421Y-109691150D01*
X98208850Y-109997579D01*
X98449616Y-110357910D01*
X98615456Y-110758284D01*
X98700000Y-111183317D01*
X98700000Y-111616683D01*
X98615456Y-112041716D01*
X98449616Y-112442090D01*
X98208850Y-112802421D01*
X97902421Y-113108850D01*
X97542090Y-113349616D01*
X97141716Y-113515456D01*
X96716683Y-113600000D01*
X96283317Y-113600000D01*
X95858284Y-113515456D01*
X95457910Y-113349616D01*
X95097579Y-113108850D01*
X94791150Y-112802421D01*
X94550384Y-112442090D01*
X94384544Y-112041716D01*
X94300000Y-111616683D01*
X94300000Y-111183317D01*
X94384544Y-110758284D01*
X94550384Y-110357910D01*
X94791150Y-109997579D01*
X95097579Y-109691150D01*
X95457910Y-109450384D01*
X95858284Y-109284544D01*
X96283317Y-109200000D01*
X96716683Y-109200000D01*
X97141716Y-109284544D01*
X97141716Y-109284544D01*
G37*
G36*
X126141716Y-109284544D02*
X126542090Y-109450384D01*
X126902421Y-109691150D01*
X127208850Y-109997579D01*
X127449616Y-110357910D01*
X127615456Y-110758284D01*
X127700000Y-111183317D01*
X127700000Y-111616683D01*
X127615456Y-112041716D01*
X127449616Y-112442090D01*
X127208850Y-112802421D01*
X126902421Y-113108850D01*
X126542090Y-113349616D01*
X126141716Y-113515456D01*
X125716683Y-113600000D01*
X125283317Y-113600000D01*
X124858284Y-113515456D01*
X124457910Y-113349616D01*
X124097579Y-113108850D01*
X123791150Y-112802421D01*
X123550384Y-112442090D01*
X123384544Y-112041716D01*
X123300000Y-111616683D01*
X123300000Y-111183317D01*
X123384544Y-110758284D01*
X123550384Y-110357910D01*
X123791150Y-109997579D01*
X124097579Y-109691150D01*
X124457910Y-109450384D01*
X124858284Y-109284544D01*
X125283317Y-109200000D01*
X125716683Y-109200000D01*
X126141716Y-109284544D01*
X126141716Y-109284544D01*
G37*
G36*
X115520000Y-113120000D02*
X112720000Y-113120000D01*
X112720000Y-111120000D01*
X115520000Y-111120000D01*
X115520000Y-113120000D01*
X115520000Y-113120000D01*
G37*
G36*
X107096030Y-111134469D02*
X107096033Y-111134470D01*
X107096034Y-111134470D01*
X107284535Y-111191651D01*
X107284537Y-111191652D01*
X107458260Y-111284509D01*
X107610528Y-111409472D01*
X107735491Y-111561740D01*
X107809407Y-111700027D01*
X107828349Y-111735465D01*
X107885530Y-111923966D01*
X107885531Y-111923970D01*
X107904838Y-112120000D01*
X107885531Y-112316030D01*
X107885530Y-112316033D01*
X107885530Y-112316034D01*
X107855987Y-112413426D01*
X107828348Y-112504537D01*
X107735491Y-112678260D01*
X107610528Y-112830528D01*
X107458260Y-112955491D01*
X107458258Y-112955492D01*
X107284535Y-113048349D01*
X107096034Y-113105530D01*
X107096033Y-113105530D01*
X107096030Y-113105531D01*
X106949124Y-113120000D01*
X106050876Y-113120000D01*
X105903970Y-113105531D01*
X105903967Y-113105530D01*
X105903966Y-113105530D01*
X105715465Y-113048349D01*
X105541742Y-112955492D01*
X105541740Y-112955491D01*
X105389472Y-112830528D01*
X105264509Y-112678260D01*
X105171652Y-112504537D01*
X105144014Y-112413426D01*
X105114470Y-112316034D01*
X105114470Y-112316033D01*
X105114469Y-112316030D01*
X105095162Y-112120000D01*
X105114469Y-111923970D01*
X105114470Y-111923966D01*
X105171651Y-111735465D01*
X105190593Y-111700027D01*
X105264509Y-111561740D01*
X105389472Y-111409472D01*
X105541740Y-111284509D01*
X105715463Y-111191652D01*
X105715465Y-111191651D01*
X105903966Y-111134470D01*
X105903967Y-111134470D01*
X105903970Y-111134469D01*
X106050876Y-111120000D01*
X106949124Y-111120000D01*
X107096030Y-111134469D01*
X107096030Y-111134469D01*
G37*
G36*
X117750026Y-110196115D02*
X117968412Y-110286573D01*
X118164958Y-110417901D01*
X118332099Y-110585042D01*
X118463427Y-110781588D01*
X118553885Y-110999974D01*
X118600000Y-111231809D01*
X118600000Y-111468191D01*
X118553885Y-111700026D01*
X118463427Y-111918412D01*
X118332099Y-112114958D01*
X118164958Y-112282099D01*
X117968412Y-112413427D01*
X117750026Y-112503885D01*
X117518191Y-112550000D01*
X117281809Y-112550000D01*
X117049974Y-112503885D01*
X116831588Y-112413427D01*
X116635042Y-112282099D01*
X116467901Y-112114958D01*
X116336573Y-111918412D01*
X116246115Y-111700026D01*
X116200000Y-111468191D01*
X116200000Y-111231809D01*
X116246115Y-110999974D01*
X116336573Y-110781588D01*
X116467901Y-110585042D01*
X116635042Y-110417901D01*
X116831588Y-110286573D01*
X117049974Y-110196115D01*
X117281809Y-110150000D01*
X117518191Y-110150000D01*
X117750026Y-110196115D01*
X117750026Y-110196115D01*
G37*
G36*
X103820857Y-108442272D02*
X104021042Y-108525191D01*
X104021045Y-108525193D01*
X104156133Y-108615456D01*
X104201213Y-108645578D01*
X104354422Y-108798787D01*
X104354424Y-108798790D01*
X104354425Y-108798791D01*
X104474807Y-108978955D01*
X104474809Y-108978958D01*
X104557728Y-109179143D01*
X104600000Y-109391658D01*
X104600000Y-109608342D01*
X104557728Y-109820857D01*
X104474809Y-110021042D01*
X104474807Y-110021045D01*
X104357829Y-110196115D01*
X104354422Y-110201213D01*
X104201213Y-110354422D01*
X104201210Y-110354424D01*
X104201209Y-110354425D01*
X104021045Y-110474807D01*
X104021042Y-110474809D01*
X103820857Y-110557728D01*
X103608342Y-110600000D01*
X103391658Y-110600000D01*
X103179143Y-110557728D01*
X102978958Y-110474809D01*
X102978955Y-110474807D01*
X102798791Y-110354425D01*
X102798790Y-110354424D01*
X102798787Y-110354422D01*
X102645578Y-110201213D01*
X102642172Y-110196115D01*
X102525193Y-110021045D01*
X102525191Y-110021042D01*
X102442272Y-109820857D01*
X102400000Y-109608342D01*
X102400000Y-109391658D01*
X102442272Y-109179143D01*
X102525191Y-108978958D01*
X102525193Y-108978955D01*
X102645575Y-108798791D01*
X102645576Y-108798790D01*
X102645578Y-108798787D01*
X102798787Y-108645578D01*
X102843868Y-108615456D01*
X102978955Y-108525193D01*
X102978958Y-108525191D01*
X103179143Y-108442272D01*
X103391658Y-108400000D01*
X103608342Y-108400000D01*
X103820857Y-108442272D01*
X103820857Y-108442272D01*
G37*
G36*
X132820857Y-108442272D02*
X133021042Y-108525191D01*
X133021045Y-108525193D01*
X133156133Y-108615456D01*
X133201213Y-108645578D01*
X133354422Y-108798787D01*
X133354424Y-108798790D01*
X133354425Y-108798791D01*
X133474807Y-108978955D01*
X133474809Y-108978958D01*
X133557728Y-109179143D01*
X133600000Y-109391658D01*
X133600000Y-109608342D01*
X133557728Y-109820857D01*
X133474809Y-110021042D01*
X133474807Y-110021045D01*
X133357829Y-110196115D01*
X133354422Y-110201213D01*
X133201213Y-110354422D01*
X133201210Y-110354424D01*
X133201209Y-110354425D01*
X133021045Y-110474807D01*
X133021042Y-110474809D01*
X132820857Y-110557728D01*
X132608342Y-110600000D01*
X132391658Y-110600000D01*
X132179143Y-110557728D01*
X131978958Y-110474809D01*
X131978955Y-110474807D01*
X131798791Y-110354425D01*
X131798790Y-110354424D01*
X131798787Y-110354422D01*
X131645578Y-110201213D01*
X131642172Y-110196115D01*
X131525193Y-110021045D01*
X131525191Y-110021042D01*
X131442272Y-109820857D01*
X131400000Y-109608342D01*
X131400000Y-109391658D01*
X131442272Y-109179143D01*
X131525191Y-108978958D01*
X131525193Y-108978955D01*
X131645575Y-108798791D01*
X131645576Y-108798790D01*
X131645578Y-108798787D01*
X131798787Y-108645578D01*
X131843868Y-108615456D01*
X131978955Y-108525193D01*
X131978958Y-108525191D01*
X132179143Y-108442272D01*
X132391658Y-108400000D01*
X132608342Y-108400000D01*
X132820857Y-108442272D01*
X132820857Y-108442272D01*
G37*
G36*
X107096030Y-108594469D02*
X107096033Y-108594470D01*
X107096034Y-108594470D01*
X107284535Y-108651651D01*
X107284537Y-108651652D01*
X107458260Y-108744509D01*
X107610528Y-108869472D01*
X107735491Y-109021740D01*
X107735492Y-109021742D01*
X107828349Y-109195465D01*
X107855371Y-109284545D01*
X107885531Y-109383970D01*
X107904838Y-109580000D01*
X107885531Y-109776030D01*
X107828348Y-109964537D01*
X107735491Y-110138260D01*
X107610528Y-110290528D01*
X107458260Y-110415491D01*
X107458258Y-110415492D01*
X107284535Y-110508349D01*
X107096034Y-110565530D01*
X107096033Y-110565530D01*
X107096030Y-110565531D01*
X106949124Y-110580000D01*
X106050876Y-110580000D01*
X105903970Y-110565531D01*
X105903967Y-110565530D01*
X105903966Y-110565530D01*
X105715465Y-110508349D01*
X105541742Y-110415492D01*
X105541740Y-110415491D01*
X105389472Y-110290528D01*
X105264509Y-110138260D01*
X105171652Y-109964537D01*
X105114469Y-109776030D01*
X105095162Y-109580000D01*
X105114469Y-109383970D01*
X105144629Y-109284545D01*
X105171651Y-109195465D01*
X105264508Y-109021742D01*
X105264509Y-109021740D01*
X105389472Y-108869472D01*
X105541740Y-108744509D01*
X105715463Y-108651652D01*
X105715465Y-108651651D01*
X105903966Y-108594470D01*
X105903967Y-108594470D01*
X105903970Y-108594469D01*
X106050876Y-108580000D01*
X106949124Y-108580000D01*
X107096030Y-108594469D01*
X107096030Y-108594469D01*
G37*
G36*
X114716030Y-108594469D02*
X114716033Y-108594470D01*
X114716034Y-108594470D01*
X114904535Y-108651651D01*
X114904537Y-108651652D01*
X115078260Y-108744509D01*
X115230528Y-108869472D01*
X115355491Y-109021740D01*
X115355492Y-109021742D01*
X115448349Y-109195465D01*
X115475371Y-109284545D01*
X115505531Y-109383970D01*
X115524838Y-109580000D01*
X115505531Y-109776030D01*
X115448348Y-109964537D01*
X115355491Y-110138260D01*
X115230528Y-110290528D01*
X115078260Y-110415491D01*
X115078258Y-110415492D01*
X114904535Y-110508349D01*
X114716034Y-110565530D01*
X114716033Y-110565530D01*
X114716030Y-110565531D01*
X114569124Y-110580000D01*
X113670876Y-110580000D01*
X113523970Y-110565531D01*
X113523967Y-110565530D01*
X113523966Y-110565530D01*
X113335465Y-110508349D01*
X113161742Y-110415492D01*
X113161740Y-110415491D01*
X113009472Y-110290528D01*
X112884509Y-110138260D01*
X112791652Y-109964537D01*
X112734469Y-109776030D01*
X112715162Y-109580000D01*
X112734469Y-109383970D01*
X112764629Y-109284545D01*
X112791651Y-109195465D01*
X112884508Y-109021742D01*
X112884509Y-109021740D01*
X113009472Y-108869472D01*
X113161740Y-108744509D01*
X113335463Y-108651652D01*
X113335465Y-108651651D01*
X113523966Y-108594470D01*
X113523967Y-108594470D01*
X113523970Y-108594469D01*
X113670876Y-108580000D01*
X114569124Y-108580000D01*
X114716030Y-108594469D01*
X114716030Y-108594469D01*
G37*
G36*
X151341716Y-104384544D02*
X151742090Y-104550384D01*
X152102421Y-104791150D01*
X152408850Y-105097579D01*
X152649616Y-105457910D01*
X152815456Y-105858284D01*
X152900000Y-106283317D01*
X152900000Y-106716683D01*
X152815456Y-107141716D01*
X152649616Y-107542090D01*
X152408850Y-107902421D01*
X152102421Y-108208850D01*
X151742090Y-108449616D01*
X151341716Y-108615456D01*
X150916683Y-108700000D01*
X150483317Y-108700000D01*
X150058284Y-108615456D01*
X149657910Y-108449616D01*
X149297579Y-108208850D01*
X148991150Y-107902421D01*
X148750384Y-107542090D01*
X148584544Y-107141716D01*
X148500000Y-106716683D01*
X148500000Y-106283317D01*
X148584544Y-105858284D01*
X148750384Y-105457910D01*
X148991150Y-105097579D01*
X149297579Y-104791150D01*
X149657910Y-104550384D01*
X150058284Y-104384544D01*
X150483317Y-104300000D01*
X150916683Y-104300000D01*
X151341716Y-104384544D01*
X151341716Y-104384544D01*
G37*
G36*
X160141716Y-104384544D02*
X160542090Y-104550384D01*
X160902421Y-104791150D01*
X161208850Y-105097579D01*
X161449616Y-105457910D01*
X161615456Y-105858284D01*
X161700000Y-106283317D01*
X161700000Y-106716683D01*
X161615456Y-107141716D01*
X161449616Y-107542090D01*
X161208850Y-107902421D01*
X160902421Y-108208850D01*
X160542090Y-108449616D01*
X160141716Y-108615456D01*
X159716683Y-108700000D01*
X159283317Y-108700000D01*
X158858284Y-108615456D01*
X158457910Y-108449616D01*
X158097579Y-108208850D01*
X157791150Y-107902421D01*
X157550384Y-107542090D01*
X157384544Y-107141716D01*
X157300000Y-106716683D01*
X157300000Y-106283317D01*
X157384544Y-105858284D01*
X157550384Y-105457910D01*
X157791150Y-105097579D01*
X158097579Y-104791150D01*
X158457910Y-104550384D01*
X158858284Y-104384544D01*
X159283317Y-104300000D01*
X159716683Y-104300000D01*
X160141716Y-104384544D01*
X160141716Y-104384544D01*
G37*
G36*
X170550026Y-105896115D02*
X170768412Y-105986573D01*
X170964958Y-106117901D01*
X171132099Y-106285042D01*
X171263427Y-106481588D01*
X171353885Y-106699974D01*
X171400000Y-106931809D01*
X171400000Y-107168191D01*
X171353885Y-107400026D01*
X171263427Y-107618412D01*
X171132099Y-107814958D01*
X170964958Y-107982099D01*
X170768412Y-108113427D01*
X170550026Y-108203885D01*
X170318191Y-108250000D01*
X170081809Y-108250000D01*
X169849974Y-108203885D01*
X169631588Y-108113427D01*
X169435042Y-107982099D01*
X169267901Y-107814958D01*
X169136573Y-107618412D01*
X169046115Y-107400026D01*
X169000000Y-107168191D01*
X169000000Y-106931809D01*
X169046115Y-106699974D01*
X169136573Y-106481588D01*
X169267901Y-106285042D01*
X169435042Y-106117901D01*
X169631588Y-105986573D01*
X169849974Y-105896115D01*
X170081809Y-105850000D01*
X170318191Y-105850000D01*
X170550026Y-105896115D01*
X170550026Y-105896115D01*
G37*
G36*
X178350026Y-105896115D02*
X178568412Y-105986573D01*
X178764958Y-106117901D01*
X178932099Y-106285042D01*
X179063427Y-106481588D01*
X179153885Y-106699974D01*
X179200000Y-106931809D01*
X179200000Y-107168191D01*
X179153885Y-107400026D01*
X179063427Y-107618412D01*
X178932099Y-107814958D01*
X178764958Y-107982099D01*
X178568412Y-108113427D01*
X178350026Y-108203885D01*
X178118191Y-108250000D01*
X177881809Y-108250000D01*
X177649974Y-108203885D01*
X177431588Y-108113427D01*
X177235042Y-107982099D01*
X177067901Y-107814958D01*
X176936573Y-107618412D01*
X176846115Y-107400026D01*
X176800000Y-107168191D01*
X176800000Y-106931809D01*
X176846115Y-106699974D01*
X176936573Y-106481588D01*
X177067901Y-106285042D01*
X177235042Y-106117901D01*
X177431588Y-105986573D01*
X177649974Y-105896115D01*
X177881809Y-105850000D01*
X178118191Y-105850000D01*
X178350026Y-105896115D01*
X178350026Y-105896115D01*
G37*
G36*
X185100000Y-108150000D02*
X182900000Y-108150000D01*
X182900000Y-105950000D01*
X185100000Y-105950000D01*
X185100000Y-108150000D01*
X185100000Y-108150000D01*
G37*
G36*
X181780857Y-105992272D02*
X181981042Y-106075191D01*
X181981045Y-106075193D01*
X182035610Y-106111652D01*
X182161213Y-106195578D01*
X182314422Y-106348787D01*
X182434809Y-106528958D01*
X182517728Y-106729143D01*
X182560000Y-106941658D01*
X182560000Y-107158342D01*
X182517728Y-107370857D01*
X182434809Y-107571042D01*
X182314422Y-107751213D01*
X182161213Y-107904422D01*
X182161210Y-107904424D01*
X182161209Y-107904425D01*
X182065540Y-107968349D01*
X181981042Y-108024809D01*
X181780857Y-108107728D01*
X181568342Y-108150000D01*
X181351658Y-108150000D01*
X181139143Y-108107728D01*
X180938958Y-108024809D01*
X180854460Y-107968349D01*
X180758791Y-107904425D01*
X180758790Y-107904424D01*
X180758787Y-107904422D01*
X180605578Y-107751213D01*
X180485191Y-107571042D01*
X180402272Y-107370857D01*
X180360000Y-107158342D01*
X180360000Y-106941658D01*
X180402272Y-106729143D01*
X180485191Y-106528958D01*
X180605578Y-106348787D01*
X180758787Y-106195578D01*
X180884391Y-106111652D01*
X180938955Y-106075193D01*
X180938958Y-106075191D01*
X181139143Y-105992272D01*
X181351658Y-105950000D01*
X181568342Y-105950000D01*
X181780857Y-105992272D01*
X181780857Y-105992272D01*
G37*
G36*
X132820857Y-105942272D02*
X133021042Y-106025191D01*
X133021045Y-106025193D01*
X133150440Y-106111652D01*
X133201213Y-106145578D01*
X133354422Y-106298787D01*
X133474809Y-106478958D01*
X133557728Y-106679143D01*
X133600000Y-106891658D01*
X133600000Y-107108342D01*
X133557728Y-107320857D01*
X133474809Y-107521042D01*
X133474807Y-107521045D01*
X133409748Y-107618413D01*
X133354422Y-107701213D01*
X133201213Y-107854422D01*
X133201210Y-107854424D01*
X133201209Y-107854425D01*
X133129378Y-107902421D01*
X133021042Y-107974809D01*
X132820857Y-108057728D01*
X132608342Y-108100000D01*
X132391658Y-108100000D01*
X132179143Y-108057728D01*
X131978958Y-107974809D01*
X131870622Y-107902421D01*
X131798791Y-107854425D01*
X131798790Y-107854424D01*
X131798787Y-107854422D01*
X131645578Y-107701213D01*
X131590253Y-107618413D01*
X131525193Y-107521045D01*
X131525191Y-107521042D01*
X131442272Y-107320857D01*
X131400000Y-107108342D01*
X131400000Y-106891658D01*
X131442272Y-106679143D01*
X131525191Y-106478958D01*
X131645578Y-106298787D01*
X131798787Y-106145578D01*
X131849561Y-106111652D01*
X131978955Y-106025193D01*
X131978958Y-106025191D01*
X132179143Y-105942272D01*
X132391658Y-105900000D01*
X132608342Y-105900000D01*
X132820857Y-105942272D01*
X132820857Y-105942272D01*
G37*
G36*
X103820857Y-105942272D02*
X104021042Y-106025191D01*
X104021045Y-106025193D01*
X104150440Y-106111652D01*
X104201213Y-106145578D01*
X104354422Y-106298787D01*
X104474809Y-106478958D01*
X104557728Y-106679143D01*
X104600000Y-106891658D01*
X104600000Y-107108342D01*
X104557728Y-107320857D01*
X104474809Y-107521042D01*
X104474807Y-107521045D01*
X104409748Y-107618413D01*
X104354422Y-107701213D01*
X104201213Y-107854422D01*
X104201210Y-107854424D01*
X104201209Y-107854425D01*
X104129378Y-107902421D01*
X104021042Y-107974809D01*
X103820857Y-108057728D01*
X103608342Y-108100000D01*
X103391658Y-108100000D01*
X103179143Y-108057728D01*
X102978958Y-107974809D01*
X102870622Y-107902421D01*
X102798791Y-107854425D01*
X102798790Y-107854424D01*
X102798787Y-107854422D01*
X102645578Y-107701213D01*
X102590253Y-107618413D01*
X102525193Y-107521045D01*
X102525191Y-107521042D01*
X102442272Y-107320857D01*
X102400000Y-107108342D01*
X102400000Y-106891658D01*
X102442272Y-106679143D01*
X102525191Y-106478958D01*
X102645578Y-106298787D01*
X102798787Y-106145578D01*
X102849561Y-106111652D01*
X102978955Y-106025193D01*
X102978958Y-106025191D01*
X103179143Y-105942272D01*
X103391658Y-105900000D01*
X103608342Y-105900000D01*
X103820857Y-105942272D01*
X103820857Y-105942272D01*
G37*
G36*
X114716030Y-106054469D02*
X114716033Y-106054470D01*
X114716034Y-106054470D01*
X114904535Y-106111651D01*
X114904537Y-106111652D01*
X115078260Y-106204509D01*
X115230528Y-106329472D01*
X115355491Y-106481740D01*
X115355492Y-106481742D01*
X115448349Y-106655465D01*
X115470699Y-106729143D01*
X115505531Y-106843970D01*
X115524838Y-107040000D01*
X115505531Y-107236030D01*
X115505530Y-107236033D01*
X115505530Y-107236034D01*
X115455784Y-107400026D01*
X115448348Y-107424537D01*
X115355491Y-107598260D01*
X115230528Y-107750528D01*
X115078260Y-107875491D01*
X115024134Y-107904422D01*
X114904535Y-107968349D01*
X114716034Y-108025530D01*
X114716033Y-108025530D01*
X114716030Y-108025531D01*
X114569124Y-108040000D01*
X113670876Y-108040000D01*
X113523970Y-108025531D01*
X113523967Y-108025530D01*
X113523966Y-108025530D01*
X113335465Y-107968349D01*
X113215866Y-107904422D01*
X113161740Y-107875491D01*
X113009472Y-107750528D01*
X112884509Y-107598260D01*
X112791652Y-107424537D01*
X112784217Y-107400026D01*
X112734470Y-107236034D01*
X112734470Y-107236033D01*
X112734469Y-107236030D01*
X112715162Y-107040000D01*
X112734469Y-106843970D01*
X112769301Y-106729143D01*
X112791651Y-106655465D01*
X112884508Y-106481742D01*
X112884509Y-106481740D01*
X113009472Y-106329472D01*
X113161740Y-106204509D01*
X113335463Y-106111652D01*
X113335465Y-106111651D01*
X113523966Y-106054470D01*
X113523967Y-106054470D01*
X113523970Y-106054469D01*
X113670876Y-106040000D01*
X114569124Y-106040000D01*
X114716030Y-106054469D01*
X114716030Y-106054469D01*
G37*
G36*
X107096030Y-106054469D02*
X107096033Y-106054470D01*
X107096034Y-106054470D01*
X107284535Y-106111651D01*
X107284537Y-106111652D01*
X107458260Y-106204509D01*
X107610528Y-106329472D01*
X107735491Y-106481740D01*
X107735492Y-106481742D01*
X107828349Y-106655465D01*
X107850699Y-106729143D01*
X107885531Y-106843970D01*
X107904838Y-107040000D01*
X107885531Y-107236030D01*
X107885530Y-107236033D01*
X107885530Y-107236034D01*
X107835784Y-107400026D01*
X107828348Y-107424537D01*
X107735491Y-107598260D01*
X107610528Y-107750528D01*
X107458260Y-107875491D01*
X107404134Y-107904422D01*
X107284535Y-107968349D01*
X107096034Y-108025530D01*
X107096033Y-108025530D01*
X107096030Y-108025531D01*
X106949124Y-108040000D01*
X106050876Y-108040000D01*
X105903970Y-108025531D01*
X105903967Y-108025530D01*
X105903966Y-108025530D01*
X105715465Y-107968349D01*
X105595866Y-107904422D01*
X105541740Y-107875491D01*
X105389472Y-107750528D01*
X105264509Y-107598260D01*
X105171652Y-107424537D01*
X105164217Y-107400026D01*
X105114470Y-107236034D01*
X105114470Y-107236033D01*
X105114469Y-107236030D01*
X105095162Y-107040000D01*
X105114469Y-106843970D01*
X105149301Y-106729143D01*
X105171651Y-106655465D01*
X105264508Y-106481742D01*
X105264509Y-106481740D01*
X105389472Y-106329472D01*
X105541740Y-106204509D01*
X105715463Y-106111652D01*
X105715465Y-106111651D01*
X105903966Y-106054470D01*
X105903967Y-106054470D01*
X105903970Y-106054469D01*
X106050876Y-106040000D01*
X106949124Y-106040000D01*
X107096030Y-106054469D01*
X107096030Y-106054469D01*
G37*
G36*
X132820857Y-103442272D02*
X133021042Y-103525191D01*
X133021045Y-103525193D01*
X133195995Y-103642091D01*
X133201213Y-103645578D01*
X133354422Y-103798787D01*
X133474809Y-103978958D01*
X133557728Y-104179143D01*
X133600000Y-104391658D01*
X133600000Y-104608342D01*
X133557728Y-104820857D01*
X133474809Y-105021042D01*
X133474807Y-105021045D01*
X133423669Y-105097579D01*
X133354422Y-105201213D01*
X133201213Y-105354422D01*
X133201210Y-105354424D01*
X133201209Y-105354425D01*
X133090574Y-105428349D01*
X133021042Y-105474809D01*
X132820857Y-105557728D01*
X132608342Y-105600000D01*
X132391658Y-105600000D01*
X132179143Y-105557728D01*
X131978958Y-105474809D01*
X131909426Y-105428349D01*
X131798791Y-105354425D01*
X131798790Y-105354424D01*
X131798787Y-105354422D01*
X131645578Y-105201213D01*
X131576332Y-105097579D01*
X131525193Y-105021045D01*
X131525191Y-105021042D01*
X131442272Y-104820857D01*
X131400000Y-104608342D01*
X131400000Y-104391658D01*
X131442272Y-104179143D01*
X131525191Y-103978958D01*
X131645578Y-103798787D01*
X131798787Y-103645578D01*
X131804006Y-103642091D01*
X131978955Y-103525193D01*
X131978958Y-103525191D01*
X132179143Y-103442272D01*
X132391658Y-103400000D01*
X132608342Y-103400000D01*
X132820857Y-103442272D01*
X132820857Y-103442272D01*
G37*
G36*
X103820857Y-103442272D02*
X104021042Y-103525191D01*
X104021045Y-103525193D01*
X104195995Y-103642091D01*
X104201213Y-103645578D01*
X104354422Y-103798787D01*
X104474809Y-103978958D01*
X104557728Y-104179143D01*
X104600000Y-104391658D01*
X104600000Y-104608342D01*
X104557728Y-104820857D01*
X104474809Y-105021042D01*
X104474807Y-105021045D01*
X104423669Y-105097579D01*
X104354422Y-105201213D01*
X104201213Y-105354422D01*
X104201210Y-105354424D01*
X104201209Y-105354425D01*
X104090574Y-105428349D01*
X104021042Y-105474809D01*
X103820857Y-105557728D01*
X103608342Y-105600000D01*
X103391658Y-105600000D01*
X103179143Y-105557728D01*
X102978958Y-105474809D01*
X102909426Y-105428349D01*
X102798791Y-105354425D01*
X102798790Y-105354424D01*
X102798787Y-105354422D01*
X102645578Y-105201213D01*
X102576332Y-105097579D01*
X102525193Y-105021045D01*
X102525191Y-105021042D01*
X102442272Y-104820857D01*
X102400000Y-104608342D01*
X102400000Y-104391658D01*
X102442272Y-104179143D01*
X102525191Y-103978958D01*
X102645578Y-103798787D01*
X102798787Y-103645578D01*
X102804006Y-103642091D01*
X102978955Y-103525193D01*
X102978958Y-103525191D01*
X103179143Y-103442272D01*
X103391658Y-103400000D01*
X103608342Y-103400000D01*
X103820857Y-103442272D01*
X103820857Y-103442272D01*
G37*
G36*
X114716030Y-103514469D02*
X114716033Y-103514470D01*
X114716034Y-103514470D01*
X114904535Y-103571651D01*
X114904537Y-103571652D01*
X115078260Y-103664509D01*
X115230528Y-103789472D01*
X115355491Y-103941740D01*
X115448348Y-104115463D01*
X115505531Y-104303970D01*
X115524838Y-104500000D01*
X115505531Y-104696030D01*
X115505530Y-104696033D01*
X115505530Y-104696034D01*
X115476678Y-104791148D01*
X115448348Y-104884537D01*
X115355491Y-105058260D01*
X115230528Y-105210528D01*
X115078260Y-105335491D01*
X115078258Y-105335492D01*
X114904535Y-105428349D01*
X114716034Y-105485530D01*
X114716033Y-105485530D01*
X114716030Y-105485531D01*
X114569124Y-105500000D01*
X113670876Y-105500000D01*
X113523970Y-105485531D01*
X113523967Y-105485530D01*
X113523966Y-105485530D01*
X113335465Y-105428349D01*
X113161742Y-105335492D01*
X113161740Y-105335491D01*
X113009472Y-105210528D01*
X112884509Y-105058260D01*
X112791652Y-104884537D01*
X112763323Y-104791148D01*
X112734470Y-104696034D01*
X112734470Y-104696033D01*
X112734469Y-104696030D01*
X112715162Y-104500000D01*
X112734469Y-104303970D01*
X112791652Y-104115463D01*
X112884509Y-103941740D01*
X113009472Y-103789472D01*
X113161740Y-103664509D01*
X113335463Y-103571652D01*
X113335465Y-103571651D01*
X113523966Y-103514470D01*
X113523967Y-103514470D01*
X113523970Y-103514469D01*
X113670876Y-103500000D01*
X114569124Y-103500000D01*
X114716030Y-103514469D01*
X114716030Y-103514469D01*
G37*
G36*
X107096030Y-103514469D02*
X107096033Y-103514470D01*
X107096034Y-103514470D01*
X107284535Y-103571651D01*
X107284537Y-103571652D01*
X107458260Y-103664509D01*
X107610528Y-103789472D01*
X107735491Y-103941740D01*
X107828348Y-104115463D01*
X107885531Y-104303970D01*
X107904838Y-104500000D01*
X107885531Y-104696030D01*
X107885530Y-104696033D01*
X107885530Y-104696034D01*
X107856678Y-104791148D01*
X107828348Y-104884537D01*
X107735491Y-105058260D01*
X107610528Y-105210528D01*
X107458260Y-105335491D01*
X107458258Y-105335492D01*
X107284535Y-105428349D01*
X107096034Y-105485530D01*
X107096033Y-105485530D01*
X107096030Y-105485531D01*
X106949124Y-105500000D01*
X106050876Y-105500000D01*
X105903970Y-105485531D01*
X105903967Y-105485530D01*
X105903966Y-105485530D01*
X105715465Y-105428349D01*
X105541742Y-105335492D01*
X105541740Y-105335491D01*
X105389472Y-105210528D01*
X105264509Y-105058260D01*
X105171652Y-104884537D01*
X105143323Y-104791148D01*
X105114470Y-104696034D01*
X105114470Y-104696033D01*
X105114469Y-104696030D01*
X105095162Y-104500000D01*
X105114469Y-104303970D01*
X105171652Y-104115463D01*
X105264509Y-103941740D01*
X105389472Y-103789472D01*
X105541740Y-103664509D01*
X105715463Y-103571652D01*
X105715465Y-103571651D01*
X105903966Y-103514470D01*
X105903967Y-103514470D01*
X105903970Y-103514469D01*
X106050876Y-103500000D01*
X106949124Y-103500000D01*
X107096030Y-103514469D01*
X107096030Y-103514469D01*
G37*
G36*
X126141716Y-100484544D02*
X126542090Y-100650384D01*
X126902421Y-100891150D01*
X127208850Y-101197579D01*
X127449616Y-101557910D01*
X127615456Y-101958284D01*
X127700000Y-102383317D01*
X127700000Y-102816683D01*
X127615456Y-103241716D01*
X127449616Y-103642090D01*
X127208850Y-104002421D01*
X126902421Y-104308850D01*
X126542090Y-104549616D01*
X126141716Y-104715456D01*
X125716683Y-104800000D01*
X125283317Y-104800000D01*
X124858284Y-104715456D01*
X124457910Y-104549616D01*
X124097579Y-104308850D01*
X123791150Y-104002421D01*
X123550384Y-103642090D01*
X123384544Y-103241716D01*
X123300000Y-102816683D01*
X123300000Y-102383317D01*
X123384544Y-101958284D01*
X123550384Y-101557910D01*
X123791150Y-101197579D01*
X124097579Y-100891150D01*
X124457910Y-100650384D01*
X124858284Y-100484544D01*
X125283317Y-100400000D01*
X125716683Y-100400000D01*
X126141716Y-100484544D01*
X126141716Y-100484544D01*
G37*
G36*
X97141716Y-100484544D02*
X97542090Y-100650384D01*
X97902421Y-100891150D01*
X98208850Y-101197579D01*
X98449616Y-101557910D01*
X98615456Y-101958284D01*
X98700000Y-102383317D01*
X98700000Y-102816683D01*
X98615456Y-103241716D01*
X98449616Y-103642090D01*
X98208850Y-104002421D01*
X97902421Y-104308850D01*
X97542090Y-104549616D01*
X97141716Y-104715456D01*
X96716683Y-104800000D01*
X96283317Y-104800000D01*
X95858284Y-104715456D01*
X95457910Y-104549616D01*
X95097579Y-104308850D01*
X94791150Y-104002421D01*
X94550384Y-103642090D01*
X94384544Y-103241716D01*
X94300000Y-102816683D01*
X94300000Y-102383317D01*
X94384544Y-101958284D01*
X94550384Y-101557910D01*
X94791150Y-101197579D01*
X95097579Y-100891150D01*
X95457910Y-100650384D01*
X95858284Y-100484544D01*
X96283317Y-100400000D01*
X96716683Y-100400000D01*
X97141716Y-100484544D01*
X97141716Y-100484544D01*
G37*
G36*
X107600026Y-100096115D02*
X107818412Y-100186573D01*
X108014958Y-100317901D01*
X108182099Y-100485042D01*
X108313427Y-100681588D01*
X108403885Y-100899974D01*
X108450000Y-101131809D01*
X108450000Y-101368191D01*
X108403885Y-101600026D01*
X108313427Y-101818412D01*
X108182099Y-102014958D01*
X108014958Y-102182099D01*
X107818412Y-102313427D01*
X107600026Y-102403885D01*
X107368191Y-102450000D01*
X107131809Y-102450000D01*
X106899974Y-102403885D01*
X106681588Y-102313427D01*
X106485042Y-102182099D01*
X106317901Y-102014958D01*
X106186573Y-101818412D01*
X106096115Y-101600026D01*
X106050000Y-101368191D01*
X106050000Y-101131809D01*
X106096115Y-100899974D01*
X106186573Y-100681588D01*
X106317901Y-100485042D01*
X106485042Y-100317901D01*
X106681588Y-100186573D01*
X106899974Y-100096115D01*
X107131809Y-100050000D01*
X107368191Y-100050000D01*
X107600026Y-100096115D01*
X107600026Y-100096115D01*
G37*
G36*
X112600026Y-100096115D02*
X112818412Y-100186573D01*
X113014958Y-100317901D01*
X113182099Y-100485042D01*
X113313427Y-100681588D01*
X113403885Y-100899974D01*
X113450000Y-101131809D01*
X113450000Y-101368191D01*
X113403885Y-101600026D01*
X113313427Y-101818412D01*
X113182099Y-102014958D01*
X113014958Y-102182099D01*
X112818412Y-102313427D01*
X112600026Y-102403885D01*
X112368191Y-102450000D01*
X112131809Y-102450000D01*
X111899974Y-102403885D01*
X111681588Y-102313427D01*
X111485042Y-102182099D01*
X111317901Y-102014958D01*
X111186573Y-101818412D01*
X111096115Y-101600026D01*
X111050000Y-101368191D01*
X111050000Y-101131809D01*
X111096115Y-100899974D01*
X111186573Y-100681588D01*
X111317901Y-100485042D01*
X111485042Y-100317901D01*
X111681588Y-100186573D01*
X111899974Y-100096115D01*
X112131809Y-100050000D01*
X112368191Y-100050000D01*
X112600026Y-100096115D01*
X112600026Y-100096115D01*
G37*
G36*
X155420857Y-98442272D02*
X155621042Y-98525191D01*
X155801213Y-98645578D01*
X155954422Y-98798787D01*
X156074809Y-98978958D01*
X156157728Y-99179143D01*
X156200000Y-99391658D01*
X156200000Y-99608342D01*
X156157728Y-99820857D01*
X156074809Y-100021042D01*
X155954422Y-100201213D01*
X155801213Y-100354422D01*
X155621042Y-100474809D01*
X155420857Y-100557728D01*
X155208342Y-100600000D01*
X154991658Y-100600000D01*
X154779143Y-100557728D01*
X154578958Y-100474809D01*
X154398787Y-100354422D01*
X154245578Y-100201213D01*
X154125191Y-100021042D01*
X154042272Y-99820857D01*
X154000000Y-99608342D01*
X154000000Y-99391658D01*
X154042272Y-99179143D01*
X154125191Y-98978958D01*
X154245578Y-98798787D01*
X154398787Y-98645578D01*
X154578958Y-98525191D01*
X154779143Y-98442272D01*
X154991658Y-98400000D01*
X155208342Y-98400000D01*
X155420857Y-98442272D01*
X155420857Y-98442272D01*
G37*
G36*
X152920857Y-98442272D02*
X153121042Y-98525191D01*
X153301213Y-98645578D01*
X153454422Y-98798787D01*
X153574809Y-98978958D01*
X153657728Y-99179143D01*
X153700000Y-99391658D01*
X153700000Y-99608342D01*
X153657728Y-99820857D01*
X153574809Y-100021042D01*
X153454422Y-100201213D01*
X153301213Y-100354422D01*
X153121042Y-100474809D01*
X152920857Y-100557728D01*
X152708342Y-100600000D01*
X152491658Y-100600000D01*
X152279143Y-100557728D01*
X152078958Y-100474809D01*
X151898787Y-100354422D01*
X151745578Y-100201213D01*
X151625191Y-100021042D01*
X151542272Y-99820857D01*
X151500000Y-99608342D01*
X151500000Y-99391658D01*
X151542272Y-99179143D01*
X151625191Y-98978958D01*
X151745578Y-98798787D01*
X151898787Y-98645578D01*
X152078958Y-98525191D01*
X152279143Y-98442272D01*
X152491658Y-98400000D01*
X152708342Y-98400000D01*
X152920857Y-98442272D01*
X152920857Y-98442272D01*
G37*
G36*
X157920857Y-98442272D02*
X158121042Y-98525191D01*
X158301213Y-98645578D01*
X158454422Y-98798787D01*
X158574809Y-98978958D01*
X158657728Y-99179143D01*
X158700000Y-99391658D01*
X158700000Y-99608342D01*
X158657728Y-99820857D01*
X158574809Y-100021042D01*
X158454422Y-100201213D01*
X158301213Y-100354422D01*
X158121042Y-100474809D01*
X157920857Y-100557728D01*
X157708342Y-100600000D01*
X157491658Y-100600000D01*
X157279143Y-100557728D01*
X157078958Y-100474809D01*
X156898787Y-100354422D01*
X156745578Y-100201213D01*
X156625191Y-100021042D01*
X156542272Y-99820857D01*
X156500000Y-99608342D01*
X156500000Y-99391658D01*
X156542272Y-99179143D01*
X156625191Y-98978958D01*
X156745578Y-98798787D01*
X156898787Y-98645578D01*
X157078958Y-98525191D01*
X157279143Y-98442272D01*
X157491658Y-98400000D01*
X157708342Y-98400000D01*
X157920857Y-98442272D01*
X157920857Y-98442272D01*
G37*
G36*
X120350026Y-96046115D02*
X120568412Y-96136573D01*
X120764958Y-96267901D01*
X120932099Y-96435042D01*
X121063427Y-96631588D01*
X121153885Y-96849974D01*
X121200000Y-97081809D01*
X121200000Y-97318191D01*
X121153885Y-97550026D01*
X121063427Y-97768412D01*
X120932099Y-97964958D01*
X120764958Y-98132099D01*
X120568412Y-98263427D01*
X120350026Y-98353885D01*
X120118191Y-98400000D01*
X119881809Y-98400000D01*
X119649974Y-98353885D01*
X119431588Y-98263427D01*
X119235042Y-98132099D01*
X119067901Y-97964958D01*
X118936573Y-97768412D01*
X118846115Y-97550026D01*
X118800000Y-97318191D01*
X118800000Y-97081809D01*
X118846115Y-96849974D01*
X118936573Y-96631588D01*
X119067901Y-96435042D01*
X119235042Y-96267901D01*
X119431588Y-96136573D01*
X119649974Y-96046115D01*
X119881809Y-96000000D01*
X120118191Y-96000000D01*
X120350026Y-96046115D01*
X120350026Y-96046115D01*
G37*
G36*
X125350026Y-96046115D02*
X125568412Y-96136573D01*
X125764958Y-96267901D01*
X125932099Y-96435042D01*
X126063427Y-96631588D01*
X126153885Y-96849974D01*
X126200000Y-97081809D01*
X126200000Y-97318191D01*
X126153885Y-97550026D01*
X126063427Y-97768412D01*
X125932099Y-97964958D01*
X125764958Y-98132099D01*
X125568412Y-98263427D01*
X125350026Y-98353885D01*
X125118191Y-98400000D01*
X124881809Y-98400000D01*
X124649974Y-98353885D01*
X124431588Y-98263427D01*
X124235042Y-98132099D01*
X124067901Y-97964958D01*
X123936573Y-97768412D01*
X123846115Y-97550026D01*
X123800000Y-97318191D01*
X123800000Y-97081809D01*
X123846115Y-96849974D01*
X123936573Y-96631588D01*
X124067901Y-96435042D01*
X124235042Y-96267901D01*
X124431588Y-96136573D01*
X124649974Y-96046115D01*
X124881809Y-96000000D01*
X125118191Y-96000000D01*
X125350026Y-96046115D01*
X125350026Y-96046115D01*
G37*
G36*
X107600026Y-95096115D02*
X107818412Y-95186573D01*
X108014958Y-95317901D01*
X108182099Y-95485042D01*
X108313427Y-95681588D01*
X108403885Y-95899974D01*
X108450000Y-96131809D01*
X108450000Y-96368191D01*
X108403885Y-96600026D01*
X108313427Y-96818412D01*
X108182099Y-97014958D01*
X108014958Y-97182099D01*
X107818412Y-97313427D01*
X107600026Y-97403885D01*
X107368191Y-97450000D01*
X107131809Y-97450000D01*
X106899974Y-97403885D01*
X106681588Y-97313427D01*
X106485042Y-97182099D01*
X106317901Y-97014958D01*
X106186573Y-96818412D01*
X106096115Y-96600026D01*
X106050000Y-96368191D01*
X106050000Y-96131809D01*
X106096115Y-95899974D01*
X106186573Y-95681588D01*
X106317901Y-95485042D01*
X106485042Y-95317901D01*
X106681588Y-95186573D01*
X106899974Y-95096115D01*
X107131809Y-95050000D01*
X107368191Y-95050000D01*
X107600026Y-95096115D01*
X107600026Y-95096115D01*
G37*
G36*
X112600026Y-95096115D02*
X112818412Y-95186573D01*
X113014958Y-95317901D01*
X113182099Y-95485042D01*
X113313427Y-95681588D01*
X113403885Y-95899974D01*
X113450000Y-96131809D01*
X113450000Y-96368191D01*
X113403885Y-96600026D01*
X113313427Y-96818412D01*
X113182099Y-97014958D01*
X113014958Y-97182099D01*
X112818412Y-97313427D01*
X112600026Y-97403885D01*
X112368191Y-97450000D01*
X112131809Y-97450000D01*
X111899974Y-97403885D01*
X111681588Y-97313427D01*
X111485042Y-97182099D01*
X111317901Y-97014958D01*
X111186573Y-96818412D01*
X111096115Y-96600026D01*
X111050000Y-96368191D01*
X111050000Y-96131809D01*
X111096115Y-95899974D01*
X111186573Y-95681588D01*
X111317901Y-95485042D01*
X111485042Y-95317901D01*
X111681588Y-95186573D01*
X111899974Y-95096115D01*
X112131809Y-95050000D01*
X112368191Y-95050000D01*
X112600026Y-95096115D01*
X112600026Y-95096115D01*
G37*
G36*
X166825770Y-92515372D02*
X166941689Y-92538429D01*
X167123678Y-92613811D01*
X167287463Y-92723249D01*
X167426751Y-92862537D01*
X167536189Y-93026322D01*
X167611571Y-93208311D01*
X167650000Y-93401509D01*
X167650000Y-93598491D01*
X167611571Y-93791689D01*
X167536189Y-93973678D01*
X167426751Y-94137463D01*
X167287463Y-94276751D01*
X167123678Y-94386189D01*
X166941689Y-94461571D01*
X166825770Y-94484628D01*
X166748493Y-94500000D01*
X166551507Y-94500000D01*
X166474230Y-94484628D01*
X166358311Y-94461571D01*
X166176322Y-94386189D01*
X166012537Y-94276751D01*
X165873249Y-94137463D01*
X165763811Y-93973678D01*
X165688429Y-93791689D01*
X165650000Y-93598491D01*
X165650000Y-93401509D01*
X165688429Y-93208311D01*
X165763811Y-93026322D01*
X165873249Y-92862537D01*
X166012537Y-92723249D01*
X166176322Y-92613811D01*
X166358311Y-92538429D01*
X166474230Y-92515372D01*
X166551507Y-92500000D01*
X166748493Y-92500000D01*
X166825770Y-92515372D01*
X166825770Y-92515372D01*
G37*
G36*
X125350026Y-91446115D02*
X125568412Y-91536573D01*
X125764958Y-91667901D01*
X125932099Y-91835042D01*
X126063427Y-92031588D01*
X126153885Y-92249974D01*
X126200000Y-92481809D01*
X126200000Y-92718191D01*
X126153885Y-92950026D01*
X126063427Y-93168412D01*
X125932099Y-93364958D01*
X125764958Y-93532099D01*
X125568412Y-93663427D01*
X125350026Y-93753885D01*
X125118191Y-93800000D01*
X124881809Y-93800000D01*
X124649974Y-93753885D01*
X124431588Y-93663427D01*
X124235042Y-93532099D01*
X124067901Y-93364958D01*
X123936573Y-93168412D01*
X123846115Y-92950026D01*
X123800000Y-92718191D01*
X123800000Y-92481809D01*
X123846115Y-92249974D01*
X123936573Y-92031588D01*
X124067901Y-91835042D01*
X124235042Y-91667901D01*
X124431588Y-91536573D01*
X124649974Y-91446115D01*
X124881809Y-91400000D01*
X125118191Y-91400000D01*
X125350026Y-91446115D01*
X125350026Y-91446115D01*
G37*
G36*
X120350026Y-91446115D02*
X120568412Y-91536573D01*
X120764958Y-91667901D01*
X120932099Y-91835042D01*
X121063427Y-92031588D01*
X121153885Y-92249974D01*
X121200000Y-92481809D01*
X121200000Y-92718191D01*
X121153885Y-92950026D01*
X121063427Y-93168412D01*
X120932099Y-93364958D01*
X120764958Y-93532099D01*
X120568412Y-93663427D01*
X120350026Y-93753885D01*
X120118191Y-93800000D01*
X119881809Y-93800000D01*
X119649974Y-93753885D01*
X119431588Y-93663427D01*
X119235042Y-93532099D01*
X119067901Y-93364958D01*
X118936573Y-93168412D01*
X118846115Y-92950026D01*
X118800000Y-92718191D01*
X118800000Y-92481809D01*
X118846115Y-92249974D01*
X118936573Y-92031588D01*
X119067901Y-91835042D01*
X119235042Y-91667901D01*
X119431588Y-91536573D01*
X119649974Y-91446115D01*
X119881809Y-91400000D01*
X120118191Y-91400000D01*
X120350026Y-91446115D01*
X120350026Y-91446115D01*
G37*
G36*
X97141716Y-88284544D02*
X97542090Y-88450384D01*
X97902421Y-88691150D01*
X98208850Y-88997579D01*
X98449616Y-89357910D01*
X98615456Y-89758284D01*
X98700000Y-90183317D01*
X98700000Y-90616683D01*
X98615456Y-91041716D01*
X98449616Y-91442090D01*
X98208850Y-91802421D01*
X97902421Y-92108850D01*
X97542090Y-92349616D01*
X97141716Y-92515456D01*
X96716683Y-92600000D01*
X96283317Y-92600000D01*
X95858284Y-92515456D01*
X95457910Y-92349616D01*
X95097579Y-92108850D01*
X94791150Y-91802421D01*
X94550384Y-91442090D01*
X94384544Y-91041716D01*
X94300000Y-90616683D01*
X94300000Y-90183317D01*
X94384544Y-89758284D01*
X94550384Y-89357910D01*
X94791150Y-88997579D01*
X95097579Y-88691150D01*
X95457910Y-88450384D01*
X95858284Y-88284544D01*
X96283317Y-88200000D01*
X96716683Y-88200000D01*
X97141716Y-88284544D01*
X97141716Y-88284544D01*
G37*
G36*
X184141716Y-88284544D02*
X184542090Y-88450384D01*
X184902421Y-88691150D01*
X185208850Y-88997579D01*
X185449616Y-89357910D01*
X185615456Y-89758284D01*
X185700000Y-90183317D01*
X185700000Y-90616683D01*
X185615456Y-91041716D01*
X185449616Y-91442090D01*
X185208850Y-91802421D01*
X184902421Y-92108850D01*
X184542090Y-92349616D01*
X184141716Y-92515456D01*
X183716683Y-92600000D01*
X183283317Y-92600000D01*
X182858284Y-92515456D01*
X182457910Y-92349616D01*
X182097579Y-92108850D01*
X181791150Y-91802421D01*
X181550384Y-91442090D01*
X181384544Y-91041716D01*
X181300000Y-90616683D01*
X181300000Y-90183317D01*
X181384544Y-89758284D01*
X181550384Y-89357910D01*
X181791150Y-88997579D01*
X182097579Y-88691150D01*
X182457910Y-88450384D01*
X182858284Y-88284544D01*
X183283317Y-88200000D01*
X183716683Y-88200000D01*
X184141716Y-88284544D01*
X184141716Y-88284544D01*
G37*
G36*
X107096030Y-90114469D02*
X107096033Y-90114470D01*
X107096034Y-90114470D01*
X107284535Y-90171651D01*
X107284537Y-90171652D01*
X107458260Y-90264509D01*
X107610528Y-90389472D01*
X107735491Y-90541740D01*
X107828348Y-90715463D01*
X107885531Y-90903970D01*
X107904838Y-91100000D01*
X107885531Y-91296030D01*
X107885530Y-91296033D01*
X107885530Y-91296034D01*
X107840004Y-91446115D01*
X107828348Y-91484537D01*
X107735491Y-91658260D01*
X107610528Y-91810528D01*
X107458260Y-91935491D01*
X107458258Y-91935492D01*
X107284535Y-92028349D01*
X107096034Y-92085530D01*
X107096033Y-92085530D01*
X107096030Y-92085531D01*
X106949124Y-92100000D01*
X106050876Y-92100000D01*
X105903970Y-92085531D01*
X105903967Y-92085530D01*
X105903966Y-92085530D01*
X105715465Y-92028349D01*
X105541742Y-91935492D01*
X105541740Y-91935491D01*
X105389472Y-91810528D01*
X105264509Y-91658260D01*
X105171652Y-91484537D01*
X105159997Y-91446115D01*
X105114470Y-91296034D01*
X105114470Y-91296033D01*
X105114469Y-91296030D01*
X105095162Y-91100000D01*
X105114469Y-90903970D01*
X105171652Y-90715463D01*
X105264509Y-90541740D01*
X105389472Y-90389472D01*
X105541740Y-90264509D01*
X105715463Y-90171652D01*
X105715465Y-90171651D01*
X105903966Y-90114470D01*
X105903967Y-90114470D01*
X105903970Y-90114469D01*
X106050876Y-90100000D01*
X106949124Y-90100000D01*
X107096030Y-90114469D01*
X107096030Y-90114469D01*
G37*
G36*
X115520000Y-92100000D02*
X112720000Y-92100000D01*
X112720000Y-90100000D01*
X115520000Y-90100000D01*
X115520000Y-92100000D01*
X115520000Y-92100000D01*
G37*
G36*
X176820857Y-87442272D02*
X177021042Y-87525191D01*
X177021045Y-87525193D01*
X177180372Y-87631652D01*
X177201213Y-87645578D01*
X177354422Y-87798787D01*
X177474809Y-87978958D01*
X177557728Y-88179143D01*
X177600000Y-88391658D01*
X177600000Y-88608342D01*
X177557728Y-88820857D01*
X177474809Y-89021042D01*
X177354422Y-89201213D01*
X177201213Y-89354422D01*
X177201210Y-89354424D01*
X177201209Y-89354425D01*
X177139748Y-89395492D01*
X177021042Y-89474809D01*
X176820857Y-89557728D01*
X176608342Y-89600000D01*
X176391658Y-89600000D01*
X176179143Y-89557728D01*
X175978958Y-89474809D01*
X175860252Y-89395492D01*
X175798791Y-89354425D01*
X175798790Y-89354424D01*
X175798787Y-89354422D01*
X175645578Y-89201213D01*
X175525191Y-89021042D01*
X175442272Y-88820857D01*
X175400000Y-88608342D01*
X175400000Y-88391658D01*
X175442272Y-88179143D01*
X175525191Y-87978958D01*
X175645578Y-87798787D01*
X175798787Y-87645578D01*
X175819629Y-87631652D01*
X175978955Y-87525193D01*
X175978958Y-87525191D01*
X176179143Y-87442272D01*
X176391658Y-87400000D01*
X176608342Y-87400000D01*
X176820857Y-87442272D01*
X176820857Y-87442272D01*
G37*
G36*
X103820857Y-87442272D02*
X104021042Y-87525191D01*
X104021045Y-87525193D01*
X104180372Y-87631652D01*
X104201213Y-87645578D01*
X104354422Y-87798787D01*
X104474809Y-87978958D01*
X104557728Y-88179143D01*
X104600000Y-88391658D01*
X104600000Y-88608342D01*
X104557728Y-88820857D01*
X104474809Y-89021042D01*
X104354422Y-89201213D01*
X104201213Y-89354422D01*
X104201210Y-89354424D01*
X104201209Y-89354425D01*
X104139748Y-89395492D01*
X104021042Y-89474809D01*
X103820857Y-89557728D01*
X103608342Y-89600000D01*
X103391658Y-89600000D01*
X103179143Y-89557728D01*
X102978958Y-89474809D01*
X102860252Y-89395492D01*
X102798791Y-89354425D01*
X102798790Y-89354424D01*
X102798787Y-89354422D01*
X102645578Y-89201213D01*
X102525191Y-89021042D01*
X102442272Y-88820857D01*
X102400000Y-88608342D01*
X102400000Y-88391658D01*
X102442272Y-88179143D01*
X102525191Y-87978958D01*
X102645578Y-87798787D01*
X102798787Y-87645578D01*
X102819629Y-87631652D01*
X102978955Y-87525193D01*
X102978958Y-87525191D01*
X103179143Y-87442272D01*
X103391658Y-87400000D01*
X103608342Y-87400000D01*
X103820857Y-87442272D01*
X103820857Y-87442272D01*
G37*
G36*
X114716030Y-87574469D02*
X114716033Y-87574470D01*
X114716034Y-87574470D01*
X114904535Y-87631651D01*
X114904537Y-87631652D01*
X115078260Y-87724509D01*
X115230528Y-87849472D01*
X115355491Y-88001740D01*
X115355492Y-88001742D01*
X115448349Y-88175465D01*
X115481438Y-88284545D01*
X115505531Y-88363970D01*
X115524838Y-88560000D01*
X115505531Y-88756030D01*
X115448348Y-88944537D01*
X115355491Y-89118260D01*
X115230528Y-89270528D01*
X115078260Y-89395491D01*
X115078258Y-89395492D01*
X114904535Y-89488349D01*
X114716034Y-89545530D01*
X114716033Y-89545530D01*
X114716030Y-89545531D01*
X114569124Y-89560000D01*
X113670876Y-89560000D01*
X113523970Y-89545531D01*
X113523967Y-89545530D01*
X113523966Y-89545530D01*
X113335465Y-89488349D01*
X113161742Y-89395492D01*
X113161740Y-89395491D01*
X113009472Y-89270528D01*
X112884509Y-89118260D01*
X112791652Y-88944537D01*
X112734469Y-88756030D01*
X112715162Y-88560000D01*
X112734469Y-88363970D01*
X112758562Y-88284545D01*
X112791651Y-88175465D01*
X112884508Y-88001742D01*
X112884509Y-88001740D01*
X113009472Y-87849472D01*
X113161740Y-87724509D01*
X113335463Y-87631652D01*
X113335465Y-87631651D01*
X113523966Y-87574470D01*
X113523967Y-87574470D01*
X113523970Y-87574469D01*
X113670876Y-87560000D01*
X114569124Y-87560000D01*
X114716030Y-87574469D01*
X114716030Y-87574469D01*
G37*
G36*
X107096030Y-87574469D02*
X107096033Y-87574470D01*
X107096034Y-87574470D01*
X107284535Y-87631651D01*
X107284537Y-87631652D01*
X107458260Y-87724509D01*
X107610528Y-87849472D01*
X107735491Y-88001740D01*
X107735492Y-88001742D01*
X107828349Y-88175465D01*
X107861438Y-88284545D01*
X107885531Y-88363970D01*
X107904838Y-88560000D01*
X107885531Y-88756030D01*
X107828348Y-88944537D01*
X107735491Y-89118260D01*
X107610528Y-89270528D01*
X107458260Y-89395491D01*
X107458258Y-89395492D01*
X107284535Y-89488349D01*
X107096034Y-89545530D01*
X107096033Y-89545530D01*
X107096030Y-89545531D01*
X106949124Y-89560000D01*
X106050876Y-89560000D01*
X105903970Y-89545531D01*
X105903967Y-89545530D01*
X105903966Y-89545530D01*
X105715465Y-89488349D01*
X105541742Y-89395492D01*
X105541740Y-89395491D01*
X105389472Y-89270528D01*
X105264509Y-89118260D01*
X105171652Y-88944537D01*
X105114469Y-88756030D01*
X105095162Y-88560000D01*
X105114469Y-88363970D01*
X105138562Y-88284545D01*
X105171651Y-88175465D01*
X105264508Y-88001742D01*
X105264509Y-88001740D01*
X105389472Y-87849472D01*
X105541740Y-87724509D01*
X105715463Y-87631652D01*
X105715465Y-87631651D01*
X105903966Y-87574470D01*
X105903967Y-87574470D01*
X105903970Y-87574469D01*
X106050876Y-87560000D01*
X106949124Y-87560000D01*
X107096030Y-87574469D01*
X107096030Y-87574469D01*
G37*
G36*
X167650000Y-89500000D02*
X165650000Y-89500000D01*
X165650000Y-87500000D01*
X167650000Y-87500000D01*
X167650000Y-89500000D01*
X167650000Y-89500000D01*
G37*
G36*
X159684249Y-84070981D02*
X159957575Y-84153894D01*
X160209473Y-84288536D01*
X160209474Y-84288537D01*
X160209476Y-84288538D01*
X160430265Y-84469735D01*
X160502478Y-84557727D01*
X160611464Y-84690526D01*
X160746106Y-84942424D01*
X160829019Y-85215750D01*
X160850000Y-85428775D01*
X160850000Y-86571225D01*
X160829019Y-86784250D01*
X160746106Y-87057576D01*
X160611464Y-87309474D01*
X160430265Y-87530265D01*
X160209474Y-87711464D01*
X159957576Y-87846106D01*
X159684250Y-87929019D01*
X159400000Y-87957015D01*
X159115751Y-87929019D01*
X158842425Y-87846106D01*
X158590527Y-87711464D01*
X158423600Y-87574470D01*
X158369738Y-87530267D01*
X158369736Y-87530265D01*
X158188536Y-87309474D01*
X158053894Y-87057576D01*
X157970981Y-86784250D01*
X157950000Y-86571225D01*
X157950000Y-85428776D01*
X157970981Y-85215751D01*
X158053894Y-84942425D01*
X158188536Y-84690527D01*
X158218608Y-84653884D01*
X158369735Y-84469735D01*
X158590524Y-84288538D01*
X158590526Y-84288536D01*
X158842424Y-84153894D01*
X159115750Y-84070981D01*
X159400000Y-84042985D01*
X159684249Y-84070981D01*
X159684249Y-84070981D01*
G37*
G36*
X155284249Y-84070981D02*
X155557575Y-84153894D01*
X155809473Y-84288536D01*
X155809474Y-84288537D01*
X155809476Y-84288538D01*
X156030265Y-84469735D01*
X156102478Y-84557727D01*
X156211464Y-84690526D01*
X156346106Y-84942424D01*
X156429019Y-85215750D01*
X156450000Y-85428775D01*
X156450000Y-86571225D01*
X156429019Y-86784250D01*
X156346106Y-87057576D01*
X156211464Y-87309474D01*
X156030265Y-87530265D01*
X155809474Y-87711464D01*
X155557576Y-87846106D01*
X155284250Y-87929019D01*
X155000000Y-87957015D01*
X154715751Y-87929019D01*
X154442425Y-87846106D01*
X154190527Y-87711464D01*
X154023600Y-87574470D01*
X153969738Y-87530267D01*
X153969736Y-87530265D01*
X153788536Y-87309474D01*
X153653894Y-87057576D01*
X153570981Y-86784250D01*
X153550000Y-86571225D01*
X153550000Y-85428776D01*
X153570981Y-85215751D01*
X153653894Y-84942425D01*
X153788536Y-84690527D01*
X153818608Y-84653884D01*
X153969735Y-84469735D01*
X154190524Y-84288538D01*
X154190526Y-84288536D01*
X154442424Y-84153894D01*
X154715750Y-84070981D01*
X155000000Y-84042985D01*
X155284249Y-84070981D01*
X155284249Y-84070981D01*
G37*
G36*
X150884249Y-84070981D02*
X151157575Y-84153894D01*
X151409473Y-84288536D01*
X151409474Y-84288537D01*
X151409476Y-84288538D01*
X151630265Y-84469735D01*
X151702478Y-84557727D01*
X151811464Y-84690526D01*
X151946106Y-84942424D01*
X152029019Y-85215750D01*
X152050000Y-85428775D01*
X152050000Y-86571225D01*
X152029019Y-86784250D01*
X151946106Y-87057576D01*
X151811464Y-87309474D01*
X151630265Y-87530265D01*
X151409474Y-87711464D01*
X151157576Y-87846106D01*
X150884250Y-87929019D01*
X150600000Y-87957015D01*
X150315751Y-87929019D01*
X150042425Y-87846106D01*
X149790527Y-87711464D01*
X149623600Y-87574470D01*
X149569738Y-87530267D01*
X149569736Y-87530265D01*
X149388536Y-87309474D01*
X149253894Y-87057576D01*
X149170981Y-86784250D01*
X149150000Y-86571225D01*
X149150000Y-85428776D01*
X149170981Y-85215751D01*
X149253894Y-84942425D01*
X149388536Y-84690527D01*
X149418608Y-84653884D01*
X149569735Y-84469735D01*
X149790524Y-84288538D01*
X149790526Y-84288536D01*
X150042424Y-84153894D01*
X150315750Y-84070981D01*
X150600000Y-84042985D01*
X150884249Y-84070981D01*
X150884249Y-84070981D01*
G37*
G36*
X129684250Y-84070981D02*
X129957576Y-84153894D01*
X130209474Y-84288536D01*
X130430265Y-84469735D01*
X130611464Y-84690526D01*
X130746106Y-84942424D01*
X130829019Y-85215750D01*
X130850000Y-85428775D01*
X130850000Y-86571225D01*
X130829019Y-86784250D01*
X130746106Y-87057576D01*
X130611464Y-87309474D01*
X130611462Y-87309476D01*
X130430265Y-87530265D01*
X130209476Y-87711462D01*
X130209474Y-87711463D01*
X130209473Y-87711464D01*
X129957575Y-87846106D01*
X129684249Y-87929019D01*
X129400000Y-87957015D01*
X129115750Y-87929019D01*
X128842424Y-87846106D01*
X128590526Y-87711464D01*
X128510241Y-87645575D01*
X128369735Y-87530265D01*
X128188538Y-87309476D01*
X128188536Y-87309473D01*
X128053894Y-87057575D01*
X127970981Y-86784249D01*
X127950000Y-86571224D01*
X127950000Y-85428775D01*
X127970981Y-85215750D01*
X128053894Y-84942424D01*
X128188536Y-84690526D01*
X128369736Y-84469735D01*
X128374859Y-84465531D01*
X128557681Y-84315492D01*
X128590527Y-84288536D01*
X128842425Y-84153894D01*
X129115751Y-84070981D01*
X129400000Y-84042985D01*
X129684250Y-84070981D01*
X129684250Y-84070981D01*
G37*
G36*
X120884250Y-84070981D02*
X121157576Y-84153894D01*
X121409474Y-84288536D01*
X121630265Y-84469735D01*
X121811464Y-84690526D01*
X121946106Y-84942424D01*
X122029019Y-85215750D01*
X122050000Y-85428775D01*
X122050000Y-86571225D01*
X122029019Y-86784250D01*
X121946106Y-87057576D01*
X121811464Y-87309474D01*
X121811462Y-87309476D01*
X121630265Y-87530265D01*
X121409476Y-87711462D01*
X121409474Y-87711463D01*
X121409473Y-87711464D01*
X121157575Y-87846106D01*
X120884249Y-87929019D01*
X120600000Y-87957015D01*
X120315750Y-87929019D01*
X120042424Y-87846106D01*
X119790526Y-87711464D01*
X119710241Y-87645575D01*
X119569735Y-87530265D01*
X119388538Y-87309476D01*
X119388536Y-87309473D01*
X119253894Y-87057575D01*
X119170981Y-86784249D01*
X119150000Y-86571224D01*
X119150000Y-85428775D01*
X119170981Y-85215750D01*
X119253894Y-84942424D01*
X119388536Y-84690526D01*
X119569736Y-84469735D01*
X119574859Y-84465531D01*
X119757681Y-84315492D01*
X119790527Y-84288536D01*
X120042425Y-84153894D01*
X120315751Y-84070981D01*
X120600000Y-84042985D01*
X120884250Y-84070981D01*
X120884250Y-84070981D01*
G37*
G36*
X125284250Y-84070981D02*
X125557576Y-84153894D01*
X125809474Y-84288536D01*
X126030265Y-84469735D01*
X126211464Y-84690526D01*
X126346106Y-84942424D01*
X126429019Y-85215750D01*
X126450000Y-85428775D01*
X126450000Y-86571225D01*
X126429019Y-86784250D01*
X126346106Y-87057576D01*
X126211464Y-87309474D01*
X126211462Y-87309476D01*
X126030265Y-87530265D01*
X125809476Y-87711462D01*
X125809474Y-87711463D01*
X125809473Y-87711464D01*
X125557575Y-87846106D01*
X125284249Y-87929019D01*
X125000000Y-87957015D01*
X124715750Y-87929019D01*
X124442424Y-87846106D01*
X124190526Y-87711464D01*
X124110241Y-87645575D01*
X123969735Y-87530265D01*
X123788538Y-87309476D01*
X123788536Y-87309473D01*
X123653894Y-87057575D01*
X123570981Y-86784249D01*
X123550000Y-86571224D01*
X123550000Y-85428775D01*
X123570981Y-85215750D01*
X123653894Y-84942424D01*
X123788536Y-84690526D01*
X123969736Y-84469735D01*
X123974859Y-84465531D01*
X124157681Y-84315492D01*
X124190527Y-84288536D01*
X124442425Y-84153894D01*
X124715751Y-84070981D01*
X125000000Y-84042985D01*
X125284250Y-84070981D01*
X125284250Y-84070981D01*
G37*
G36*
X142081629Y-84232793D02*
X142245834Y-84265455D01*
X142366631Y-84315491D01*
X142555189Y-84393594D01*
X142833607Y-84579627D01*
X143070373Y-84816393D01*
X143256406Y-85094811D01*
X143384545Y-85404167D01*
X143402402Y-85493939D01*
X143409515Y-85517389D01*
X143421066Y-85538999D01*
X143436612Y-85557941D01*
X143455554Y-85573487D01*
X143477165Y-85585038D01*
X143500614Y-85592151D01*
X143525000Y-85594553D01*
X143549386Y-85592151D01*
X143572836Y-85585038D01*
X143594446Y-85573487D01*
X143613388Y-85557941D01*
X143628934Y-85538999D01*
X143640485Y-85517388D01*
X143647598Y-85493939D01*
X143665455Y-85404167D01*
X143793594Y-85094811D01*
X143979627Y-84816393D01*
X144216393Y-84579627D01*
X144494811Y-84393594D01*
X144683369Y-84315491D01*
X144804166Y-84265455D01*
X144968372Y-84232792D01*
X145132576Y-84200130D01*
X145467424Y-84200130D01*
X145631629Y-84232793D01*
X145795834Y-84265455D01*
X145916631Y-84315491D01*
X146105189Y-84393594D01*
X146383607Y-84579627D01*
X146620373Y-84816393D01*
X146806406Y-85094811D01*
X146843560Y-85184509D01*
X146934545Y-85404166D01*
X146949421Y-85478955D01*
X146999870Y-85732576D01*
X146999870Y-86067424D01*
X146934545Y-86395833D01*
X146806406Y-86705189D01*
X146620373Y-86983607D01*
X146383607Y-87220373D01*
X146105189Y-87406406D01*
X145923973Y-87481468D01*
X145795834Y-87534545D01*
X145667863Y-87560000D01*
X145467424Y-87599870D01*
X145132576Y-87599870D01*
X144932137Y-87560000D01*
X144804166Y-87534545D01*
X144676027Y-87481468D01*
X144494811Y-87406406D01*
X144216393Y-87220373D01*
X143979627Y-86983607D01*
X143793594Y-86705189D01*
X143665455Y-86395833D01*
X143647598Y-86306061D01*
X143640485Y-86282611D01*
X143628934Y-86261001D01*
X143613388Y-86242059D01*
X143594446Y-86226513D01*
X143572835Y-86214962D01*
X143549386Y-86207849D01*
X143525000Y-86205447D01*
X143500614Y-86207849D01*
X143477164Y-86214962D01*
X143455554Y-86226513D01*
X143436612Y-86242059D01*
X143421066Y-86261001D01*
X143409515Y-86282612D01*
X143402402Y-86306061D01*
X143384545Y-86395833D01*
X143256406Y-86705189D01*
X143070373Y-86983607D01*
X142833607Y-87220373D01*
X142555189Y-87406406D01*
X142373973Y-87481468D01*
X142245834Y-87534545D01*
X142117863Y-87560000D01*
X141917424Y-87599870D01*
X141582576Y-87599870D01*
X141382137Y-87560000D01*
X141254166Y-87534545D01*
X141126027Y-87481468D01*
X140944811Y-87406406D01*
X140666393Y-87220373D01*
X140429627Y-86983607D01*
X140243594Y-86705189D01*
X140115455Y-86395833D01*
X140050130Y-86067424D01*
X140050130Y-85732576D01*
X140100579Y-85478955D01*
X140115455Y-85404166D01*
X140206440Y-85184509D01*
X140243594Y-85094811D01*
X140429627Y-84816393D01*
X140666393Y-84579627D01*
X140944811Y-84393594D01*
X141133369Y-84315491D01*
X141254166Y-84265455D01*
X141418372Y-84232792D01*
X141582576Y-84200130D01*
X141917424Y-84200130D01*
X142081629Y-84232793D01*
X142081629Y-84232793D01*
G37*
G36*
X103820857Y-84942272D02*
X104021042Y-85025191D01*
X104021045Y-85025193D01*
X104120508Y-85091652D01*
X104201213Y-85145578D01*
X104354422Y-85298787D01*
X104474809Y-85478958D01*
X104557728Y-85679143D01*
X104600000Y-85891658D01*
X104600000Y-86108342D01*
X104557728Y-86320857D01*
X104474809Y-86521042D01*
X104354422Y-86701213D01*
X104201213Y-86854422D01*
X104201210Y-86854424D01*
X104201209Y-86854425D01*
X104060642Y-86948349D01*
X104021042Y-86974809D01*
X103820857Y-87057728D01*
X103608342Y-87100000D01*
X103391658Y-87100000D01*
X103179143Y-87057728D01*
X102978958Y-86974809D01*
X102939358Y-86948349D01*
X102798791Y-86854425D01*
X102798790Y-86854424D01*
X102798787Y-86854422D01*
X102645578Y-86701213D01*
X102525191Y-86521042D01*
X102442272Y-86320857D01*
X102400000Y-86108342D01*
X102400000Y-85891658D01*
X102442272Y-85679143D01*
X102525191Y-85478958D01*
X102645578Y-85298787D01*
X102798787Y-85145578D01*
X102879493Y-85091652D01*
X102978955Y-85025193D01*
X102978958Y-85025191D01*
X103179143Y-84942272D01*
X103391658Y-84900000D01*
X103608342Y-84900000D01*
X103820857Y-84942272D01*
X103820857Y-84942272D01*
G37*
G36*
X176820857Y-84942272D02*
X177021042Y-85025191D01*
X177021045Y-85025193D01*
X177120508Y-85091652D01*
X177201213Y-85145578D01*
X177354422Y-85298787D01*
X177474809Y-85478958D01*
X177557728Y-85679143D01*
X177600000Y-85891658D01*
X177600000Y-86108342D01*
X177557728Y-86320857D01*
X177474809Y-86521042D01*
X177354422Y-86701213D01*
X177201213Y-86854422D01*
X177201210Y-86854424D01*
X177201209Y-86854425D01*
X177060642Y-86948349D01*
X177021042Y-86974809D01*
X176820857Y-87057728D01*
X176608342Y-87100000D01*
X176391658Y-87100000D01*
X176179143Y-87057728D01*
X175978958Y-86974809D01*
X175939358Y-86948349D01*
X175798791Y-86854425D01*
X175798790Y-86854424D01*
X175798787Y-86854422D01*
X175645578Y-86701213D01*
X175525191Y-86521042D01*
X175442272Y-86320857D01*
X175400000Y-86108342D01*
X175400000Y-85891658D01*
X175442272Y-85679143D01*
X175525191Y-85478958D01*
X175645578Y-85298787D01*
X175798787Y-85145578D01*
X175879493Y-85091652D01*
X175978955Y-85025193D01*
X175978958Y-85025191D01*
X176179143Y-84942272D01*
X176391658Y-84900000D01*
X176608342Y-84900000D01*
X176820857Y-84942272D01*
X176820857Y-84942272D01*
G37*
G36*
X107096030Y-85034469D02*
X107096033Y-85034470D01*
X107096034Y-85034470D01*
X107284535Y-85091651D01*
X107284537Y-85091652D01*
X107458260Y-85184509D01*
X107610528Y-85309472D01*
X107735491Y-85461740D01*
X107765236Y-85517389D01*
X107828349Y-85635465D01*
X107885530Y-85823966D01*
X107885531Y-85823970D01*
X107904838Y-86020000D01*
X107885531Y-86216030D01*
X107885530Y-86216033D01*
X107885530Y-86216034D01*
X107830989Y-86395833D01*
X107828348Y-86404537D01*
X107735491Y-86578260D01*
X107610528Y-86730528D01*
X107458260Y-86855491D01*
X107458258Y-86855492D01*
X107284535Y-86948349D01*
X107096034Y-87005530D01*
X107096033Y-87005530D01*
X107096030Y-87005531D01*
X106949124Y-87020000D01*
X106050876Y-87020000D01*
X105903970Y-87005531D01*
X105903967Y-87005530D01*
X105903966Y-87005530D01*
X105715465Y-86948349D01*
X105541742Y-86855492D01*
X105541740Y-86855491D01*
X105389472Y-86730528D01*
X105264509Y-86578260D01*
X105171652Y-86404537D01*
X105169012Y-86395833D01*
X105114470Y-86216034D01*
X105114470Y-86216033D01*
X105114469Y-86216030D01*
X105095162Y-86020000D01*
X105114469Y-85823970D01*
X105114470Y-85823966D01*
X105171651Y-85635465D01*
X105234764Y-85517389D01*
X105264509Y-85461740D01*
X105389472Y-85309472D01*
X105541740Y-85184509D01*
X105715463Y-85091652D01*
X105715465Y-85091651D01*
X105903966Y-85034470D01*
X105903967Y-85034470D01*
X105903970Y-85034469D01*
X106050876Y-85020000D01*
X106949124Y-85020000D01*
X107096030Y-85034469D01*
X107096030Y-85034469D01*
G37*
G36*
X114716030Y-85034469D02*
X114716033Y-85034470D01*
X114716034Y-85034470D01*
X114904535Y-85091651D01*
X114904537Y-85091652D01*
X115078260Y-85184509D01*
X115230528Y-85309472D01*
X115355491Y-85461740D01*
X115385236Y-85517389D01*
X115448349Y-85635465D01*
X115505530Y-85823966D01*
X115505531Y-85823970D01*
X115524838Y-86020000D01*
X115505531Y-86216030D01*
X115505530Y-86216033D01*
X115505530Y-86216034D01*
X115450989Y-86395833D01*
X115448348Y-86404537D01*
X115355491Y-86578260D01*
X115230528Y-86730528D01*
X115078260Y-86855491D01*
X115078258Y-86855492D01*
X114904535Y-86948349D01*
X114716034Y-87005530D01*
X114716033Y-87005530D01*
X114716030Y-87005531D01*
X114569124Y-87020000D01*
X113670876Y-87020000D01*
X113523970Y-87005531D01*
X113523967Y-87005530D01*
X113523966Y-87005530D01*
X113335465Y-86948349D01*
X113161742Y-86855492D01*
X113161740Y-86855491D01*
X113009472Y-86730528D01*
X112884509Y-86578260D01*
X112791652Y-86404537D01*
X112789012Y-86395833D01*
X112734470Y-86216034D01*
X112734470Y-86216033D01*
X112734469Y-86216030D01*
X112715162Y-86020000D01*
X112734469Y-85823970D01*
X112734470Y-85823966D01*
X112791651Y-85635465D01*
X112854764Y-85517389D01*
X112884509Y-85461740D01*
X113009472Y-85309472D01*
X113161740Y-85184509D01*
X113335463Y-85091652D01*
X113335465Y-85091651D01*
X113523966Y-85034470D01*
X113523967Y-85034470D01*
X113523970Y-85034469D01*
X113670876Y-85020000D01*
X114569124Y-85020000D01*
X114716030Y-85034469D01*
X114716030Y-85034469D01*
G37*
G36*
X168450026Y-82346115D02*
X168668412Y-82436573D01*
X168864958Y-82567901D01*
X169032099Y-82735042D01*
X169163427Y-82931588D01*
X169253885Y-83149974D01*
X169300000Y-83381809D01*
X169300000Y-83618191D01*
X169253885Y-83850026D01*
X169163427Y-84068412D01*
X169032099Y-84264958D01*
X168864958Y-84432099D01*
X168668412Y-84563427D01*
X168450026Y-84653885D01*
X168218191Y-84700000D01*
X167981809Y-84700000D01*
X167749974Y-84653885D01*
X167531588Y-84563427D01*
X167335042Y-84432099D01*
X167167901Y-84264958D01*
X167036573Y-84068412D01*
X166946115Y-83850026D01*
X166900000Y-83618191D01*
X166900000Y-83381809D01*
X166946115Y-83149974D01*
X167036573Y-82931588D01*
X167167901Y-82735042D01*
X167335042Y-82567901D01*
X167531588Y-82436573D01*
X167749974Y-82346115D01*
X167981809Y-82300000D01*
X168218191Y-82300000D01*
X168450026Y-82346115D01*
X168450026Y-82346115D01*
G37*
G36*
X173450026Y-82346115D02*
X173668412Y-82436573D01*
X173864958Y-82567901D01*
X174032099Y-82735042D01*
X174163427Y-82931588D01*
X174253885Y-83149974D01*
X174300000Y-83381809D01*
X174300000Y-83618191D01*
X174253885Y-83850026D01*
X174163427Y-84068412D01*
X174032099Y-84264958D01*
X173864958Y-84432099D01*
X173668412Y-84563427D01*
X173450026Y-84653885D01*
X173218191Y-84700000D01*
X172981809Y-84700000D01*
X172749974Y-84653885D01*
X172531588Y-84563427D01*
X172335042Y-84432099D01*
X172167901Y-84264958D01*
X172036573Y-84068412D01*
X171946115Y-83850026D01*
X171900000Y-83618191D01*
X171900000Y-83381809D01*
X171946115Y-83149974D01*
X172036573Y-82931588D01*
X172167901Y-82735042D01*
X172335042Y-82567901D01*
X172531588Y-82436573D01*
X172749974Y-82346115D01*
X172981809Y-82300000D01*
X173218191Y-82300000D01*
X173450026Y-82346115D01*
X173450026Y-82346115D01*
G37*
G36*
X103820857Y-82442272D02*
X104021042Y-82525191D01*
X104021045Y-82525193D01*
X104199614Y-82644509D01*
X104201213Y-82645578D01*
X104354422Y-82798787D01*
X104474809Y-82978958D01*
X104557728Y-83179143D01*
X104600000Y-83391658D01*
X104600000Y-83608342D01*
X104557728Y-83820857D01*
X104474809Y-84021042D01*
X104354422Y-84201213D01*
X104201213Y-84354422D01*
X104201210Y-84354424D01*
X104201209Y-84354425D01*
X104120506Y-84408349D01*
X104021042Y-84474809D01*
X103820857Y-84557728D01*
X103608342Y-84600000D01*
X103391658Y-84600000D01*
X103179143Y-84557728D01*
X102978958Y-84474809D01*
X102879494Y-84408349D01*
X102798791Y-84354425D01*
X102798790Y-84354424D01*
X102798787Y-84354422D01*
X102645578Y-84201213D01*
X102525191Y-84021042D01*
X102442272Y-83820857D01*
X102400000Y-83608342D01*
X102400000Y-83391658D01*
X102442272Y-83179143D01*
X102525191Y-82978958D01*
X102645578Y-82798787D01*
X102798787Y-82645578D01*
X102800387Y-82644509D01*
X102978955Y-82525193D01*
X102978958Y-82525191D01*
X103179143Y-82442272D01*
X103391658Y-82400000D01*
X103608342Y-82400000D01*
X103820857Y-82442272D01*
X103820857Y-82442272D01*
G37*
G36*
X176820857Y-82442272D02*
X177021042Y-82525191D01*
X177021045Y-82525193D01*
X177199614Y-82644509D01*
X177201213Y-82645578D01*
X177354422Y-82798787D01*
X177474809Y-82978958D01*
X177557728Y-83179143D01*
X177600000Y-83391658D01*
X177600000Y-83608342D01*
X177557728Y-83820857D01*
X177474809Y-84021042D01*
X177354422Y-84201213D01*
X177201213Y-84354422D01*
X177201210Y-84354424D01*
X177201209Y-84354425D01*
X177120506Y-84408349D01*
X177021042Y-84474809D01*
X176820857Y-84557728D01*
X176608342Y-84600000D01*
X176391658Y-84600000D01*
X176179143Y-84557728D01*
X175978958Y-84474809D01*
X175879494Y-84408349D01*
X175798791Y-84354425D01*
X175798790Y-84354424D01*
X175798787Y-84354422D01*
X175645578Y-84201213D01*
X175525191Y-84021042D01*
X175442272Y-83820857D01*
X175400000Y-83608342D01*
X175400000Y-83391658D01*
X175442272Y-83179143D01*
X175525191Y-82978958D01*
X175645578Y-82798787D01*
X175798787Y-82645578D01*
X175800387Y-82644509D01*
X175978955Y-82525193D01*
X175978958Y-82525191D01*
X176179143Y-82442272D01*
X176391658Y-82400000D01*
X176608342Y-82400000D01*
X176820857Y-82442272D01*
X176820857Y-82442272D01*
G37*
G36*
X107096030Y-82494469D02*
X107096033Y-82494470D01*
X107096034Y-82494470D01*
X107284535Y-82551651D01*
X107284537Y-82551652D01*
X107458260Y-82644509D01*
X107610528Y-82769472D01*
X107735491Y-82921740D01*
X107735492Y-82921742D01*
X107828349Y-83095465D01*
X107844884Y-83149974D01*
X107885531Y-83283970D01*
X107904838Y-83480000D01*
X107885531Y-83676030D01*
X107885530Y-83676033D01*
X107885530Y-83676034D01*
X107841599Y-83820857D01*
X107828348Y-83864537D01*
X107735491Y-84038260D01*
X107610528Y-84190528D01*
X107458260Y-84315491D01*
X107458258Y-84315492D01*
X107284535Y-84408349D01*
X107096034Y-84465530D01*
X107096033Y-84465530D01*
X107096030Y-84465531D01*
X106949124Y-84480000D01*
X106050876Y-84480000D01*
X105903970Y-84465531D01*
X105903967Y-84465530D01*
X105903966Y-84465530D01*
X105715465Y-84408349D01*
X105541742Y-84315492D01*
X105541740Y-84315491D01*
X105389472Y-84190528D01*
X105264509Y-84038260D01*
X105171652Y-83864537D01*
X105158402Y-83820857D01*
X105114470Y-83676034D01*
X105114470Y-83676033D01*
X105114469Y-83676030D01*
X105095162Y-83480000D01*
X105114469Y-83283970D01*
X105155116Y-83149974D01*
X105171651Y-83095465D01*
X105264508Y-82921742D01*
X105264509Y-82921740D01*
X105389472Y-82769472D01*
X105541740Y-82644509D01*
X105715463Y-82551652D01*
X105715465Y-82551651D01*
X105903966Y-82494470D01*
X105903967Y-82494470D01*
X105903970Y-82494469D01*
X106050876Y-82480000D01*
X106949124Y-82480000D01*
X107096030Y-82494469D01*
X107096030Y-82494469D01*
G37*
G36*
X114716030Y-82494469D02*
X114716033Y-82494470D01*
X114716034Y-82494470D01*
X114904535Y-82551651D01*
X114904537Y-82551652D01*
X115078260Y-82644509D01*
X115230528Y-82769472D01*
X115355491Y-82921740D01*
X115355492Y-82921742D01*
X115448349Y-83095465D01*
X115464884Y-83149974D01*
X115505531Y-83283970D01*
X115524838Y-83480000D01*
X115505531Y-83676030D01*
X115505530Y-83676033D01*
X115505530Y-83676034D01*
X115461599Y-83820857D01*
X115448348Y-83864537D01*
X115355491Y-84038260D01*
X115230528Y-84190528D01*
X115078260Y-84315491D01*
X115078258Y-84315492D01*
X114904535Y-84408349D01*
X114716034Y-84465530D01*
X114716033Y-84465530D01*
X114716030Y-84465531D01*
X114569124Y-84480000D01*
X113670876Y-84480000D01*
X113523970Y-84465531D01*
X113523967Y-84465530D01*
X113523966Y-84465530D01*
X113335465Y-84408349D01*
X113161742Y-84315492D01*
X113161740Y-84315491D01*
X113009472Y-84190528D01*
X112884509Y-84038260D01*
X112791652Y-83864537D01*
X112778402Y-83820857D01*
X112734470Y-83676034D01*
X112734470Y-83676033D01*
X112734469Y-83676030D01*
X112715162Y-83480000D01*
X112734469Y-83283970D01*
X112775116Y-83149974D01*
X112791651Y-83095465D01*
X112884508Y-82921742D01*
X112884509Y-82921740D01*
X113009472Y-82769472D01*
X113161740Y-82644509D01*
X113335463Y-82551652D01*
X113335465Y-82551651D01*
X113523966Y-82494470D01*
X113523967Y-82494470D01*
X113523970Y-82494469D01*
X113670876Y-82480000D01*
X114569124Y-82480000D01*
X114716030Y-82494469D01*
X114716030Y-82494469D01*
G37*
G36*
X97141716Y-79484544D02*
X97542090Y-79650384D01*
X97902421Y-79891150D01*
X98208850Y-80197579D01*
X98449616Y-80557910D01*
X98615456Y-80958284D01*
X98700000Y-81383317D01*
X98700000Y-81816683D01*
X98615456Y-82241716D01*
X98449616Y-82642090D01*
X98208850Y-83002421D01*
X97902421Y-83308850D01*
X97542090Y-83549616D01*
X97141716Y-83715456D01*
X96716683Y-83800000D01*
X96283317Y-83800000D01*
X95858284Y-83715456D01*
X95457910Y-83549616D01*
X95097579Y-83308850D01*
X94791150Y-83002421D01*
X94550384Y-82642090D01*
X94384544Y-82241716D01*
X94300000Y-81816683D01*
X94300000Y-81383317D01*
X94384544Y-80958284D01*
X94550384Y-80557910D01*
X94791150Y-80197579D01*
X95097579Y-79891150D01*
X95457910Y-79650384D01*
X95858284Y-79484544D01*
X96283317Y-79400000D01*
X96716683Y-79400000D01*
X97141716Y-79484544D01*
X97141716Y-79484544D01*
G37*
G36*
X184141716Y-79484544D02*
X184542090Y-79650384D01*
X184902421Y-79891150D01*
X185208850Y-80197579D01*
X185449616Y-80557910D01*
X185615456Y-80958284D01*
X185700000Y-81383317D01*
X185700000Y-81816683D01*
X185615456Y-82241716D01*
X185449616Y-82642090D01*
X185208850Y-83002421D01*
X184902421Y-83308850D01*
X184542090Y-83549616D01*
X184141716Y-83715456D01*
X183716683Y-83800000D01*
X183283317Y-83800000D01*
X182858284Y-83715456D01*
X182457910Y-83549616D01*
X182097579Y-83308850D01*
X181791150Y-83002421D01*
X181550384Y-82642090D01*
X181384544Y-82241716D01*
X181300000Y-81816683D01*
X181300000Y-81383317D01*
X181384544Y-80958284D01*
X181550384Y-80557910D01*
X181791150Y-80197579D01*
X182097579Y-79891150D01*
X182457910Y-79650384D01*
X182858284Y-79484544D01*
X183283317Y-79400000D01*
X183716683Y-79400000D01*
X184141716Y-79484544D01*
X184141716Y-79484544D01*
G37*
G36*
X158000026Y-78796115D02*
X158218412Y-78886573D01*
X158414958Y-79017901D01*
X158582099Y-79185042D01*
X158713427Y-79381588D01*
X158803885Y-79599974D01*
X158850000Y-79831809D01*
X158850000Y-80068191D01*
X158803885Y-80300026D01*
X158713427Y-80518412D01*
X158582099Y-80714958D01*
X158414958Y-80882099D01*
X158218412Y-81013427D01*
X158000026Y-81103885D01*
X157768191Y-81150000D01*
X157531809Y-81150000D01*
X157299974Y-81103885D01*
X157081588Y-81013427D01*
X156885042Y-80882099D01*
X156717901Y-80714958D01*
X156586573Y-80518412D01*
X156496115Y-80300026D01*
X156450000Y-80068191D01*
X156450000Y-79831809D01*
X156496115Y-79599974D01*
X156586573Y-79381588D01*
X156717901Y-79185042D01*
X156885042Y-79017901D01*
X157081588Y-78886573D01*
X157299974Y-78796115D01*
X157531809Y-78750000D01*
X157768191Y-78750000D01*
X158000026Y-78796115D01*
X158000026Y-78796115D01*
G37*
G36*
X161950026Y-78746115D02*
X162168412Y-78836573D01*
X162364958Y-78967901D01*
X162532099Y-79135042D01*
X162663427Y-79331588D01*
X162753885Y-79549974D01*
X162800000Y-79781809D01*
X162800000Y-80018191D01*
X162753885Y-80250026D01*
X162663427Y-80468412D01*
X162532099Y-80664958D01*
X162364958Y-80832099D01*
X162168412Y-80963427D01*
X161950026Y-81053885D01*
X161718191Y-81100000D01*
X161481809Y-81100000D01*
X161249974Y-81053885D01*
X161031588Y-80963427D01*
X160835042Y-80832099D01*
X160667901Y-80664958D01*
X160536573Y-80468412D01*
X160446115Y-80250026D01*
X160400000Y-80018191D01*
X160400000Y-79781809D01*
X160446115Y-79549974D01*
X160536573Y-79331588D01*
X160667901Y-79135042D01*
X160835042Y-78967901D01*
X161031588Y-78836573D01*
X161249974Y-78746115D01*
X161481809Y-78700000D01*
X161718191Y-78700000D01*
X161950026Y-78746115D01*
X161950026Y-78746115D01*
G37*
G36*
X145554845Y-78438810D02*
X145799896Y-78513145D01*
X146025736Y-78633860D01*
X146223687Y-78796313D01*
X146386140Y-78994264D01*
X146506855Y-79220104D01*
X146581190Y-79465155D01*
X146606290Y-79720000D01*
X146581190Y-79974845D01*
X146506855Y-80219896D01*
X146386140Y-80445736D01*
X146223687Y-80643687D01*
X146025736Y-80806140D01*
X145799896Y-80926855D01*
X145554845Y-81001190D01*
X145363864Y-81020000D01*
X145236136Y-81020000D01*
X145045155Y-81001190D01*
X144800104Y-80926855D01*
X144574264Y-80806140D01*
X144376313Y-80643687D01*
X144213860Y-80445736D01*
X144093145Y-80219896D01*
X144018810Y-79974845D01*
X143993710Y-79720000D01*
X144018810Y-79465155D01*
X144093145Y-79220104D01*
X144213860Y-78994264D01*
X144376313Y-78796313D01*
X144574264Y-78633860D01*
X144800104Y-78513145D01*
X145045155Y-78438810D01*
X145236136Y-78420000D01*
X145363864Y-78420000D01*
X145554845Y-78438810D01*
X145554845Y-78438810D01*
G37*
G36*
X173596030Y-78854469D02*
X173596033Y-78854470D01*
X173596034Y-78854470D01*
X173784535Y-78911651D01*
X173784537Y-78911652D01*
X173958260Y-79004509D01*
X174110528Y-79129472D01*
X174235491Y-79281740D01*
X174235492Y-79281742D01*
X174328349Y-79455465D01*
X174357018Y-79549974D01*
X174385531Y-79643970D01*
X174404838Y-79840000D01*
X174385531Y-80036030D01*
X174385530Y-80036033D01*
X174385530Y-80036034D01*
X174375776Y-80068190D01*
X174328348Y-80224537D01*
X174235491Y-80398260D01*
X174110528Y-80550528D01*
X173958260Y-80675491D01*
X173784537Y-80768348D01*
X173784535Y-80768349D01*
X173596034Y-80825530D01*
X173596033Y-80825530D01*
X173596030Y-80825531D01*
X173449124Y-80840000D01*
X172550876Y-80840000D01*
X172403970Y-80825531D01*
X172403967Y-80825530D01*
X172403966Y-80825530D01*
X172215465Y-80768349D01*
X172215463Y-80768348D01*
X172041740Y-80675491D01*
X171889472Y-80550528D01*
X171764509Y-80398260D01*
X171671652Y-80224537D01*
X171624225Y-80068190D01*
X171614470Y-80036034D01*
X171614470Y-80036033D01*
X171614469Y-80036030D01*
X171595162Y-79840000D01*
X171614469Y-79643970D01*
X171642982Y-79549974D01*
X171671651Y-79455465D01*
X171764508Y-79281742D01*
X171764509Y-79281740D01*
X171889472Y-79129472D01*
X172041740Y-79004509D01*
X172215463Y-78911652D01*
X172215465Y-78911651D01*
X172403966Y-78854470D01*
X172403967Y-78854470D01*
X172403970Y-78854469D01*
X172550876Y-78840000D01*
X173449124Y-78840000D01*
X173596030Y-78854469D01*
X173596030Y-78854469D01*
G37*
G36*
X165976030Y-78854469D02*
X165976033Y-78854470D01*
X165976034Y-78854470D01*
X166164535Y-78911651D01*
X166164537Y-78911652D01*
X166338260Y-79004509D01*
X166490528Y-79129472D01*
X166615491Y-79281740D01*
X166615492Y-79281742D01*
X166708349Y-79455465D01*
X166737018Y-79549974D01*
X166765531Y-79643970D01*
X166784838Y-79840000D01*
X166765531Y-80036030D01*
X166765530Y-80036033D01*
X166765530Y-80036034D01*
X166755776Y-80068190D01*
X166708348Y-80224537D01*
X166615491Y-80398260D01*
X166490528Y-80550528D01*
X166338260Y-80675491D01*
X166164537Y-80768348D01*
X166164535Y-80768349D01*
X165976034Y-80825530D01*
X165976033Y-80825530D01*
X165976030Y-80825531D01*
X165829124Y-80840000D01*
X164930876Y-80840000D01*
X164783970Y-80825531D01*
X164783967Y-80825530D01*
X164783966Y-80825530D01*
X164595465Y-80768349D01*
X164595463Y-80768348D01*
X164421740Y-80675491D01*
X164269472Y-80550528D01*
X164144509Y-80398260D01*
X164051652Y-80224537D01*
X164004225Y-80068190D01*
X163994470Y-80036034D01*
X163994470Y-80036033D01*
X163994469Y-80036030D01*
X163975162Y-79840000D01*
X163994469Y-79643970D01*
X164022982Y-79549974D01*
X164051651Y-79455465D01*
X164144508Y-79281742D01*
X164144509Y-79281740D01*
X164269472Y-79129472D01*
X164421740Y-79004509D01*
X164595463Y-78911652D01*
X164595465Y-78911651D01*
X164783966Y-78854470D01*
X164783967Y-78854470D01*
X164783970Y-78854469D01*
X164930876Y-78840000D01*
X165829124Y-78840000D01*
X165976030Y-78854469D01*
X165976030Y-78854469D01*
G37*
G36*
X176850026Y-76146115D02*
X177068412Y-76236573D01*
X177264958Y-76367901D01*
X177432099Y-76535042D01*
X177563427Y-76731588D01*
X177653885Y-76949974D01*
X177700000Y-77181809D01*
X177700000Y-77418191D01*
X177653885Y-77650026D01*
X177563427Y-77868412D01*
X177432099Y-78064958D01*
X177264958Y-78232099D01*
X177068412Y-78363427D01*
X176850026Y-78453885D01*
X176618191Y-78500000D01*
X176381809Y-78500000D01*
X176149974Y-78453885D01*
X175931588Y-78363427D01*
X175735042Y-78232099D01*
X175567901Y-78064958D01*
X175436573Y-77868412D01*
X175346115Y-77650026D01*
X175300000Y-77418191D01*
X175300000Y-77181809D01*
X175346115Y-76949974D01*
X175436573Y-76731588D01*
X175567901Y-76535042D01*
X175735042Y-76367901D01*
X175931588Y-76236573D01*
X176149974Y-76146115D01*
X176381809Y-76100000D01*
X176618191Y-76100000D01*
X176850026Y-76146115D01*
X176850026Y-76146115D01*
G37*
G36*
X181850026Y-76146115D02*
X182068412Y-76236573D01*
X182264958Y-76367901D01*
X182432099Y-76535042D01*
X182563427Y-76731588D01*
X182653885Y-76949974D01*
X182700000Y-77181809D01*
X182700000Y-77418191D01*
X182653885Y-77650026D01*
X182563427Y-77868412D01*
X182432099Y-78064958D01*
X182264958Y-78232099D01*
X182068412Y-78363427D01*
X181850026Y-78453885D01*
X181618191Y-78500000D01*
X181381809Y-78500000D01*
X181149974Y-78453885D01*
X180931588Y-78363427D01*
X180735042Y-78232099D01*
X180567901Y-78064958D01*
X180436573Y-77868412D01*
X180346115Y-77650026D01*
X180300000Y-77418191D01*
X180300000Y-77181809D01*
X180346115Y-76949974D01*
X180436573Y-76731588D01*
X180567901Y-76535042D01*
X180735042Y-76367901D01*
X180931588Y-76236573D01*
X181149974Y-76146115D01*
X181381809Y-76100000D01*
X181618191Y-76100000D01*
X181850026Y-76146115D01*
X181850026Y-76146115D01*
G37*
G36*
X165976030Y-76314469D02*
X165976033Y-76314470D01*
X165976034Y-76314470D01*
X166164535Y-76371651D01*
X166164537Y-76371652D01*
X166338260Y-76464509D01*
X166490528Y-76589472D01*
X166615491Y-76741740D01*
X166615492Y-76741742D01*
X166708349Y-76915465D01*
X166718817Y-76949974D01*
X166765531Y-77103970D01*
X166784838Y-77300000D01*
X166765531Y-77496030D01*
X166765530Y-77496033D01*
X166765530Y-77496034D01*
X166717647Y-77653885D01*
X166708348Y-77684537D01*
X166615491Y-77858260D01*
X166490528Y-78010528D01*
X166338260Y-78135491D01*
X166164537Y-78228348D01*
X166164535Y-78228349D01*
X165976034Y-78285530D01*
X165976033Y-78285530D01*
X165976030Y-78285531D01*
X165829124Y-78300000D01*
X164930876Y-78300000D01*
X164783970Y-78285531D01*
X164783967Y-78285530D01*
X164783966Y-78285530D01*
X164595465Y-78228349D01*
X164595463Y-78228348D01*
X164421740Y-78135491D01*
X164269472Y-78010528D01*
X164144509Y-77858260D01*
X164051652Y-77684537D01*
X164042354Y-77653885D01*
X163994470Y-77496034D01*
X163994470Y-77496033D01*
X163994469Y-77496030D01*
X163975162Y-77300000D01*
X163994469Y-77103970D01*
X164041183Y-76949974D01*
X164051651Y-76915465D01*
X164144508Y-76741742D01*
X164144509Y-76741740D01*
X164269472Y-76589472D01*
X164421740Y-76464509D01*
X164595463Y-76371652D01*
X164595465Y-76371651D01*
X164783966Y-76314470D01*
X164783967Y-76314470D01*
X164783970Y-76314469D01*
X164930876Y-76300000D01*
X165829124Y-76300000D01*
X165976030Y-76314469D01*
X165976030Y-76314469D01*
G37*
G36*
X173596030Y-76314469D02*
X173596033Y-76314470D01*
X173596034Y-76314470D01*
X173784535Y-76371651D01*
X173784537Y-76371652D01*
X173958260Y-76464509D01*
X174110528Y-76589472D01*
X174235491Y-76741740D01*
X174235492Y-76741742D01*
X174328349Y-76915465D01*
X174338817Y-76949974D01*
X174385531Y-77103970D01*
X174404838Y-77300000D01*
X174385531Y-77496030D01*
X174385530Y-77496033D01*
X174385530Y-77496034D01*
X174337647Y-77653885D01*
X174328348Y-77684537D01*
X174235491Y-77858260D01*
X174110528Y-78010528D01*
X173958260Y-78135491D01*
X173784537Y-78228348D01*
X173784535Y-78228349D01*
X173596034Y-78285530D01*
X173596033Y-78285530D01*
X173596030Y-78285531D01*
X173449124Y-78300000D01*
X172550876Y-78300000D01*
X172403970Y-78285531D01*
X172403967Y-78285530D01*
X172403966Y-78285530D01*
X172215465Y-78228349D01*
X172215463Y-78228348D01*
X172041740Y-78135491D01*
X171889472Y-78010528D01*
X171764509Y-77858260D01*
X171671652Y-77684537D01*
X171662354Y-77653885D01*
X171614470Y-77496034D01*
X171614470Y-77496033D01*
X171614469Y-77496030D01*
X171595162Y-77300000D01*
X171614469Y-77103970D01*
X171661183Y-76949974D01*
X171671651Y-76915465D01*
X171764508Y-76741742D01*
X171764509Y-76741740D01*
X171889472Y-76589472D01*
X172041740Y-76464509D01*
X172215463Y-76371652D01*
X172215465Y-76371651D01*
X172403966Y-76314470D01*
X172403967Y-76314470D01*
X172403970Y-76314469D01*
X172550876Y-76300000D01*
X173449124Y-76300000D01*
X173596030Y-76314469D01*
X173596030Y-76314469D01*
G37*
G36*
X151675770Y-76165372D02*
X151791689Y-76188429D01*
X151973678Y-76263811D01*
X152137463Y-76373249D01*
X152276751Y-76512537D01*
X152386189Y-76676322D01*
X152461571Y-76858311D01*
X152500000Y-77051509D01*
X152500000Y-77248491D01*
X152461571Y-77441689D01*
X152386189Y-77623678D01*
X152276751Y-77787463D01*
X152137463Y-77926751D01*
X151973678Y-78036189D01*
X151791689Y-78111571D01*
X151675770Y-78134628D01*
X151598493Y-78150000D01*
X151401507Y-78150000D01*
X151324230Y-78134628D01*
X151208311Y-78111571D01*
X151026322Y-78036189D01*
X150862537Y-77926751D01*
X150723249Y-77787463D01*
X150613811Y-77623678D01*
X150538429Y-77441689D01*
X150500000Y-77248491D01*
X150500000Y-77051509D01*
X150538429Y-76858311D01*
X150613811Y-76676322D01*
X150723249Y-76512537D01*
X150862537Y-76373249D01*
X151026322Y-76263811D01*
X151208311Y-76188429D01*
X151324230Y-76165372D01*
X151401507Y-76150000D01*
X151598493Y-76150000D01*
X151675770Y-76165372D01*
X151675770Y-76165372D01*
G37*
G36*
X110600026Y-75346115D02*
X110818412Y-75436573D01*
X111014958Y-75567901D01*
X111182099Y-75735042D01*
X111313427Y-75931588D01*
X111403885Y-76149974D01*
X111450000Y-76381809D01*
X111450000Y-76618191D01*
X111403885Y-76850026D01*
X111313427Y-77068412D01*
X111182099Y-77264958D01*
X111014958Y-77432099D01*
X110818412Y-77563427D01*
X110600026Y-77653885D01*
X110368191Y-77700000D01*
X110131809Y-77700000D01*
X109899974Y-77653885D01*
X109681588Y-77563427D01*
X109485042Y-77432099D01*
X109317901Y-77264958D01*
X109186573Y-77068412D01*
X109096115Y-76850026D01*
X109050000Y-76618191D01*
X109050000Y-76381809D01*
X109096115Y-76149974D01*
X109186573Y-75931588D01*
X109317901Y-75735042D01*
X109485042Y-75567901D01*
X109681588Y-75436573D01*
X109899974Y-75346115D01*
X110131809Y-75300000D01*
X110368191Y-75300000D01*
X110600026Y-75346115D01*
X110600026Y-75346115D01*
G37*
G36*
X102800026Y-75346115D02*
X103018412Y-75436573D01*
X103214958Y-75567901D01*
X103382099Y-75735042D01*
X103513427Y-75931588D01*
X103603885Y-76149974D01*
X103650000Y-76381809D01*
X103650000Y-76618191D01*
X103603885Y-76850026D01*
X103513427Y-77068412D01*
X103382099Y-77264958D01*
X103214958Y-77432099D01*
X103018412Y-77563427D01*
X102800026Y-77653885D01*
X102568191Y-77700000D01*
X102331809Y-77700000D01*
X102099974Y-77653885D01*
X101881588Y-77563427D01*
X101685042Y-77432099D01*
X101517901Y-77264958D01*
X101386573Y-77068412D01*
X101296115Y-76850026D01*
X101250000Y-76618191D01*
X101250000Y-76381809D01*
X101296115Y-76149974D01*
X101386573Y-75931588D01*
X101517901Y-75735042D01*
X101685042Y-75567901D01*
X101881588Y-75436573D01*
X102099974Y-75346115D01*
X102331809Y-75300000D01*
X102568191Y-75300000D01*
X102800026Y-75346115D01*
X102800026Y-75346115D01*
G37*
G36*
X165976030Y-73774469D02*
X165976033Y-73774470D01*
X165976034Y-73774470D01*
X166164535Y-73831651D01*
X166164537Y-73831652D01*
X166338260Y-73924509D01*
X166490528Y-74049472D01*
X166615491Y-74201740D01*
X166708348Y-74375463D01*
X166765531Y-74563970D01*
X166784838Y-74760000D01*
X166765531Y-74956030D01*
X166708348Y-75144537D01*
X166615491Y-75318260D01*
X166490528Y-75470528D01*
X166338260Y-75595491D01*
X166338258Y-75595492D01*
X166164535Y-75688349D01*
X165976034Y-75745530D01*
X165976033Y-75745530D01*
X165976030Y-75745531D01*
X165829124Y-75760000D01*
X164930876Y-75760000D01*
X164783970Y-75745531D01*
X164783967Y-75745530D01*
X164783966Y-75745530D01*
X164595465Y-75688349D01*
X164421742Y-75595492D01*
X164421740Y-75595491D01*
X164269472Y-75470528D01*
X164144509Y-75318260D01*
X164051652Y-75144537D01*
X163994469Y-74956030D01*
X163975162Y-74760000D01*
X163994469Y-74563970D01*
X164051652Y-74375463D01*
X164144509Y-74201740D01*
X164269472Y-74049472D01*
X164421740Y-73924509D01*
X164595463Y-73831652D01*
X164595465Y-73831651D01*
X164783966Y-73774470D01*
X164783967Y-73774470D01*
X164783970Y-73774469D01*
X164930876Y-73760000D01*
X165829124Y-73760000D01*
X165976030Y-73774469D01*
X165976030Y-73774469D01*
G37*
G36*
X173596030Y-73774469D02*
X173596033Y-73774470D01*
X173596034Y-73774470D01*
X173784535Y-73831651D01*
X173784537Y-73831652D01*
X173958260Y-73924509D01*
X174110528Y-74049472D01*
X174235491Y-74201740D01*
X174328348Y-74375463D01*
X174385531Y-74563970D01*
X174404838Y-74760000D01*
X174385531Y-74956030D01*
X174328348Y-75144537D01*
X174235491Y-75318260D01*
X174110528Y-75470528D01*
X173958260Y-75595491D01*
X173958258Y-75595492D01*
X173784535Y-75688349D01*
X173596034Y-75745530D01*
X173596033Y-75745530D01*
X173596030Y-75745531D01*
X173449124Y-75760000D01*
X172550876Y-75760000D01*
X172403970Y-75745531D01*
X172403967Y-75745530D01*
X172403966Y-75745530D01*
X172215465Y-75688349D01*
X172041742Y-75595492D01*
X172041740Y-75595491D01*
X171889472Y-75470528D01*
X171764509Y-75318260D01*
X171671652Y-75144537D01*
X171614469Y-74956030D01*
X171595162Y-74760000D01*
X171614469Y-74563970D01*
X171671652Y-74375463D01*
X171764509Y-74201740D01*
X171889472Y-74049472D01*
X172041740Y-73924509D01*
X172215463Y-73831652D01*
X172215465Y-73831651D01*
X172403966Y-73774470D01*
X172403967Y-73774470D01*
X172403970Y-73774469D01*
X172550876Y-73760000D01*
X173449124Y-73760000D01*
X173596030Y-73774469D01*
X173596030Y-73774469D01*
G37*
G36*
X110600026Y-71346115D02*
X110818412Y-71436573D01*
X111014958Y-71567901D01*
X111182099Y-71735042D01*
X111313427Y-71931588D01*
X111403885Y-72149974D01*
X111450000Y-72381809D01*
X111450000Y-72618191D01*
X111403885Y-72850026D01*
X111313427Y-73068412D01*
X111182099Y-73264958D01*
X111014958Y-73432099D01*
X110818412Y-73563427D01*
X110600026Y-73653885D01*
X110368191Y-73700000D01*
X110131809Y-73700000D01*
X109899974Y-73653885D01*
X109681588Y-73563427D01*
X109485042Y-73432099D01*
X109317901Y-73264958D01*
X109186573Y-73068412D01*
X109096115Y-72850026D01*
X109050000Y-72618191D01*
X109050000Y-72381809D01*
X109096115Y-72149974D01*
X109186573Y-71931588D01*
X109317901Y-71735042D01*
X109485042Y-71567901D01*
X109681588Y-71436573D01*
X109899974Y-71346115D01*
X110131809Y-71300000D01*
X110368191Y-71300000D01*
X110600026Y-71346115D01*
X110600026Y-71346115D01*
G37*
G36*
X102800026Y-71346115D02*
X103018412Y-71436573D01*
X103214958Y-71567901D01*
X103382099Y-71735042D01*
X103513427Y-71931588D01*
X103603885Y-72149974D01*
X103650000Y-72381809D01*
X103650000Y-72618191D01*
X103603885Y-72850026D01*
X103513427Y-73068412D01*
X103382099Y-73264958D01*
X103214958Y-73432099D01*
X103018412Y-73563427D01*
X102800026Y-73653885D01*
X102568191Y-73700000D01*
X102331809Y-73700000D01*
X102099974Y-73653885D01*
X101881588Y-73563427D01*
X101685042Y-73432099D01*
X101517901Y-73264958D01*
X101386573Y-73068412D01*
X101296115Y-72850026D01*
X101250000Y-72618191D01*
X101250000Y-72381809D01*
X101296115Y-72149974D01*
X101386573Y-71931588D01*
X101517901Y-71735042D01*
X101685042Y-71567901D01*
X101881588Y-71436573D01*
X102099974Y-71346115D01*
X102331809Y-71300000D01*
X102568191Y-71300000D01*
X102800026Y-71346115D01*
X102800026Y-71346115D01*
G37*
G36*
X146600000Y-73400000D02*
X144000000Y-73400000D01*
X144000000Y-70800000D01*
X146600000Y-70800000D01*
X146600000Y-73400000D01*
X146600000Y-73400000D01*
G37*
G36*
X158000026Y-70996115D02*
X158218412Y-71086573D01*
X158414958Y-71217901D01*
X158582099Y-71385042D01*
X158713427Y-71581588D01*
X158803885Y-71799974D01*
X158850000Y-72031809D01*
X158850000Y-72268191D01*
X158803885Y-72500026D01*
X158713427Y-72718412D01*
X158582099Y-72914958D01*
X158414958Y-73082099D01*
X158218412Y-73213427D01*
X158000026Y-73303885D01*
X157768191Y-73350000D01*
X157531809Y-73350000D01*
X157299974Y-73303885D01*
X157081588Y-73213427D01*
X156885042Y-73082099D01*
X156717901Y-72914958D01*
X156586573Y-72718412D01*
X156496115Y-72500026D01*
X156450000Y-72268191D01*
X156450000Y-72031809D01*
X156496115Y-71799974D01*
X156586573Y-71581588D01*
X156717901Y-71385042D01*
X156885042Y-71217901D01*
X157081588Y-71086573D01*
X157299974Y-70996115D01*
X157531809Y-70950000D01*
X157768191Y-70950000D01*
X158000026Y-70996115D01*
X158000026Y-70996115D01*
G37*
G36*
X161950026Y-70946115D02*
X162168412Y-71036573D01*
X162364958Y-71167901D01*
X162532099Y-71335042D01*
X162663427Y-71531588D01*
X162753885Y-71749974D01*
X162800000Y-71981809D01*
X162800000Y-72218191D01*
X162753885Y-72450026D01*
X162663427Y-72668412D01*
X162532099Y-72864958D01*
X162364958Y-73032099D01*
X162168412Y-73163427D01*
X161950026Y-73253885D01*
X161718191Y-73300000D01*
X161481809Y-73300000D01*
X161249974Y-73253885D01*
X161031588Y-73163427D01*
X160835042Y-73032099D01*
X160667901Y-72864958D01*
X160536573Y-72668412D01*
X160446115Y-72450026D01*
X160400000Y-72218191D01*
X160400000Y-71981809D01*
X160446115Y-71749974D01*
X160536573Y-71531588D01*
X160667901Y-71335042D01*
X160835042Y-71167901D01*
X161031588Y-71036573D01*
X161249974Y-70946115D01*
X161481809Y-70900000D01*
X161718191Y-70900000D01*
X161950026Y-70946115D01*
X161950026Y-70946115D01*
G37*
G36*
X173596030Y-71234469D02*
X173596033Y-71234470D01*
X173596034Y-71234470D01*
X173784535Y-71291651D01*
X173784537Y-71291652D01*
X173958260Y-71384509D01*
X174110528Y-71509472D01*
X174235491Y-71661740D01*
X174235492Y-71661742D01*
X174328349Y-71835465D01*
X174372742Y-71981809D01*
X174385531Y-72023970D01*
X174404838Y-72220000D01*
X174385531Y-72416030D01*
X174385530Y-72416033D01*
X174385530Y-72416034D01*
X174375219Y-72450026D01*
X174328348Y-72604537D01*
X174235491Y-72778260D01*
X174110528Y-72930528D01*
X173958260Y-73055491D01*
X173934085Y-73068413D01*
X173784535Y-73148349D01*
X173596034Y-73205530D01*
X173596033Y-73205530D01*
X173596030Y-73205531D01*
X173449124Y-73220000D01*
X172550876Y-73220000D01*
X172403970Y-73205531D01*
X172403967Y-73205530D01*
X172403966Y-73205530D01*
X172215465Y-73148349D01*
X172065915Y-73068413D01*
X172041740Y-73055491D01*
X171889472Y-72930528D01*
X171764509Y-72778260D01*
X171671652Y-72604537D01*
X171624782Y-72450026D01*
X171614470Y-72416034D01*
X171614470Y-72416033D01*
X171614469Y-72416030D01*
X171595162Y-72220000D01*
X171614469Y-72023970D01*
X171627258Y-71981809D01*
X171671651Y-71835465D01*
X171764508Y-71661742D01*
X171764509Y-71661740D01*
X171889472Y-71509472D01*
X172041740Y-71384509D01*
X172215463Y-71291652D01*
X172215465Y-71291651D01*
X172403966Y-71234470D01*
X172403967Y-71234470D01*
X172403970Y-71234469D01*
X172550876Y-71220000D01*
X173449124Y-71220000D01*
X173596030Y-71234469D01*
X173596030Y-71234469D01*
G37*
G36*
X166780000Y-73220000D02*
X163980000Y-73220000D01*
X163980000Y-71220000D01*
X166780000Y-71220000D01*
X166780000Y-73220000D01*
X166780000Y-73220000D01*
G37*
G36*
X152500000Y-73150000D02*
X150500000Y-73150000D01*
X150500000Y-71150000D01*
X152500000Y-71150000D01*
X152500000Y-73150000D01*
X152500000Y-73150000D01*
G37*
G36*
X163850026Y-67496115D02*
X164068412Y-67586573D01*
X164264958Y-67717901D01*
X164432099Y-67885042D01*
X164563427Y-68081588D01*
X164653885Y-68299974D01*
X164700000Y-68531809D01*
X164700000Y-68768191D01*
X164653885Y-69000026D01*
X164563427Y-69218412D01*
X164432099Y-69414958D01*
X164264958Y-69582099D01*
X164068412Y-69713427D01*
X163850026Y-69803885D01*
X163618191Y-69850000D01*
X163381809Y-69850000D01*
X163149974Y-69803885D01*
X162931588Y-69713427D01*
X162735042Y-69582099D01*
X162567901Y-69414958D01*
X162436573Y-69218412D01*
X162346115Y-69000026D01*
X162300000Y-68768191D01*
X162300000Y-68531809D01*
X162346115Y-68299974D01*
X162436573Y-68081588D01*
X162567901Y-67885042D01*
X162735042Y-67717901D01*
X162931588Y-67586573D01*
X163149974Y-67496115D01*
X163381809Y-67450000D01*
X163618191Y-67450000D01*
X163850026Y-67496115D01*
X163850026Y-67496115D01*
G37*
G36*
X177900026Y-67496115D02*
X178118412Y-67586573D01*
X178314958Y-67717901D01*
X178482099Y-67885042D01*
X178613427Y-68081588D01*
X178703885Y-68299974D01*
X178750000Y-68531809D01*
X178750000Y-68768191D01*
X178703885Y-69000026D01*
X178613427Y-69218412D01*
X178482099Y-69414958D01*
X178314958Y-69582099D01*
X178118412Y-69713427D01*
X177900026Y-69803885D01*
X177668191Y-69850000D01*
X177431809Y-69850000D01*
X177199974Y-69803885D01*
X176981588Y-69713427D01*
X176785042Y-69582099D01*
X176617901Y-69414958D01*
X176486573Y-69218412D01*
X176396115Y-69000026D01*
X176350000Y-68768191D01*
X176350000Y-68531809D01*
X176396115Y-68299974D01*
X176486573Y-68081588D01*
X176617901Y-67885042D01*
X176785042Y-67717901D01*
X176981588Y-67586573D01*
X177199974Y-67496115D01*
X177431809Y-67450000D01*
X177668191Y-67450000D01*
X177900026Y-67496115D01*
X177900026Y-67496115D01*
G37*
G36*
X156050026Y-67496115D02*
X156268412Y-67586573D01*
X156464958Y-67717901D01*
X156632099Y-67885042D01*
X156763427Y-68081588D01*
X156853885Y-68299974D01*
X156900000Y-68531809D01*
X156900000Y-68768191D01*
X156853885Y-69000026D01*
X156763427Y-69218412D01*
X156632099Y-69414958D01*
X156464958Y-69582099D01*
X156268412Y-69713427D01*
X156050026Y-69803885D01*
X155818191Y-69850000D01*
X155581809Y-69850000D01*
X155349974Y-69803885D01*
X155131588Y-69713427D01*
X154935042Y-69582099D01*
X154767901Y-69414958D01*
X154636573Y-69218412D01*
X154546115Y-69000026D01*
X154500000Y-68768191D01*
X154500000Y-68531809D01*
X154546115Y-68299974D01*
X154636573Y-68081588D01*
X154767901Y-67885042D01*
X154935042Y-67717901D01*
X155131588Y-67586573D01*
X155349974Y-67496115D01*
X155581809Y-67450000D01*
X155818191Y-67450000D01*
X156050026Y-67496115D01*
X156050026Y-67496115D01*
G37*
G36*
X170100026Y-67496115D02*
X170318412Y-67586573D01*
X170514958Y-67717901D01*
X170682099Y-67885042D01*
X170813427Y-68081588D01*
X170903885Y-68299974D01*
X170950000Y-68531809D01*
X170950000Y-68768191D01*
X170903885Y-69000026D01*
X170813427Y-69218412D01*
X170682099Y-69414958D01*
X170514958Y-69582099D01*
X170318412Y-69713427D01*
X170100026Y-69803885D01*
X169868191Y-69850000D01*
X169631809Y-69850000D01*
X169399974Y-69803885D01*
X169181588Y-69713427D01*
X168985042Y-69582099D01*
X168817901Y-69414958D01*
X168686573Y-69218412D01*
X168596115Y-69000026D01*
X168550000Y-68768191D01*
X168550000Y-68531809D01*
X168596115Y-68299974D01*
X168686573Y-68081588D01*
X168817901Y-67885042D01*
X168985042Y-67717901D01*
X169181588Y-67586573D01*
X169399974Y-67496115D01*
X169631809Y-67450000D01*
X169868191Y-67450000D01*
X170100026Y-67496115D01*
X170100026Y-67496115D01*
G37*
G36*
X184141716Y-65284544D02*
X184542090Y-65450384D01*
X184902421Y-65691150D01*
X185208850Y-65997579D01*
X185449616Y-66357910D01*
X185615456Y-66758284D01*
X185700000Y-67183317D01*
X185700000Y-67616683D01*
X185615456Y-68041716D01*
X185449616Y-68442090D01*
X185208850Y-68802421D01*
X184902421Y-69108850D01*
X184542090Y-69349616D01*
X184141716Y-69515456D01*
X183716683Y-69600000D01*
X183283317Y-69600000D01*
X182858284Y-69515456D01*
X182457910Y-69349616D01*
X182097579Y-69108850D01*
X181791150Y-68802421D01*
X181550384Y-68442090D01*
X181384544Y-68041716D01*
X181300000Y-67616683D01*
X181300000Y-67183317D01*
X181384544Y-66758284D01*
X181550384Y-66357910D01*
X181791150Y-65997579D01*
X182097579Y-65691150D01*
X182457910Y-65450384D01*
X182858284Y-65284544D01*
X183283317Y-65200000D01*
X183716683Y-65200000D01*
X184141716Y-65284544D01*
X184141716Y-65284544D01*
G37*
G36*
X97141716Y-65284544D02*
X97542090Y-65450384D01*
X97902421Y-65691150D01*
X98208850Y-65997579D01*
X98449616Y-66357910D01*
X98615456Y-66758284D01*
X98700000Y-67183317D01*
X98700000Y-67616683D01*
X98615456Y-68041716D01*
X98449616Y-68442090D01*
X98208850Y-68802421D01*
X97902421Y-69108850D01*
X97542090Y-69349616D01*
X97141716Y-69515456D01*
X96716683Y-69600000D01*
X96283317Y-69600000D01*
X95858284Y-69515456D01*
X95457910Y-69349616D01*
X95097579Y-69108850D01*
X94791150Y-68802421D01*
X94550384Y-68442090D01*
X94384544Y-68041716D01*
X94300000Y-67616683D01*
X94300000Y-67183317D01*
X94384544Y-66758284D01*
X94550384Y-66357910D01*
X94791150Y-65997579D01*
X95097579Y-65691150D01*
X95457910Y-65450384D01*
X95858284Y-65284544D01*
X96283317Y-65200000D01*
X96716683Y-65200000D01*
X97141716Y-65284544D01*
X97141716Y-65284544D01*
G37*
G36*
X126141716Y-65184544D02*
X126542090Y-65350384D01*
X126902421Y-65591150D01*
X127208850Y-65897579D01*
X127449616Y-66257910D01*
X127615456Y-66658284D01*
X127700000Y-67083317D01*
X127700000Y-67516683D01*
X127615456Y-67941716D01*
X127449616Y-68342090D01*
X127208850Y-68702421D01*
X126902421Y-69008850D01*
X126542090Y-69249616D01*
X126141716Y-69415456D01*
X125716683Y-69500000D01*
X125283317Y-69500000D01*
X124858284Y-69415456D01*
X124457910Y-69249616D01*
X124097579Y-69008850D01*
X123791150Y-68702421D01*
X123550384Y-68342090D01*
X123384544Y-67941716D01*
X123300000Y-67516683D01*
X123300000Y-67083317D01*
X123384544Y-66658284D01*
X123550384Y-66257910D01*
X123791150Y-65897579D01*
X124097579Y-65591150D01*
X124457910Y-65350384D01*
X124858284Y-65184544D01*
X125283317Y-65100000D01*
X125716683Y-65100000D01*
X126141716Y-65184544D01*
X126141716Y-65184544D01*
G37*
G36*
X115520000Y-69100000D02*
X112720000Y-69100000D01*
X112720000Y-67100000D01*
X115520000Y-67100000D01*
X115520000Y-69100000D01*
X115520000Y-69100000D01*
G37*
G36*
X107096030Y-67114469D02*
X107096033Y-67114470D01*
X107096034Y-67114470D01*
X107284535Y-67171651D01*
X107284537Y-67171652D01*
X107458260Y-67264509D01*
X107610528Y-67389472D01*
X107735491Y-67541740D01*
X107828348Y-67715463D01*
X107885531Y-67903970D01*
X107904838Y-68100000D01*
X107885531Y-68296030D01*
X107885530Y-68296033D01*
X107885530Y-68296034D01*
X107841225Y-68442090D01*
X107828348Y-68484537D01*
X107735491Y-68658260D01*
X107610528Y-68810528D01*
X107458260Y-68935491D01*
X107458258Y-68935492D01*
X107284535Y-69028349D01*
X107096034Y-69085530D01*
X107096033Y-69085530D01*
X107096030Y-69085531D01*
X106949124Y-69100000D01*
X106050876Y-69100000D01*
X105903970Y-69085531D01*
X105903967Y-69085530D01*
X105903966Y-69085530D01*
X105715465Y-69028349D01*
X105541742Y-68935492D01*
X105541740Y-68935491D01*
X105389472Y-68810528D01*
X105264509Y-68658260D01*
X105171652Y-68484537D01*
X105158776Y-68442090D01*
X105114470Y-68296034D01*
X105114470Y-68296033D01*
X105114469Y-68296030D01*
X105095162Y-68100000D01*
X105114469Y-67903970D01*
X105171652Y-67715463D01*
X105264509Y-67541740D01*
X105389472Y-67389472D01*
X105541740Y-67264509D01*
X105715463Y-67171652D01*
X105715465Y-67171651D01*
X105903966Y-67114470D01*
X105903967Y-67114470D01*
X105903970Y-67114469D01*
X106050876Y-67100000D01*
X106949124Y-67100000D01*
X107096030Y-67114469D01*
X107096030Y-67114469D01*
G37*
G36*
X173750026Y-64746115D02*
X173968412Y-64836573D01*
X174164958Y-64967901D01*
X174332099Y-65135042D01*
X174463427Y-65331588D01*
X174553885Y-65549974D01*
X174600000Y-65781809D01*
X174600000Y-66018191D01*
X174553885Y-66250026D01*
X174463427Y-66468412D01*
X174332099Y-66664958D01*
X174164958Y-66832099D01*
X173968412Y-66963427D01*
X173750026Y-67053885D01*
X173518191Y-67100000D01*
X173281809Y-67100000D01*
X173049974Y-67053885D01*
X172831588Y-66963427D01*
X172635042Y-66832099D01*
X172467901Y-66664958D01*
X172336573Y-66468412D01*
X172246115Y-66250026D01*
X172200000Y-66018191D01*
X172200000Y-65781809D01*
X172246115Y-65549974D01*
X172336573Y-65331588D01*
X172467901Y-65135042D01*
X172635042Y-64967901D01*
X172831588Y-64836573D01*
X173049974Y-64746115D01*
X173281809Y-64700000D01*
X173518191Y-64700000D01*
X173750026Y-64746115D01*
X173750026Y-64746115D01*
G37*
G36*
X176820857Y-64442272D02*
X177021042Y-64525191D01*
X177021045Y-64525193D01*
X177180372Y-64631652D01*
X177201213Y-64645578D01*
X177354422Y-64798787D01*
X177474809Y-64978958D01*
X177557728Y-65179143D01*
X177600000Y-65391658D01*
X177600000Y-65608342D01*
X177557728Y-65820857D01*
X177474809Y-66021042D01*
X177354422Y-66201213D01*
X177201213Y-66354422D01*
X177201210Y-66354424D01*
X177201209Y-66354425D01*
X177090574Y-66428349D01*
X177021042Y-66474809D01*
X176820857Y-66557728D01*
X176608342Y-66600000D01*
X176391658Y-66600000D01*
X176179143Y-66557728D01*
X175978958Y-66474809D01*
X175909426Y-66428349D01*
X175798791Y-66354425D01*
X175798790Y-66354424D01*
X175798787Y-66354422D01*
X175645578Y-66201213D01*
X175525191Y-66021042D01*
X175442272Y-65820857D01*
X175400000Y-65608342D01*
X175400000Y-65391658D01*
X175442272Y-65179143D01*
X175525191Y-64978958D01*
X175645578Y-64798787D01*
X175798787Y-64645578D01*
X175819629Y-64631652D01*
X175978955Y-64525193D01*
X175978958Y-64525191D01*
X176179143Y-64442272D01*
X176391658Y-64400000D01*
X176608342Y-64400000D01*
X176820857Y-64442272D01*
X176820857Y-64442272D01*
G37*
G36*
X103820857Y-64442272D02*
X104021042Y-64525191D01*
X104021045Y-64525193D01*
X104180372Y-64631652D01*
X104201213Y-64645578D01*
X104354422Y-64798787D01*
X104474809Y-64978958D01*
X104557728Y-65179143D01*
X104600000Y-65391658D01*
X104600000Y-65608342D01*
X104557728Y-65820857D01*
X104474809Y-66021042D01*
X104354422Y-66201213D01*
X104201213Y-66354422D01*
X104201210Y-66354424D01*
X104201209Y-66354425D01*
X104090574Y-66428349D01*
X104021042Y-66474809D01*
X103820857Y-66557728D01*
X103608342Y-66600000D01*
X103391658Y-66600000D01*
X103179143Y-66557728D01*
X102978958Y-66474809D01*
X102909426Y-66428349D01*
X102798791Y-66354425D01*
X102798790Y-66354424D01*
X102798787Y-66354422D01*
X102645578Y-66201213D01*
X102525191Y-66021042D01*
X102442272Y-65820857D01*
X102400000Y-65608342D01*
X102400000Y-65391658D01*
X102442272Y-65179143D01*
X102525191Y-64978958D01*
X102645578Y-64798787D01*
X102798787Y-64645578D01*
X102819629Y-64631652D01*
X102978955Y-64525193D01*
X102978958Y-64525191D01*
X103179143Y-64442272D01*
X103391658Y-64400000D01*
X103608342Y-64400000D01*
X103820857Y-64442272D01*
X103820857Y-64442272D01*
G37*
G36*
X114716030Y-64574469D02*
X114716033Y-64574470D01*
X114716034Y-64574470D01*
X114904535Y-64631651D01*
X114904537Y-64631652D01*
X115078260Y-64724509D01*
X115230528Y-64849472D01*
X115355491Y-65001740D01*
X115355492Y-65001742D01*
X115448349Y-65175465D01*
X115483596Y-65291659D01*
X115505531Y-65363970D01*
X115524838Y-65560000D01*
X115505531Y-65756030D01*
X115505530Y-65756033D01*
X115505530Y-65756034D01*
X115455475Y-65921045D01*
X115448348Y-65944537D01*
X115355491Y-66118260D01*
X115230528Y-66270528D01*
X115078260Y-66395491D01*
X114941833Y-66468413D01*
X114904535Y-66488349D01*
X114716034Y-66545530D01*
X114716033Y-66545530D01*
X114716030Y-66545531D01*
X114569124Y-66560000D01*
X113670876Y-66560000D01*
X113523970Y-66545531D01*
X113523967Y-66545530D01*
X113523966Y-66545530D01*
X113335465Y-66488349D01*
X113298167Y-66468413D01*
X113161740Y-66395491D01*
X113009472Y-66270528D01*
X112884509Y-66118260D01*
X112791652Y-65944537D01*
X112784526Y-65921045D01*
X112734470Y-65756034D01*
X112734470Y-65756033D01*
X112734469Y-65756030D01*
X112715162Y-65560000D01*
X112734469Y-65363970D01*
X112756404Y-65291659D01*
X112791651Y-65175465D01*
X112884508Y-65001742D01*
X112884509Y-65001740D01*
X113009472Y-64849472D01*
X113161740Y-64724509D01*
X113335463Y-64631652D01*
X113335465Y-64631651D01*
X113523966Y-64574470D01*
X113523967Y-64574470D01*
X113523970Y-64574469D01*
X113670876Y-64560000D01*
X114569124Y-64560000D01*
X114716030Y-64574469D01*
X114716030Y-64574469D01*
G37*
G36*
X107096030Y-64574469D02*
X107096033Y-64574470D01*
X107096034Y-64574470D01*
X107284535Y-64631651D01*
X107284537Y-64631652D01*
X107458260Y-64724509D01*
X107610528Y-64849472D01*
X107735491Y-65001740D01*
X107735492Y-65001742D01*
X107828349Y-65175465D01*
X107863596Y-65291659D01*
X107885531Y-65363970D01*
X107904838Y-65560000D01*
X107885531Y-65756030D01*
X107885530Y-65756033D01*
X107885530Y-65756034D01*
X107835475Y-65921045D01*
X107828348Y-65944537D01*
X107735491Y-66118260D01*
X107610528Y-66270528D01*
X107458260Y-66395491D01*
X107321833Y-66468413D01*
X107284535Y-66488349D01*
X107096034Y-66545530D01*
X107096033Y-66545530D01*
X107096030Y-66545531D01*
X106949124Y-66560000D01*
X106050876Y-66560000D01*
X105903970Y-66545531D01*
X105903967Y-66545530D01*
X105903966Y-66545530D01*
X105715465Y-66488349D01*
X105678167Y-66468413D01*
X105541740Y-66395491D01*
X105389472Y-66270528D01*
X105264509Y-66118260D01*
X105171652Y-65944537D01*
X105164526Y-65921045D01*
X105114470Y-65756034D01*
X105114470Y-65756033D01*
X105114469Y-65756030D01*
X105095162Y-65560000D01*
X105114469Y-65363970D01*
X105136404Y-65291659D01*
X105171651Y-65175465D01*
X105264508Y-65001742D01*
X105264509Y-65001740D01*
X105389472Y-64849472D01*
X105541740Y-64724509D01*
X105715463Y-64631652D01*
X105715465Y-64631651D01*
X105903966Y-64574470D01*
X105903967Y-64574470D01*
X105903970Y-64574469D01*
X106050876Y-64560000D01*
X106949124Y-64560000D01*
X107096030Y-64574469D01*
X107096030Y-64574469D01*
G37*
G36*
X132820857Y-64342272D02*
X133021042Y-64425191D01*
X133021045Y-64425193D01*
X133154656Y-64514469D01*
X133201213Y-64545578D01*
X133354422Y-64698787D01*
X133354424Y-64698790D01*
X133354425Y-64698791D01*
X133415016Y-64789472D01*
X133474809Y-64878958D01*
X133557728Y-65079143D01*
X133600000Y-65291658D01*
X133600000Y-65508342D01*
X133557728Y-65720857D01*
X133474809Y-65921042D01*
X133474807Y-65921045D01*
X133383123Y-66058260D01*
X133354422Y-66101213D01*
X133201213Y-66254422D01*
X133201210Y-66254424D01*
X133201209Y-66254425D01*
X133195993Y-66257910D01*
X133021042Y-66374809D01*
X132820857Y-66457728D01*
X132608342Y-66500000D01*
X132391658Y-66500000D01*
X132179143Y-66457728D01*
X131978958Y-66374809D01*
X131804007Y-66257910D01*
X131798791Y-66254425D01*
X131798790Y-66254424D01*
X131798787Y-66254422D01*
X131645578Y-66101213D01*
X131616878Y-66058260D01*
X131525193Y-65921045D01*
X131525191Y-65921042D01*
X131442272Y-65720857D01*
X131400000Y-65508342D01*
X131400000Y-65291658D01*
X131442272Y-65079143D01*
X131525191Y-64878958D01*
X131584984Y-64789472D01*
X131645575Y-64698791D01*
X131645576Y-64698790D01*
X131645578Y-64698787D01*
X131798787Y-64545578D01*
X131845345Y-64514469D01*
X131978955Y-64425193D01*
X131978958Y-64425191D01*
X132179143Y-64342272D01*
X132391658Y-64300000D01*
X132608342Y-64300000D01*
X132820857Y-64342272D01*
X132820857Y-64342272D01*
G37*
G36*
X136250000Y-66500000D02*
X134250000Y-66500000D01*
X134250000Y-64500000D01*
X136250000Y-64500000D01*
X136250000Y-66500000D01*
X136250000Y-66500000D01*
G37*
G36*
X143066030Y-64514469D02*
X143066033Y-64514470D01*
X143066034Y-64514470D01*
X143254535Y-64571651D01*
X143254537Y-64571652D01*
X143428260Y-64664509D01*
X143580528Y-64789472D01*
X143705491Y-64941740D01*
X143790083Y-65100000D01*
X143798349Y-65115465D01*
X143855530Y-65303966D01*
X143855531Y-65303970D01*
X143874838Y-65500000D01*
X143855531Y-65696030D01*
X143855530Y-65696033D01*
X143855530Y-65696034D01*
X143829511Y-65781809D01*
X143798348Y-65884537D01*
X143705491Y-66058260D01*
X143580528Y-66210528D01*
X143428260Y-66335491D01*
X143428258Y-66335492D01*
X143254535Y-66428349D01*
X143066034Y-66485530D01*
X143066033Y-66485530D01*
X143066030Y-66485531D01*
X142919124Y-66500000D01*
X142820876Y-66500000D01*
X142673970Y-66485531D01*
X142673967Y-66485530D01*
X142673966Y-66485530D01*
X142485465Y-66428349D01*
X142311742Y-66335492D01*
X142311740Y-66335491D01*
X142159472Y-66210528D01*
X142034509Y-66058260D01*
X141941652Y-65884537D01*
X141910490Y-65781809D01*
X141884470Y-65696034D01*
X141884470Y-65696033D01*
X141884469Y-65696030D01*
X141865162Y-65500000D01*
X141884469Y-65303970D01*
X141884470Y-65303966D01*
X141941651Y-65115465D01*
X141949917Y-65100000D01*
X142034509Y-64941740D01*
X142159472Y-64789472D01*
X142311740Y-64664509D01*
X142485463Y-64571652D01*
X142485465Y-64571651D01*
X142673966Y-64514470D01*
X142673967Y-64514470D01*
X142673970Y-64514469D01*
X142820876Y-64500000D01*
X142919124Y-64500000D01*
X143066030Y-64514469D01*
X143066030Y-64514469D01*
G37*
G36*
X155284249Y-61070981D02*
X155557575Y-61153894D01*
X155809473Y-61288536D01*
X155809474Y-61288537D01*
X155809476Y-61288538D01*
X156030265Y-61469735D01*
X156137171Y-61600000D01*
X156211464Y-61690526D01*
X156346106Y-61942424D01*
X156429019Y-62215750D01*
X156450000Y-62428775D01*
X156450000Y-63571225D01*
X156429019Y-63784250D01*
X156346106Y-64057576D01*
X156211464Y-64309474D01*
X156030265Y-64530265D01*
X155809474Y-64711464D01*
X155557576Y-64846106D01*
X155284250Y-64929019D01*
X155000000Y-64957015D01*
X154715751Y-64929019D01*
X154442425Y-64846106D01*
X154190527Y-64711464D01*
X154023600Y-64574470D01*
X153969738Y-64530267D01*
X153969736Y-64530265D01*
X153788536Y-64309474D01*
X153653894Y-64057576D01*
X153570981Y-63784250D01*
X153550000Y-63571225D01*
X153550000Y-62428776D01*
X153570981Y-62215751D01*
X153653894Y-61942425D01*
X153788536Y-61690527D01*
X153810461Y-61663811D01*
X153969735Y-61469735D01*
X154190524Y-61288538D01*
X154190526Y-61288536D01*
X154442424Y-61153894D01*
X154715750Y-61070981D01*
X155000000Y-61042985D01*
X155284249Y-61070981D01*
X155284249Y-61070981D01*
G37*
G36*
X159684249Y-61070981D02*
X159957575Y-61153894D01*
X160209473Y-61288536D01*
X160209474Y-61288537D01*
X160209476Y-61288538D01*
X160430265Y-61469735D01*
X160537171Y-61600000D01*
X160611464Y-61690526D01*
X160746106Y-61942424D01*
X160829019Y-62215750D01*
X160850000Y-62428775D01*
X160850000Y-63571225D01*
X160829019Y-63784250D01*
X160746106Y-64057576D01*
X160611464Y-64309474D01*
X160430265Y-64530265D01*
X160209474Y-64711464D01*
X159957576Y-64846106D01*
X159684250Y-64929019D01*
X159400000Y-64957015D01*
X159115751Y-64929019D01*
X158842425Y-64846106D01*
X158590527Y-64711464D01*
X158423600Y-64574470D01*
X158369738Y-64530267D01*
X158369736Y-64530265D01*
X158188536Y-64309474D01*
X158053894Y-64057576D01*
X157970981Y-63784250D01*
X157950000Y-63571225D01*
X157950000Y-62428776D01*
X157970981Y-62215751D01*
X158053894Y-61942425D01*
X158188536Y-61690527D01*
X158210461Y-61663811D01*
X158369735Y-61469735D01*
X158590524Y-61288538D01*
X158590526Y-61288536D01*
X158842424Y-61153894D01*
X159115750Y-61070981D01*
X159400000Y-61042985D01*
X159684249Y-61070981D01*
X159684249Y-61070981D01*
G37*
G36*
X150884249Y-61070981D02*
X151157575Y-61153894D01*
X151409473Y-61288536D01*
X151409474Y-61288537D01*
X151409476Y-61288538D01*
X151630265Y-61469735D01*
X151737171Y-61600000D01*
X151811464Y-61690526D01*
X151946106Y-61942424D01*
X152029019Y-62215750D01*
X152050000Y-62428775D01*
X152050000Y-63571225D01*
X152029019Y-63784250D01*
X151946106Y-64057576D01*
X151811464Y-64309474D01*
X151630265Y-64530265D01*
X151409474Y-64711464D01*
X151157576Y-64846106D01*
X150884250Y-64929019D01*
X150600000Y-64957015D01*
X150315751Y-64929019D01*
X150042425Y-64846106D01*
X149790527Y-64711464D01*
X149623600Y-64574470D01*
X149569738Y-64530267D01*
X149569736Y-64530265D01*
X149388536Y-64309474D01*
X149253894Y-64057576D01*
X149170981Y-63784250D01*
X149150000Y-63571225D01*
X149150000Y-62428776D01*
X149170981Y-62215751D01*
X149253894Y-61942425D01*
X149388536Y-61690527D01*
X149410461Y-61663811D01*
X149569735Y-61469735D01*
X149790524Y-61288538D01*
X149790526Y-61288536D01*
X150042424Y-61153894D01*
X150315750Y-61070981D01*
X150600000Y-61042985D01*
X150884249Y-61070981D01*
X150884249Y-61070981D01*
G37*
G36*
X176820857Y-61942272D02*
X177021042Y-62025191D01*
X177021045Y-62025193D01*
X177120508Y-62091652D01*
X177201213Y-62145578D01*
X177354422Y-62298787D01*
X177474809Y-62478958D01*
X177557728Y-62679143D01*
X177600000Y-62891658D01*
X177600000Y-63108342D01*
X177557728Y-63320857D01*
X177474809Y-63521042D01*
X177354422Y-63701213D01*
X177201213Y-63854422D01*
X177201210Y-63854424D01*
X177201209Y-63854425D01*
X177060642Y-63948349D01*
X177021042Y-63974809D01*
X176820857Y-64057728D01*
X176608342Y-64100000D01*
X176391658Y-64100000D01*
X176179143Y-64057728D01*
X175978958Y-63974809D01*
X175939358Y-63948349D01*
X175798791Y-63854425D01*
X175798790Y-63854424D01*
X175798787Y-63854422D01*
X175645578Y-63701213D01*
X175525191Y-63521042D01*
X175442272Y-63320857D01*
X175400000Y-63108342D01*
X175400000Y-62891658D01*
X175442272Y-62679143D01*
X175525191Y-62478958D01*
X175645578Y-62298787D01*
X175798787Y-62145578D01*
X175879493Y-62091652D01*
X175978955Y-62025193D01*
X175978958Y-62025191D01*
X176179143Y-61942272D01*
X176391658Y-61900000D01*
X176608342Y-61900000D01*
X176820857Y-61942272D01*
X176820857Y-61942272D01*
G37*
G36*
X103820857Y-61942272D02*
X104021042Y-62025191D01*
X104021045Y-62025193D01*
X104120508Y-62091652D01*
X104201213Y-62145578D01*
X104354422Y-62298787D01*
X104474809Y-62478958D01*
X104557728Y-62679143D01*
X104600000Y-62891658D01*
X104600000Y-63108342D01*
X104557728Y-63320857D01*
X104474809Y-63521042D01*
X104354422Y-63701213D01*
X104201213Y-63854422D01*
X104201210Y-63854424D01*
X104201209Y-63854425D01*
X104060642Y-63948349D01*
X104021042Y-63974809D01*
X103820857Y-64057728D01*
X103608342Y-64100000D01*
X103391658Y-64100000D01*
X103179143Y-64057728D01*
X102978958Y-63974809D01*
X102939358Y-63948349D01*
X102798791Y-63854425D01*
X102798790Y-63854424D01*
X102798787Y-63854422D01*
X102645578Y-63701213D01*
X102525191Y-63521042D01*
X102442272Y-63320857D01*
X102400000Y-63108342D01*
X102400000Y-62891658D01*
X102442272Y-62679143D01*
X102525191Y-62478958D01*
X102645578Y-62298787D01*
X102798787Y-62145578D01*
X102879493Y-62091652D01*
X102978955Y-62025193D01*
X102978958Y-62025191D01*
X103179143Y-61942272D01*
X103391658Y-61900000D01*
X103608342Y-61900000D01*
X103820857Y-61942272D01*
X103820857Y-61942272D01*
G37*
G36*
X114716030Y-62034469D02*
X114716033Y-62034470D01*
X114716034Y-62034470D01*
X114904535Y-62091651D01*
X114904537Y-62091652D01*
X115078260Y-62184509D01*
X115230528Y-62309472D01*
X115355491Y-62461740D01*
X115355492Y-62461742D01*
X115448349Y-62635465D01*
X115495730Y-62791659D01*
X115505531Y-62823970D01*
X115524838Y-63020000D01*
X115505531Y-63216030D01*
X115505530Y-63216033D01*
X115505530Y-63216034D01*
X115471946Y-63326747D01*
X115448348Y-63404537D01*
X115355491Y-63578260D01*
X115230528Y-63730528D01*
X115078260Y-63855491D01*
X114904537Y-63948348D01*
X114904535Y-63948349D01*
X114716034Y-64005530D01*
X114716033Y-64005530D01*
X114716030Y-64005531D01*
X114569124Y-64020000D01*
X113670876Y-64020000D01*
X113523970Y-64005531D01*
X113523967Y-64005530D01*
X113523966Y-64005530D01*
X113335465Y-63948349D01*
X113335463Y-63948348D01*
X113161740Y-63855491D01*
X113009472Y-63730528D01*
X112884509Y-63578260D01*
X112791652Y-63404537D01*
X112768055Y-63326747D01*
X112734470Y-63216034D01*
X112734470Y-63216033D01*
X112734469Y-63216030D01*
X112715162Y-63020000D01*
X112734469Y-62823970D01*
X112744270Y-62791659D01*
X112791651Y-62635465D01*
X112884508Y-62461742D01*
X112884509Y-62461740D01*
X113009472Y-62309472D01*
X113161740Y-62184509D01*
X113335463Y-62091652D01*
X113335465Y-62091651D01*
X113523966Y-62034470D01*
X113523967Y-62034470D01*
X113523970Y-62034469D01*
X113670876Y-62020000D01*
X114569124Y-62020000D01*
X114716030Y-62034469D01*
X114716030Y-62034469D01*
G37*
G36*
X107096030Y-62034469D02*
X107096033Y-62034470D01*
X107096034Y-62034470D01*
X107284535Y-62091651D01*
X107284537Y-62091652D01*
X107458260Y-62184509D01*
X107610528Y-62309472D01*
X107735491Y-62461740D01*
X107735492Y-62461742D01*
X107828349Y-62635465D01*
X107875730Y-62791659D01*
X107885531Y-62823970D01*
X107904838Y-63020000D01*
X107885531Y-63216030D01*
X107885530Y-63216033D01*
X107885530Y-63216034D01*
X107851946Y-63326747D01*
X107828348Y-63404537D01*
X107735491Y-63578260D01*
X107610528Y-63730528D01*
X107458260Y-63855491D01*
X107284537Y-63948348D01*
X107284535Y-63948349D01*
X107096034Y-64005530D01*
X107096033Y-64005530D01*
X107096030Y-64005531D01*
X106949124Y-64020000D01*
X106050876Y-64020000D01*
X105903970Y-64005531D01*
X105903967Y-64005530D01*
X105903966Y-64005530D01*
X105715465Y-63948349D01*
X105715463Y-63948348D01*
X105541740Y-63855491D01*
X105389472Y-63730528D01*
X105264509Y-63578260D01*
X105171652Y-63404537D01*
X105148055Y-63326747D01*
X105114470Y-63216034D01*
X105114470Y-63216033D01*
X105114469Y-63216030D01*
X105095162Y-63020000D01*
X105114469Y-62823970D01*
X105124270Y-62791659D01*
X105171651Y-62635465D01*
X105264508Y-62461742D01*
X105264509Y-62461740D01*
X105389472Y-62309472D01*
X105541740Y-62184509D01*
X105715463Y-62091652D01*
X105715465Y-62091651D01*
X105903966Y-62034470D01*
X105903967Y-62034470D01*
X105903970Y-62034469D01*
X106050876Y-62020000D01*
X106949124Y-62020000D01*
X107096030Y-62034469D01*
X107096030Y-62034469D01*
G37*
G36*
X132820857Y-61842272D02*
X133021042Y-61925191D01*
X133021045Y-61925193D01*
X133184588Y-62034469D01*
X133201213Y-62045578D01*
X133354422Y-62198787D01*
X133354424Y-62198790D01*
X133354425Y-62198791D01*
X133365757Y-62215751D01*
X133474809Y-62378958D01*
X133557728Y-62579143D01*
X133600000Y-62791658D01*
X133600000Y-63008342D01*
X133557728Y-63220857D01*
X133474809Y-63421042D01*
X133474807Y-63421045D01*
X133374460Y-63571225D01*
X133354422Y-63601213D01*
X133201213Y-63754422D01*
X133201210Y-63754424D01*
X133201209Y-63754425D01*
X133051553Y-63854422D01*
X133021042Y-63874809D01*
X132820857Y-63957728D01*
X132608342Y-64000000D01*
X132391658Y-64000000D01*
X132179143Y-63957728D01*
X131978958Y-63874809D01*
X131948447Y-63854422D01*
X131798791Y-63754425D01*
X131798790Y-63754424D01*
X131798787Y-63754422D01*
X131645578Y-63601213D01*
X131625541Y-63571225D01*
X131525193Y-63421045D01*
X131525191Y-63421042D01*
X131442272Y-63220857D01*
X131400000Y-63008342D01*
X131400000Y-62791658D01*
X131442272Y-62579143D01*
X131525191Y-62378958D01*
X131634243Y-62215751D01*
X131645575Y-62198791D01*
X131645576Y-62198790D01*
X131645578Y-62198787D01*
X131798787Y-62045578D01*
X131815413Y-62034469D01*
X131978955Y-61925193D01*
X131978958Y-61925191D01*
X132179143Y-61842272D01*
X132391658Y-61800000D01*
X132608342Y-61800000D01*
X132820857Y-61842272D01*
X132820857Y-61842272D01*
G37*
G36*
X169075770Y-61565372D02*
X169191689Y-61588429D01*
X169373678Y-61663811D01*
X169537463Y-61773249D01*
X169676751Y-61912537D01*
X169786189Y-62076322D01*
X169861571Y-62258311D01*
X169900000Y-62451509D01*
X169900000Y-62648491D01*
X169861571Y-62841689D01*
X169786189Y-63023678D01*
X169676751Y-63187463D01*
X169537463Y-63326751D01*
X169373678Y-63436189D01*
X169191689Y-63511571D01*
X169075770Y-63534628D01*
X168998493Y-63550000D01*
X168801507Y-63550000D01*
X168724230Y-63534628D01*
X168608311Y-63511571D01*
X168426322Y-63436189D01*
X168262537Y-63326751D01*
X168123249Y-63187463D01*
X168013811Y-63023678D01*
X167938429Y-62841689D01*
X167900000Y-62648491D01*
X167900000Y-62451509D01*
X167938429Y-62258311D01*
X168013811Y-62076322D01*
X168123249Y-61912537D01*
X168262537Y-61773249D01*
X168426322Y-61663811D01*
X168608311Y-61588429D01*
X168724230Y-61565372D01*
X168801507Y-61550000D01*
X168998493Y-61550000D01*
X169075770Y-61565372D01*
X169075770Y-61565372D01*
G37*
G36*
X166400000Y-63550000D02*
X164400000Y-63550000D01*
X164400000Y-61550000D01*
X166400000Y-61550000D01*
X166400000Y-63550000D01*
X166400000Y-63550000D01*
G37*
G36*
X176820857Y-59442272D02*
X177021042Y-59525191D01*
X177021045Y-59525193D01*
X177199614Y-59644509D01*
X177201213Y-59645578D01*
X177354422Y-59798787D01*
X177354424Y-59798790D01*
X177354425Y-59798791D01*
X177436577Y-59921740D01*
X177474809Y-59978958D01*
X177557728Y-60179143D01*
X177600000Y-60391658D01*
X177600000Y-60608342D01*
X177557728Y-60820857D01*
X177474809Y-61021042D01*
X177354422Y-61201213D01*
X177201213Y-61354422D01*
X177201210Y-61354424D01*
X177201209Y-61354425D01*
X177090574Y-61428349D01*
X177021042Y-61474809D01*
X176820857Y-61557728D01*
X176608342Y-61600000D01*
X176391658Y-61600000D01*
X176179143Y-61557728D01*
X175978958Y-61474809D01*
X175909426Y-61428349D01*
X175798791Y-61354425D01*
X175798790Y-61354424D01*
X175798787Y-61354422D01*
X175645578Y-61201213D01*
X175525191Y-61021042D01*
X175442272Y-60820857D01*
X175400000Y-60608342D01*
X175400000Y-60391658D01*
X175442272Y-60179143D01*
X175525191Y-59978958D01*
X175563423Y-59921740D01*
X175645575Y-59798791D01*
X175645576Y-59798790D01*
X175645578Y-59798787D01*
X175798787Y-59645578D01*
X175800387Y-59644509D01*
X175978955Y-59525193D01*
X175978958Y-59525191D01*
X176179143Y-59442272D01*
X176391658Y-59400000D01*
X176608342Y-59400000D01*
X176820857Y-59442272D01*
X176820857Y-59442272D01*
G37*
G36*
X103820857Y-59442272D02*
X104021042Y-59525191D01*
X104021045Y-59525193D01*
X104199614Y-59644509D01*
X104201213Y-59645578D01*
X104354422Y-59798787D01*
X104354424Y-59798790D01*
X104354425Y-59798791D01*
X104436577Y-59921740D01*
X104474809Y-59978958D01*
X104557728Y-60179143D01*
X104600000Y-60391658D01*
X104600000Y-60608342D01*
X104557728Y-60820857D01*
X104474809Y-61021042D01*
X104354422Y-61201213D01*
X104201213Y-61354422D01*
X104201210Y-61354424D01*
X104201209Y-61354425D01*
X104090574Y-61428349D01*
X104021042Y-61474809D01*
X103820857Y-61557728D01*
X103608342Y-61600000D01*
X103391658Y-61600000D01*
X103179143Y-61557728D01*
X102978958Y-61474809D01*
X102909426Y-61428349D01*
X102798791Y-61354425D01*
X102798790Y-61354424D01*
X102798787Y-61354422D01*
X102645578Y-61201213D01*
X102525191Y-61021042D01*
X102442272Y-60820857D01*
X102400000Y-60608342D01*
X102400000Y-60391658D01*
X102442272Y-60179143D01*
X102525191Y-59978958D01*
X102563423Y-59921740D01*
X102645575Y-59798791D01*
X102645576Y-59798790D01*
X102645578Y-59798787D01*
X102798787Y-59645578D01*
X102800387Y-59644509D01*
X102978955Y-59525193D01*
X102978958Y-59525191D01*
X103179143Y-59442272D01*
X103391658Y-59400000D01*
X103608342Y-59400000D01*
X103820857Y-59442272D01*
X103820857Y-59442272D01*
G37*
G36*
X132820857Y-59342272D02*
X133021042Y-59425191D01*
X133021045Y-59425193D01*
X133195995Y-59542091D01*
X133201213Y-59545578D01*
X133354422Y-59698787D01*
X133354424Y-59698790D01*
X133354425Y-59698791D01*
X133415016Y-59789472D01*
X133474809Y-59878958D01*
X133557728Y-60079143D01*
X133600000Y-60291658D01*
X133600000Y-60508342D01*
X133557728Y-60720857D01*
X133474809Y-60921042D01*
X133474807Y-60921045D01*
X133374623Y-61070981D01*
X133354422Y-61101213D01*
X133201213Y-61254422D01*
X133021042Y-61374809D01*
X132820857Y-61457728D01*
X132608342Y-61500000D01*
X132391658Y-61500000D01*
X132179143Y-61457728D01*
X131978958Y-61374809D01*
X131798787Y-61254422D01*
X131645578Y-61101213D01*
X131625378Y-61070981D01*
X131525193Y-60921045D01*
X131525191Y-60921042D01*
X131442272Y-60720857D01*
X131400000Y-60508342D01*
X131400000Y-60291658D01*
X131442272Y-60079143D01*
X131525191Y-59878958D01*
X131584984Y-59789472D01*
X131645575Y-59698791D01*
X131645576Y-59698790D01*
X131645578Y-59698787D01*
X131798787Y-59545578D01*
X131804006Y-59542091D01*
X131978955Y-59425193D01*
X131978958Y-59425191D01*
X132179143Y-59342272D01*
X132391658Y-59300000D01*
X132608342Y-59300000D01*
X132820857Y-59342272D01*
X132820857Y-59342272D01*
G37*
G36*
X143750000Y-61500000D02*
X141750000Y-61500000D01*
X141750000Y-59500000D01*
X143750000Y-59500000D01*
X143750000Y-61500000D01*
X143750000Y-61500000D01*
G37*
G36*
X135326030Y-59514469D02*
X135326033Y-59514470D01*
X135326034Y-59514470D01*
X135514535Y-59571651D01*
X135514537Y-59571652D01*
X135688260Y-59664509D01*
X135840528Y-59789472D01*
X135965491Y-59941740D01*
X136047658Y-60095463D01*
X136058349Y-60115465D01*
X136115530Y-60303966D01*
X136115531Y-60303970D01*
X136134838Y-60500000D01*
X136115531Y-60696030D01*
X136115530Y-60696033D01*
X136115530Y-60696034D01*
X136109639Y-60715455D01*
X136058348Y-60884537D01*
X135965491Y-61058260D01*
X135840528Y-61210528D01*
X135688260Y-61335491D01*
X135688258Y-61335492D01*
X135514535Y-61428349D01*
X135326034Y-61485530D01*
X135326033Y-61485530D01*
X135326030Y-61485531D01*
X135179124Y-61500000D01*
X135080876Y-61500000D01*
X134933970Y-61485531D01*
X134933967Y-61485530D01*
X134933966Y-61485530D01*
X134745465Y-61428349D01*
X134571742Y-61335492D01*
X134571740Y-61335491D01*
X134419472Y-61210528D01*
X134294509Y-61058260D01*
X134201652Y-60884537D01*
X134150362Y-60715455D01*
X134144470Y-60696034D01*
X134144470Y-60696033D01*
X134144469Y-60696030D01*
X134125162Y-60500000D01*
X134144469Y-60303970D01*
X134144470Y-60303966D01*
X134201651Y-60115465D01*
X134212342Y-60095463D01*
X134294509Y-59941740D01*
X134419472Y-59789472D01*
X134571740Y-59664509D01*
X134745463Y-59571652D01*
X134745465Y-59571651D01*
X134933966Y-59514470D01*
X134933967Y-59514470D01*
X134933970Y-59514469D01*
X135080876Y-59500000D01*
X135179124Y-59500000D01*
X135326030Y-59514469D01*
X135326030Y-59514469D01*
G37*
G36*
X114716030Y-59494469D02*
X114716033Y-59494470D01*
X114716034Y-59494470D01*
X114904535Y-59551651D01*
X114904537Y-59551652D01*
X115078260Y-59644509D01*
X115230528Y-59769472D01*
X115355491Y-59921740D01*
X115448348Y-60095463D01*
X115505531Y-60283970D01*
X115524838Y-60480000D01*
X115505531Y-60676030D01*
X115505530Y-60676033D01*
X115505530Y-60676034D01*
X115461599Y-60820857D01*
X115448348Y-60864537D01*
X115355491Y-61038260D01*
X115230528Y-61190528D01*
X115078260Y-61315491D01*
X115078258Y-61315492D01*
X114904535Y-61408349D01*
X114716034Y-61465530D01*
X114716033Y-61465530D01*
X114716030Y-61465531D01*
X114569124Y-61480000D01*
X113670876Y-61480000D01*
X113523970Y-61465531D01*
X113523967Y-61465530D01*
X113523966Y-61465530D01*
X113335465Y-61408349D01*
X113161742Y-61315492D01*
X113161740Y-61315491D01*
X113009472Y-61190528D01*
X112884509Y-61038260D01*
X112791652Y-60864537D01*
X112778402Y-60820857D01*
X112734470Y-60676034D01*
X112734470Y-60676033D01*
X112734469Y-60676030D01*
X112715162Y-60480000D01*
X112734469Y-60283970D01*
X112791652Y-60095463D01*
X112884509Y-59921740D01*
X113009472Y-59769472D01*
X113161740Y-59644509D01*
X113335463Y-59551652D01*
X113335465Y-59551651D01*
X113523966Y-59494470D01*
X113523967Y-59494470D01*
X113523970Y-59494469D01*
X113670876Y-59480000D01*
X114569124Y-59480000D01*
X114716030Y-59494469D01*
X114716030Y-59494469D01*
G37*
G36*
X107096030Y-59494469D02*
X107096033Y-59494470D01*
X107096034Y-59494470D01*
X107284535Y-59551651D01*
X107284537Y-59551652D01*
X107458260Y-59644509D01*
X107610528Y-59769472D01*
X107735491Y-59921740D01*
X107828348Y-60095463D01*
X107885531Y-60283970D01*
X107904838Y-60480000D01*
X107885531Y-60676030D01*
X107885530Y-60676033D01*
X107885530Y-60676034D01*
X107841599Y-60820857D01*
X107828348Y-60864537D01*
X107735491Y-61038260D01*
X107610528Y-61190528D01*
X107458260Y-61315491D01*
X107458258Y-61315492D01*
X107284535Y-61408349D01*
X107096034Y-61465530D01*
X107096033Y-61465530D01*
X107096030Y-61465531D01*
X106949124Y-61480000D01*
X106050876Y-61480000D01*
X105903970Y-61465531D01*
X105903967Y-61465530D01*
X105903966Y-61465530D01*
X105715465Y-61408349D01*
X105541742Y-61315492D01*
X105541740Y-61315491D01*
X105389472Y-61190528D01*
X105264509Y-61038260D01*
X105171652Y-60864537D01*
X105158402Y-60820857D01*
X105114470Y-60676034D01*
X105114470Y-60676033D01*
X105114469Y-60676030D01*
X105095162Y-60480000D01*
X105114469Y-60283970D01*
X105171652Y-60095463D01*
X105264509Y-59921740D01*
X105389472Y-59769472D01*
X105541740Y-59644509D01*
X105715463Y-59551652D01*
X105715465Y-59551651D01*
X105903966Y-59494470D01*
X105903967Y-59494470D01*
X105903970Y-59494469D01*
X106050876Y-59480000D01*
X106949124Y-59480000D01*
X107096030Y-59494469D01*
X107096030Y-59494469D01*
G37*
G36*
X184141716Y-56484544D02*
X184542090Y-56650384D01*
X184902421Y-56891150D01*
X185208850Y-57197579D01*
X185449616Y-57557910D01*
X185615456Y-57958284D01*
X185700000Y-58383317D01*
X185700000Y-58816683D01*
X185615456Y-59241716D01*
X185449616Y-59642090D01*
X185208850Y-60002421D01*
X184902421Y-60308850D01*
X184542090Y-60549616D01*
X184141716Y-60715456D01*
X183716683Y-60800000D01*
X183283317Y-60800000D01*
X182858284Y-60715456D01*
X182457910Y-60549616D01*
X182097579Y-60308850D01*
X181791150Y-60002421D01*
X181550384Y-59642090D01*
X181384544Y-59241716D01*
X181300000Y-58816683D01*
X181300000Y-58383317D01*
X181384544Y-57958284D01*
X181550384Y-57557910D01*
X181791150Y-57197579D01*
X182097579Y-56891150D01*
X182457910Y-56650384D01*
X182858284Y-56484544D01*
X183283317Y-56400000D01*
X183716683Y-56400000D01*
X184141716Y-56484544D01*
X184141716Y-56484544D01*
G37*
G36*
X97141716Y-56484544D02*
X97542090Y-56650384D01*
X97902421Y-56891150D01*
X98208850Y-57197579D01*
X98449616Y-57557910D01*
X98615456Y-57958284D01*
X98700000Y-58383317D01*
X98700000Y-58816683D01*
X98615456Y-59241716D01*
X98449616Y-59642090D01*
X98208850Y-60002421D01*
X97902421Y-60308850D01*
X97542090Y-60549616D01*
X97141716Y-60715456D01*
X96716683Y-60800000D01*
X96283317Y-60800000D01*
X95858284Y-60715456D01*
X95457910Y-60549616D01*
X95097579Y-60308850D01*
X94791150Y-60002421D01*
X94550384Y-59642090D01*
X94384544Y-59241716D01*
X94300000Y-58816683D01*
X94300000Y-58383317D01*
X94384544Y-57958284D01*
X94550384Y-57557910D01*
X94791150Y-57197579D01*
X95097579Y-56891150D01*
X95457910Y-56650384D01*
X95858284Y-56484544D01*
X96283317Y-56400000D01*
X96716683Y-56400000D01*
X97141716Y-56484544D01*
X97141716Y-56484544D01*
G37*
G36*
X126141716Y-56384544D02*
X126542090Y-56550384D01*
X126902421Y-56791150D01*
X127208850Y-57097579D01*
X127449616Y-57457910D01*
X127615456Y-57858284D01*
X127700000Y-58283317D01*
X127700000Y-58716683D01*
X127615456Y-59141716D01*
X127449616Y-59542090D01*
X127208850Y-59902421D01*
X126902421Y-60208850D01*
X126542090Y-60449616D01*
X126141716Y-60615456D01*
X125716683Y-60700000D01*
X125283317Y-60700000D01*
X124858284Y-60615456D01*
X124457910Y-60449616D01*
X124097579Y-60208850D01*
X123791150Y-59902421D01*
X123550384Y-59542090D01*
X123384544Y-59141716D01*
X123300000Y-58716683D01*
X123300000Y-58283317D01*
X123384544Y-57858284D01*
X123550384Y-57457910D01*
X123791150Y-57097579D01*
X124097579Y-56791150D01*
X124457910Y-56550384D01*
X124858284Y-56384544D01*
X125283317Y-56300000D01*
X125716683Y-56300000D01*
X126141716Y-56384544D01*
X126141716Y-56384544D01*
G37*
G36*
X173750026Y-56946115D02*
X173968412Y-57036573D01*
X174164958Y-57167901D01*
X174332099Y-57335042D01*
X174463427Y-57531588D01*
X174553885Y-57749974D01*
X174600000Y-57981809D01*
X174600000Y-58218191D01*
X174553885Y-58450026D01*
X174463427Y-58668412D01*
X174332099Y-58864958D01*
X174164958Y-59032099D01*
X173968412Y-59163427D01*
X173750026Y-59253885D01*
X173518191Y-59300000D01*
X173281809Y-59300000D01*
X173049974Y-59253885D01*
X172831588Y-59163427D01*
X172635042Y-59032099D01*
X172467901Y-58864958D01*
X172336573Y-58668412D01*
X172246115Y-58450026D01*
X172200000Y-58218191D01*
X172200000Y-57981809D01*
X172246115Y-57749974D01*
X172336573Y-57531588D01*
X172467901Y-57335042D01*
X172635042Y-57167901D01*
X172831588Y-57036573D01*
X173049974Y-56946115D01*
X173281809Y-56900000D01*
X173518191Y-56900000D01*
X173750026Y-56946115D01*
X173750026Y-56946115D01*
G37*
G36*
X163450026Y-56096115D02*
X163668412Y-56186573D01*
X163864958Y-56317901D01*
X164032099Y-56485042D01*
X164163427Y-56681588D01*
X164253885Y-56899974D01*
X164300000Y-57131809D01*
X164300000Y-57368191D01*
X164253885Y-57600026D01*
X164163427Y-57818412D01*
X164032099Y-58014958D01*
X163864958Y-58182099D01*
X163668412Y-58313427D01*
X163450026Y-58403885D01*
X163218191Y-58450000D01*
X162981809Y-58450000D01*
X162749974Y-58403885D01*
X162531588Y-58313427D01*
X162335042Y-58182099D01*
X162167901Y-58014958D01*
X162036573Y-57818412D01*
X161946115Y-57600026D01*
X161900000Y-57368191D01*
X161900000Y-57131809D01*
X161946115Y-56899974D01*
X162036573Y-56681588D01*
X162167901Y-56485042D01*
X162335042Y-56317901D01*
X162531588Y-56186573D01*
X162749974Y-56096115D01*
X162981809Y-56050000D01*
X163218191Y-56050000D01*
X163450026Y-56096115D01*
X163450026Y-56096115D01*
G37*
G36*
X142950026Y-55746115D02*
X143168412Y-55836573D01*
X143364958Y-55967901D01*
X143532099Y-56135042D01*
X143663427Y-56331588D01*
X143753885Y-56549974D01*
X143800000Y-56781809D01*
X143800000Y-57018191D01*
X143753885Y-57250026D01*
X143663427Y-57468412D01*
X143532099Y-57664958D01*
X143364958Y-57832099D01*
X143168412Y-57963427D01*
X142950026Y-58053885D01*
X142718191Y-58100000D01*
X142481809Y-58100000D01*
X142249974Y-58053885D01*
X142031588Y-57963427D01*
X141835042Y-57832099D01*
X141667901Y-57664958D01*
X141536573Y-57468412D01*
X141446115Y-57250026D01*
X141400000Y-57018191D01*
X141400000Y-56781809D01*
X141446115Y-56549974D01*
X141536573Y-56331588D01*
X141667901Y-56135042D01*
X141835042Y-55967901D01*
X142031588Y-55836573D01*
X142249974Y-55746115D01*
X142481809Y-55700000D01*
X142718191Y-55700000D01*
X142950026Y-55746115D01*
X142950026Y-55746115D01*
G37*
G36*
X150750026Y-55746115D02*
X150968412Y-55836573D01*
X151164958Y-55967901D01*
X151332099Y-56135042D01*
X151463427Y-56331588D01*
X151553885Y-56549974D01*
X151600000Y-56781809D01*
X151600000Y-57018191D01*
X151553885Y-57250026D01*
X151463427Y-57468412D01*
X151332099Y-57664958D01*
X151164958Y-57832099D01*
X150968412Y-57963427D01*
X150750026Y-58053885D01*
X150518191Y-58100000D01*
X150281809Y-58100000D01*
X150049974Y-58053885D01*
X149831588Y-57963427D01*
X149635042Y-57832099D01*
X149467901Y-57664958D01*
X149336573Y-57468412D01*
X149246115Y-57250026D01*
X149200000Y-57018191D01*
X149200000Y-56781809D01*
X149246115Y-56549974D01*
X149336573Y-56331588D01*
X149467901Y-56135042D01*
X149635042Y-55967901D01*
X149831588Y-55836573D01*
X150049974Y-55746115D01*
X150281809Y-55700000D01*
X150518191Y-55700000D01*
X150750026Y-55746115D01*
X150750026Y-55746115D01*
G37*
G36*
X103100026Y-55346115D02*
X103318412Y-55436573D01*
X103514958Y-55567901D01*
X103682099Y-55735042D01*
X103813427Y-55931588D01*
X103903885Y-56149974D01*
X103950000Y-56381809D01*
X103950000Y-56618191D01*
X103903885Y-56850026D01*
X103813427Y-57068412D01*
X103682099Y-57264958D01*
X103514958Y-57432099D01*
X103318412Y-57563427D01*
X103100026Y-57653885D01*
X102868191Y-57700000D01*
X102631809Y-57700000D01*
X102399974Y-57653885D01*
X102181588Y-57563427D01*
X101985042Y-57432099D01*
X101817901Y-57264958D01*
X101686573Y-57068412D01*
X101596115Y-56850026D01*
X101550000Y-56618191D01*
X101550000Y-56381809D01*
X101596115Y-56149974D01*
X101686573Y-55931588D01*
X101817901Y-55735042D01*
X101985042Y-55567901D01*
X102181588Y-55436573D01*
X102399974Y-55346115D01*
X102631809Y-55300000D01*
X102868191Y-55300000D01*
X103100026Y-55346115D01*
X103100026Y-55346115D01*
G37*
G36*
X106850026Y-55346115D02*
X107068412Y-55436573D01*
X107264958Y-55567901D01*
X107432099Y-55735042D01*
X107563427Y-55931588D01*
X107653885Y-56149974D01*
X107700000Y-56381809D01*
X107700000Y-56618191D01*
X107653885Y-56850026D01*
X107563427Y-57068412D01*
X107432099Y-57264958D01*
X107264958Y-57432099D01*
X107068412Y-57563427D01*
X106850026Y-57653885D01*
X106618191Y-57700000D01*
X106381809Y-57700000D01*
X106149974Y-57653885D01*
X105931588Y-57563427D01*
X105735042Y-57432099D01*
X105567901Y-57264958D01*
X105436573Y-57068412D01*
X105346115Y-56850026D01*
X105300000Y-56618191D01*
X105300000Y-56381809D01*
X105346115Y-56149974D01*
X105436573Y-55931588D01*
X105567901Y-55735042D01*
X105735042Y-55567901D01*
X105931588Y-55436573D01*
X106149974Y-55346115D01*
X106381809Y-55300000D01*
X106618191Y-55300000D01*
X106850026Y-55346115D01*
X106850026Y-55346115D01*
G37*
G36*
X114350026Y-55346115D02*
X114568412Y-55436573D01*
X114764958Y-55567901D01*
X114932099Y-55735042D01*
X115063427Y-55931588D01*
X115153885Y-56149974D01*
X115200000Y-56381809D01*
X115200000Y-56618191D01*
X115153885Y-56850026D01*
X115063427Y-57068412D01*
X114932099Y-57264958D01*
X114764958Y-57432099D01*
X114568412Y-57563427D01*
X114350026Y-57653885D01*
X114118191Y-57700000D01*
X113881809Y-57700000D01*
X113649974Y-57653885D01*
X113431588Y-57563427D01*
X113235042Y-57432099D01*
X113067901Y-57264958D01*
X112936573Y-57068412D01*
X112846115Y-56850026D01*
X112800000Y-56618191D01*
X112800000Y-56381809D01*
X112846115Y-56149974D01*
X112936573Y-55931588D01*
X113067901Y-55735042D01*
X113235042Y-55567901D01*
X113431588Y-55436573D01*
X113649974Y-55346115D01*
X113881809Y-55300000D01*
X114118191Y-55300000D01*
X114350026Y-55346115D01*
X114350026Y-55346115D01*
G37*
G36*
X173750026Y-53546115D02*
X173968412Y-53636573D01*
X174164958Y-53767901D01*
X174332099Y-53935042D01*
X174463427Y-54131588D01*
X174553885Y-54349974D01*
X174600000Y-54581809D01*
X174600000Y-54818191D01*
X174553885Y-55050026D01*
X174463427Y-55268412D01*
X174332099Y-55464958D01*
X174164958Y-55632099D01*
X173968412Y-55763427D01*
X173750026Y-55853885D01*
X173518191Y-55900000D01*
X173281809Y-55900000D01*
X173049974Y-55853885D01*
X172831588Y-55763427D01*
X172635042Y-55632099D01*
X172467901Y-55464958D01*
X172336573Y-55268412D01*
X172246115Y-55050026D01*
X172200000Y-54818191D01*
X172200000Y-54581809D01*
X172246115Y-54349974D01*
X172336573Y-54131588D01*
X172467901Y-53935042D01*
X172635042Y-53767901D01*
X172831588Y-53636573D01*
X173049974Y-53546115D01*
X173281809Y-53500000D01*
X173518191Y-53500000D01*
X173750026Y-53546115D01*
X173750026Y-53546115D01*
G37*
G36*
X126850026Y-53246115D02*
X127068412Y-53336573D01*
X127264958Y-53467901D01*
X127432099Y-53635042D01*
X127563427Y-53831588D01*
X127653885Y-54049974D01*
X127700000Y-54281809D01*
X127700000Y-54518191D01*
X127653885Y-54750026D01*
X127563427Y-54968412D01*
X127432099Y-55164958D01*
X127264958Y-55332099D01*
X127068412Y-55463427D01*
X126850026Y-55553885D01*
X126618191Y-55600000D01*
X126381809Y-55600000D01*
X126149974Y-55553885D01*
X125931588Y-55463427D01*
X125735042Y-55332099D01*
X125567901Y-55164958D01*
X125436573Y-54968412D01*
X125346115Y-54750026D01*
X125300000Y-54518191D01*
X125300000Y-54281809D01*
X125346115Y-54049974D01*
X125436573Y-53831588D01*
X125567901Y-53635042D01*
X125735042Y-53467901D01*
X125931588Y-53336573D01*
X126149974Y-53246115D01*
X126381809Y-53200000D01*
X126618191Y-53200000D01*
X126850026Y-53246115D01*
X126850026Y-53246115D01*
G37*
G36*
X131850026Y-53246115D02*
X132068412Y-53336573D01*
X132264958Y-53467901D01*
X132432099Y-53635042D01*
X132563427Y-53831588D01*
X132653885Y-54049974D01*
X132700000Y-54281809D01*
X132700000Y-54518191D01*
X132653885Y-54750026D01*
X132563427Y-54968412D01*
X132432099Y-55164958D01*
X132264958Y-55332099D01*
X132068412Y-55463427D01*
X131850026Y-55553885D01*
X131618191Y-55600000D01*
X131381809Y-55600000D01*
X131149974Y-55553885D01*
X130931588Y-55463427D01*
X130735042Y-55332099D01*
X130567901Y-55164958D01*
X130436573Y-54968412D01*
X130346115Y-54750026D01*
X130300000Y-54518191D01*
X130300000Y-54281809D01*
X130346115Y-54049974D01*
X130436573Y-53831588D01*
X130567901Y-53635042D01*
X130735042Y-53467901D01*
X130931588Y-53336573D01*
X131149974Y-53246115D01*
X131381809Y-53200000D01*
X131618191Y-53200000D01*
X131850026Y-53246115D01*
X131850026Y-53246115D01*
G37*
G36*
X137826030Y-51734469D02*
X137826033Y-51734470D01*
X137826034Y-51734470D01*
X138014535Y-51791651D01*
X138014537Y-51791652D01*
X138188260Y-51884509D01*
X138340528Y-52009472D01*
X138465491Y-52161740D01*
X138558349Y-52335464D01*
X138615531Y-52523969D01*
X138630000Y-52670877D01*
X138630000Y-53569124D01*
X138615531Y-53716030D01*
X138615530Y-53716033D01*
X138615530Y-53716034D01*
X138614809Y-53718412D01*
X138558348Y-53904537D01*
X138465491Y-54078260D01*
X138340528Y-54230528D01*
X138188258Y-54355493D01*
X138014539Y-54448347D01*
X138014536Y-54448348D01*
X138014534Y-54448349D01*
X137826033Y-54505530D01*
X137826032Y-54505530D01*
X137826029Y-54505531D01*
X137630000Y-54524838D01*
X137433970Y-54505531D01*
X137433967Y-54505530D01*
X137433966Y-54505530D01*
X137245465Y-54448349D01*
X137071742Y-54355492D01*
X137071740Y-54355491D01*
X136919472Y-54230528D01*
X136794507Y-54078258D01*
X136701653Y-53904539D01*
X136679524Y-53831588D01*
X136644470Y-53716033D01*
X136644470Y-53716032D01*
X136644469Y-53716029D01*
X136630000Y-53569123D01*
X136630000Y-52670876D01*
X136644469Y-52523965D01*
X136701651Y-52335467D01*
X136794510Y-52161740D01*
X136919473Y-52009472D01*
X137071741Y-51884509D01*
X137245464Y-51791652D01*
X137245466Y-51791651D01*
X137433967Y-51734470D01*
X137433968Y-51734470D01*
X137433971Y-51734469D01*
X137630000Y-51715162D01*
X137826030Y-51734469D01*
X137826030Y-51734469D01*
G37*
G36*
X142906030Y-51734469D02*
X142906033Y-51734470D01*
X142906034Y-51734470D01*
X143094535Y-51791651D01*
X143094537Y-51791652D01*
X143268260Y-51884509D01*
X143420528Y-52009472D01*
X143545491Y-52161740D01*
X143638349Y-52335464D01*
X143695531Y-52523969D01*
X143710000Y-52670877D01*
X143710000Y-53569124D01*
X143695531Y-53716030D01*
X143695530Y-53716033D01*
X143695530Y-53716034D01*
X143694809Y-53718412D01*
X143638348Y-53904537D01*
X143545491Y-54078260D01*
X143420528Y-54230528D01*
X143268258Y-54355493D01*
X143094539Y-54448347D01*
X143094536Y-54448348D01*
X143094534Y-54448349D01*
X142906033Y-54505530D01*
X142906032Y-54505530D01*
X142906029Y-54505531D01*
X142710000Y-54524838D01*
X142513970Y-54505531D01*
X142513967Y-54505530D01*
X142513966Y-54505530D01*
X142325465Y-54448349D01*
X142151742Y-54355492D01*
X142151740Y-54355491D01*
X141999472Y-54230528D01*
X141874507Y-54078258D01*
X141781653Y-53904539D01*
X141759524Y-53831588D01*
X141724470Y-53716033D01*
X141724470Y-53716032D01*
X141724469Y-53716029D01*
X141710000Y-53569123D01*
X141710000Y-52670876D01*
X141724469Y-52523965D01*
X141781651Y-52335467D01*
X141874510Y-52161740D01*
X141999473Y-52009472D01*
X142151741Y-51884509D01*
X142325464Y-51791652D01*
X142325466Y-51791651D01*
X142513967Y-51734470D01*
X142513968Y-51734470D01*
X142513971Y-51734469D01*
X142710000Y-51715162D01*
X142906030Y-51734469D01*
X142906030Y-51734469D01*
G37*
G36*
X145446030Y-51734469D02*
X145446033Y-51734470D01*
X145446034Y-51734470D01*
X145634535Y-51791651D01*
X145634537Y-51791652D01*
X145808260Y-51884509D01*
X145960528Y-52009472D01*
X146085491Y-52161740D01*
X146178349Y-52335464D01*
X146235531Y-52523969D01*
X146250000Y-52670877D01*
X146250000Y-53569124D01*
X146235531Y-53716030D01*
X146235530Y-53716033D01*
X146235530Y-53716034D01*
X146234809Y-53718412D01*
X146178348Y-53904537D01*
X146085491Y-54078260D01*
X145960528Y-54230528D01*
X145808258Y-54355493D01*
X145634539Y-54448347D01*
X145634536Y-54448348D01*
X145634534Y-54448349D01*
X145446033Y-54505530D01*
X145446032Y-54505530D01*
X145446029Y-54505531D01*
X145250000Y-54524838D01*
X145053970Y-54505531D01*
X145053967Y-54505530D01*
X145053966Y-54505530D01*
X144865465Y-54448349D01*
X144691742Y-54355492D01*
X144691740Y-54355491D01*
X144539472Y-54230528D01*
X144414507Y-54078258D01*
X144321653Y-53904539D01*
X144299524Y-53831588D01*
X144264470Y-53716033D01*
X144264470Y-53716032D01*
X144264469Y-53716029D01*
X144250000Y-53569123D01*
X144250000Y-52670876D01*
X144264469Y-52523965D01*
X144321651Y-52335467D01*
X144414510Y-52161740D01*
X144539473Y-52009472D01*
X144691741Y-51884509D01*
X144865464Y-51791652D01*
X144865466Y-51791651D01*
X145053967Y-51734470D01*
X145053968Y-51734470D01*
X145053971Y-51734469D01*
X145250000Y-51715162D01*
X145446030Y-51734469D01*
X145446030Y-51734469D01*
G37*
G36*
X140366030Y-51734469D02*
X140366033Y-51734470D01*
X140366034Y-51734470D01*
X140554535Y-51791651D01*
X140554537Y-51791652D01*
X140728260Y-51884509D01*
X140880528Y-52009472D01*
X141005491Y-52161740D01*
X141098349Y-52335464D01*
X141155531Y-52523969D01*
X141170000Y-52670877D01*
X141170000Y-53569124D01*
X141155531Y-53716030D01*
X141155530Y-53716033D01*
X141155530Y-53716034D01*
X141154809Y-53718412D01*
X141098348Y-53904537D01*
X141005491Y-54078260D01*
X140880528Y-54230528D01*
X140728258Y-54355493D01*
X140554539Y-54448347D01*
X140554536Y-54448348D01*
X140554534Y-54448349D01*
X140366033Y-54505530D01*
X140366032Y-54505530D01*
X140366029Y-54505531D01*
X140170000Y-54524838D01*
X139973970Y-54505531D01*
X139973967Y-54505530D01*
X139973966Y-54505530D01*
X139785465Y-54448349D01*
X139611742Y-54355492D01*
X139611740Y-54355491D01*
X139459472Y-54230528D01*
X139334507Y-54078258D01*
X139241653Y-53904539D01*
X139219524Y-53831588D01*
X139184470Y-53716033D01*
X139184470Y-53716032D01*
X139184469Y-53716029D01*
X139170000Y-53569123D01*
X139170000Y-52670876D01*
X139184469Y-52523965D01*
X139241651Y-52335467D01*
X139334510Y-52161740D01*
X139459473Y-52009472D01*
X139611741Y-51884509D01*
X139785464Y-51791652D01*
X139785466Y-51791651D01*
X139973967Y-51734470D01*
X139973968Y-51734470D01*
X139973971Y-51734469D01*
X140170000Y-51715162D01*
X140366030Y-51734469D01*
X140366030Y-51734469D01*
G37*
G36*
X160650026Y-51996115D02*
X160868412Y-52086573D01*
X161064958Y-52217901D01*
X161232099Y-52385042D01*
X161363427Y-52581588D01*
X161453885Y-52799974D01*
X161500000Y-53031809D01*
X161500000Y-53268191D01*
X161453885Y-53500026D01*
X161363427Y-53718412D01*
X161232099Y-53914958D01*
X161064958Y-54082099D01*
X160868412Y-54213427D01*
X160650026Y-54303885D01*
X160418191Y-54350000D01*
X160181809Y-54350000D01*
X159949974Y-54303885D01*
X159731588Y-54213427D01*
X159535042Y-54082099D01*
X159367901Y-53914958D01*
X159236573Y-53718412D01*
X159146115Y-53500026D01*
X159100000Y-53268191D01*
X159100000Y-53031809D01*
X159146115Y-52799974D01*
X159236573Y-52581588D01*
X159367901Y-52385042D01*
X159535042Y-52217901D01*
X159731588Y-52086573D01*
X159949974Y-51996115D01*
X160181809Y-51950000D01*
X160418191Y-51950000D01*
X160650026Y-51996115D01*
X160650026Y-51996115D01*
G37*
G36*
X152850026Y-51996115D02*
X153068412Y-52086573D01*
X153264958Y-52217901D01*
X153432099Y-52385042D01*
X153563427Y-52581588D01*
X153653885Y-52799974D01*
X153700000Y-53031809D01*
X153700000Y-53268191D01*
X153653885Y-53500026D01*
X153563427Y-53718412D01*
X153432099Y-53914958D01*
X153264958Y-54082099D01*
X153068412Y-54213427D01*
X152850026Y-54303885D01*
X152618191Y-54350000D01*
X152381809Y-54350000D01*
X152149974Y-54303885D01*
X151931588Y-54213427D01*
X151735042Y-54082099D01*
X151567901Y-53914958D01*
X151436573Y-53718412D01*
X151346115Y-53500026D01*
X151300000Y-53268191D01*
X151300000Y-53031809D01*
X151346115Y-52799974D01*
X151436573Y-52581588D01*
X151567901Y-52385042D01*
X151735042Y-52217901D01*
X151931588Y-52086573D01*
X152149974Y-51996115D01*
X152381809Y-51950000D01*
X152618191Y-51950000D01*
X152850026Y-51996115D01*
X152850026Y-51996115D01*
G37*
G36*
X103100026Y-50346115D02*
X103318412Y-50436573D01*
X103514958Y-50567901D01*
X103682099Y-50735042D01*
X103813427Y-50931588D01*
X103903885Y-51149974D01*
X103950000Y-51381809D01*
X103950000Y-51618191D01*
X103903885Y-51850026D01*
X103813427Y-52068412D01*
X103682099Y-52264958D01*
X103514958Y-52432099D01*
X103318412Y-52563427D01*
X103100026Y-52653885D01*
X102868191Y-52700000D01*
X102631809Y-52700000D01*
X102399974Y-52653885D01*
X102181588Y-52563427D01*
X101985042Y-52432099D01*
X101817901Y-52264958D01*
X101686573Y-52068412D01*
X101596115Y-51850026D01*
X101550000Y-51618191D01*
X101550000Y-51381809D01*
X101596115Y-51149974D01*
X101686573Y-50931588D01*
X101817901Y-50735042D01*
X101985042Y-50567901D01*
X102181588Y-50436573D01*
X102399974Y-50346115D01*
X102631809Y-50300000D01*
X102868191Y-50300000D01*
X103100026Y-50346115D01*
X103100026Y-50346115D01*
G37*
G36*
X106850026Y-50346115D02*
X107068412Y-50436573D01*
X107264958Y-50567901D01*
X107432099Y-50735042D01*
X107563427Y-50931588D01*
X107653885Y-51149974D01*
X107700000Y-51381809D01*
X107700000Y-51618191D01*
X107653885Y-51850026D01*
X107563427Y-52068412D01*
X107432099Y-52264958D01*
X107264958Y-52432099D01*
X107068412Y-52563427D01*
X106850026Y-52653885D01*
X106618191Y-52700000D01*
X106381809Y-52700000D01*
X106149974Y-52653885D01*
X105931588Y-52563427D01*
X105735042Y-52432099D01*
X105567901Y-52264958D01*
X105436573Y-52068412D01*
X105346115Y-51850026D01*
X105300000Y-51618191D01*
X105300000Y-51381809D01*
X105346115Y-51149974D01*
X105436573Y-50931588D01*
X105567901Y-50735042D01*
X105735042Y-50567901D01*
X105931588Y-50436573D01*
X106149974Y-50346115D01*
X106381809Y-50300000D01*
X106618191Y-50300000D01*
X106850026Y-50346115D01*
X106850026Y-50346115D01*
G37*
G36*
X114350026Y-50346115D02*
X114568412Y-50436573D01*
X114764958Y-50567901D01*
X114932099Y-50735042D01*
X115063427Y-50931588D01*
X115153885Y-51149974D01*
X115200000Y-51381809D01*
X115200000Y-51618191D01*
X115153885Y-51850026D01*
X115063427Y-52068412D01*
X114932099Y-52264958D01*
X114764958Y-52432099D01*
X114568412Y-52563427D01*
X114350026Y-52653885D01*
X114118191Y-52700000D01*
X113881809Y-52700000D01*
X113649974Y-52653885D01*
X113431588Y-52563427D01*
X113235042Y-52432099D01*
X113067901Y-52264958D01*
X112936573Y-52068412D01*
X112846115Y-51850026D01*
X112800000Y-51618191D01*
X112800000Y-51381809D01*
X112846115Y-51149974D01*
X112936573Y-50931588D01*
X113067901Y-50735042D01*
X113235042Y-50567901D01*
X113431588Y-50436573D01*
X113649974Y-50346115D01*
X113881809Y-50300000D01*
X114118191Y-50300000D01*
X114350026Y-50346115D01*
X114350026Y-50346115D01*
G37*
G36*
X126850026Y-49746115D02*
X127068412Y-49836573D01*
X127264958Y-49967901D01*
X127432099Y-50135042D01*
X127563427Y-50331588D01*
X127653885Y-50549974D01*
X127700000Y-50781809D01*
X127700000Y-51018191D01*
X127653885Y-51250026D01*
X127563427Y-51468412D01*
X127432099Y-51664958D01*
X127264958Y-51832099D01*
X127068412Y-51963427D01*
X126850026Y-52053885D01*
X126618191Y-52100000D01*
X126381809Y-52100000D01*
X126149974Y-52053885D01*
X125931588Y-51963427D01*
X125735042Y-51832099D01*
X125567901Y-51664958D01*
X125436573Y-51468412D01*
X125346115Y-51250026D01*
X125300000Y-51018191D01*
X125300000Y-50781809D01*
X125346115Y-50549974D01*
X125436573Y-50331588D01*
X125567901Y-50135042D01*
X125735042Y-49967901D01*
X125931588Y-49836573D01*
X126149974Y-49746115D01*
X126381809Y-49700000D01*
X126618191Y-49700000D01*
X126850026Y-49746115D01*
X126850026Y-49746115D01*
G37*
G36*
X131850026Y-49746115D02*
X132068412Y-49836573D01*
X132264958Y-49967901D01*
X132432099Y-50135042D01*
X132563427Y-50331588D01*
X132653885Y-50549974D01*
X132700000Y-50781809D01*
X132700000Y-51018191D01*
X132653885Y-51250026D01*
X132563427Y-51468412D01*
X132432099Y-51664958D01*
X132264958Y-51832099D01*
X132068412Y-51963427D01*
X131850026Y-52053885D01*
X131618191Y-52100000D01*
X131381809Y-52100000D01*
X131149974Y-52053885D01*
X130931588Y-51963427D01*
X130735042Y-51832099D01*
X130567901Y-51664958D01*
X130436573Y-51468412D01*
X130346115Y-51250026D01*
X130300000Y-51018191D01*
X130300000Y-50781809D01*
X130346115Y-50549974D01*
X130436573Y-50331588D01*
X130567901Y-50135042D01*
X130735042Y-49967901D01*
X130931588Y-49836573D01*
X131149974Y-49746115D01*
X131381809Y-49700000D01*
X131618191Y-49700000D01*
X131850026Y-49746115D01*
X131850026Y-49746115D01*
G37*
G36*
X168404857Y-45557576D02*
X168695834Y-45615455D01*
X168779167Y-45649973D01*
X169005189Y-45743594D01*
X169283607Y-45929627D01*
X169520373Y-46166393D01*
X169706406Y-46444811D01*
X169715969Y-46467899D01*
X169834545Y-46754166D01*
X169849250Y-46828093D01*
X169852402Y-46843939D01*
X169859515Y-46867389D01*
X169871066Y-46888999D01*
X169886612Y-46907941D01*
X169905554Y-46923487D01*
X169927165Y-46935038D01*
X169950614Y-46942151D01*
X169975000Y-46944553D01*
X169999386Y-46942151D01*
X170022836Y-46935038D01*
X170044446Y-46923487D01*
X170063388Y-46907941D01*
X170078934Y-46888999D01*
X170090485Y-46867388D01*
X170097598Y-46843939D01*
X170100750Y-46828093D01*
X170115455Y-46754166D01*
X170234031Y-46467899D01*
X170243594Y-46444811D01*
X170429627Y-46166393D01*
X170666393Y-45929627D01*
X170944811Y-45743594D01*
X171170833Y-45649973D01*
X171254166Y-45615455D01*
X171545143Y-45557576D01*
X171582576Y-45550130D01*
X171917424Y-45550130D01*
X171954857Y-45557576D01*
X172245834Y-45615455D01*
X172329167Y-45649973D01*
X172555189Y-45743594D01*
X172833607Y-45929627D01*
X173070373Y-46166393D01*
X173256406Y-46444811D01*
X173265969Y-46467899D01*
X173384545Y-46754166D01*
X173399301Y-46828348D01*
X173449870Y-47082576D01*
X173449870Y-47417424D01*
X173444963Y-47442091D01*
X173384545Y-47745834D01*
X173382808Y-47750027D01*
X173256406Y-48055189D01*
X173077400Y-48323091D01*
X173065849Y-48344702D01*
X173058736Y-48368151D01*
X173056334Y-48392537D01*
X173058736Y-48416923D01*
X173065849Y-48440372D01*
X173077400Y-48461983D01*
X173092946Y-48480925D01*
X173111888Y-48496471D01*
X173133499Y-48508022D01*
X173156948Y-48515135D01*
X173181334Y-48517537D01*
X173205720Y-48515135D01*
X173281809Y-48500000D01*
X173518191Y-48500000D01*
X173750026Y-48546115D01*
X173968412Y-48636573D01*
X174164958Y-48767901D01*
X174332099Y-48935042D01*
X174463427Y-49131588D01*
X174553885Y-49349974D01*
X174600000Y-49581809D01*
X174600000Y-49818191D01*
X174553885Y-50050026D01*
X174463427Y-50268412D01*
X174332099Y-50464958D01*
X174164958Y-50632099D01*
X173968412Y-50763427D01*
X173750026Y-50853885D01*
X173518191Y-50900000D01*
X173281809Y-50900000D01*
X173049974Y-50853885D01*
X172831588Y-50763427D01*
X172635042Y-50632099D01*
X172467901Y-50464958D01*
X172336573Y-50268412D01*
X172246115Y-50050026D01*
X172200000Y-49818191D01*
X172200000Y-49581809D01*
X172246115Y-49349974D01*
X172336573Y-49131587D01*
X172373194Y-49076781D01*
X172384746Y-49055170D01*
X172391859Y-49031721D01*
X172394261Y-49007335D01*
X172391859Y-48982949D01*
X172384746Y-48959499D01*
X172373195Y-48937888D01*
X172357650Y-48918946D01*
X172338708Y-48903401D01*
X172317097Y-48891849D01*
X172293648Y-48884736D01*
X172269262Y-48882334D01*
X172244875Y-48884736D01*
X171917424Y-48949870D01*
X171582576Y-48949870D01*
X171290886Y-48891849D01*
X171254166Y-48884545D01*
X171047138Y-48798791D01*
X170944811Y-48756406D01*
X170666393Y-48570373D01*
X170429627Y-48333607D01*
X170243594Y-48055189D01*
X170117192Y-47750027D01*
X170115455Y-47745834D01*
X170097598Y-47656061D01*
X170090485Y-47632611D01*
X170078934Y-47611001D01*
X170063388Y-47592059D01*
X170044446Y-47576513D01*
X170022835Y-47564962D01*
X169999386Y-47557849D01*
X169975000Y-47555447D01*
X169950614Y-47557849D01*
X169927164Y-47564962D01*
X169905554Y-47576513D01*
X169886612Y-47592059D01*
X169871066Y-47611001D01*
X169859515Y-47632612D01*
X169852402Y-47656061D01*
X169834545Y-47745834D01*
X169832808Y-47750027D01*
X169706406Y-48055189D01*
X169520373Y-48333607D01*
X169283607Y-48570373D01*
X169005189Y-48756406D01*
X168902862Y-48798791D01*
X168695834Y-48884545D01*
X168659114Y-48891849D01*
X168367424Y-48949870D01*
X168032576Y-48949870D01*
X167740886Y-48891849D01*
X167704166Y-48884545D01*
X167497138Y-48798791D01*
X167394811Y-48756406D01*
X167116393Y-48570373D01*
X166879627Y-48333607D01*
X166693594Y-48055189D01*
X166567192Y-47750027D01*
X166565455Y-47745834D01*
X166505037Y-47442091D01*
X166500130Y-47417424D01*
X166500130Y-47082576D01*
X166550699Y-46828348D01*
X166565455Y-46754166D01*
X166684031Y-46467899D01*
X166693594Y-46444811D01*
X166879627Y-46166393D01*
X167116393Y-45929627D01*
X167394811Y-45743594D01*
X167620833Y-45649973D01*
X167704166Y-45615455D01*
X167995143Y-45557576D01*
X168032576Y-45550130D01*
X168367424Y-45550130D01*
X168404857Y-45557576D01*
X168404857Y-45557576D01*
G37*
G36*
X163450026Y-48296115D02*
X163668412Y-48386573D01*
X163864958Y-48517901D01*
X164032099Y-48685042D01*
X164163427Y-48881588D01*
X164253885Y-49099974D01*
X164300000Y-49331809D01*
X164300000Y-49568191D01*
X164253885Y-49800026D01*
X164163427Y-50018412D01*
X164032099Y-50214958D01*
X163864958Y-50382099D01*
X163668412Y-50513427D01*
X163450026Y-50603885D01*
X163218191Y-50650000D01*
X162981809Y-50650000D01*
X162749974Y-50603885D01*
X162531588Y-50513427D01*
X162335042Y-50382099D01*
X162167901Y-50214958D01*
X162036573Y-50018412D01*
X161946115Y-49800026D01*
X161900000Y-49568191D01*
X161900000Y-49331809D01*
X161946115Y-49099974D01*
X162036573Y-48881588D01*
X162167901Y-48685042D01*
X162335042Y-48517901D01*
X162531588Y-48386573D01*
X162749974Y-48296115D01*
X162981809Y-48250000D01*
X163218191Y-48250000D01*
X163450026Y-48296115D01*
X163450026Y-48296115D01*
G37*
G36*
X152820857Y-48442272D02*
X153021042Y-48525191D01*
X153021045Y-48525193D01*
X153187737Y-48636573D01*
X153201213Y-48645578D01*
X153354422Y-48798787D01*
X153354424Y-48798790D01*
X153354425Y-48798791D01*
X153424323Y-48903401D01*
X153474809Y-48978958D01*
X153557728Y-49179143D01*
X153600000Y-49391658D01*
X153600000Y-49608342D01*
X153557728Y-49820857D01*
X153474809Y-50021042D01*
X153354422Y-50201213D01*
X153201213Y-50354422D01*
X153201210Y-50354424D01*
X153201209Y-50354425D01*
X153035785Y-50464958D01*
X153021042Y-50474809D01*
X152820857Y-50557728D01*
X152608342Y-50600000D01*
X152391658Y-50600000D01*
X152179143Y-50557728D01*
X151978958Y-50474809D01*
X151964215Y-50464958D01*
X151798791Y-50354425D01*
X151798790Y-50354424D01*
X151798787Y-50354422D01*
X151645578Y-50201213D01*
X151525191Y-50021042D01*
X151442272Y-49820857D01*
X151400000Y-49608342D01*
X151400000Y-49391658D01*
X151442272Y-49179143D01*
X151525191Y-48978958D01*
X151575677Y-48903401D01*
X151645575Y-48798791D01*
X151645576Y-48798790D01*
X151645578Y-48798787D01*
X151798787Y-48645578D01*
X151812264Y-48636573D01*
X151978955Y-48525193D01*
X151978958Y-48525191D01*
X152179143Y-48442272D01*
X152391658Y-48400000D01*
X152608342Y-48400000D01*
X152820857Y-48442272D01*
X152820857Y-48442272D01*
G37*
G36*
X155320857Y-48442272D02*
X155521042Y-48525191D01*
X155521045Y-48525193D01*
X155687737Y-48636573D01*
X155701213Y-48645578D01*
X155854422Y-48798787D01*
X155854424Y-48798790D01*
X155854425Y-48798791D01*
X155924323Y-48903401D01*
X155974809Y-48978958D01*
X156057728Y-49179143D01*
X156100000Y-49391658D01*
X156100000Y-49608342D01*
X156057728Y-49820857D01*
X155974809Y-50021042D01*
X155854422Y-50201213D01*
X155701213Y-50354422D01*
X155701210Y-50354424D01*
X155701209Y-50354425D01*
X155535785Y-50464958D01*
X155521042Y-50474809D01*
X155320857Y-50557728D01*
X155108342Y-50600000D01*
X154891658Y-50600000D01*
X154679143Y-50557728D01*
X154478958Y-50474809D01*
X154464215Y-50464958D01*
X154298791Y-50354425D01*
X154298790Y-50354424D01*
X154298787Y-50354422D01*
X154145578Y-50201213D01*
X154025191Y-50021042D01*
X153942272Y-49820857D01*
X153900000Y-49608342D01*
X153900000Y-49391658D01*
X153942272Y-49179143D01*
X154025191Y-48978958D01*
X154075677Y-48903401D01*
X154145575Y-48798791D01*
X154145576Y-48798790D01*
X154145578Y-48798787D01*
X154298787Y-48645578D01*
X154312264Y-48636573D01*
X154478955Y-48525193D01*
X154478958Y-48525191D01*
X154679143Y-48442272D01*
X154891658Y-48400000D01*
X155108342Y-48400000D01*
X155320857Y-48442272D01*
X155320857Y-48442272D01*
G37*
G36*
X157820857Y-48442272D02*
X158021042Y-48525191D01*
X158021045Y-48525193D01*
X158187737Y-48636573D01*
X158201213Y-48645578D01*
X158354422Y-48798787D01*
X158354424Y-48798790D01*
X158354425Y-48798791D01*
X158424323Y-48903401D01*
X158474809Y-48978958D01*
X158557728Y-49179143D01*
X158600000Y-49391658D01*
X158600000Y-49608342D01*
X158557728Y-49820857D01*
X158474809Y-50021042D01*
X158354422Y-50201213D01*
X158201213Y-50354422D01*
X158201210Y-50354424D01*
X158201209Y-50354425D01*
X158035785Y-50464958D01*
X158021042Y-50474809D01*
X157820857Y-50557728D01*
X157608342Y-50600000D01*
X157391658Y-50600000D01*
X157179143Y-50557728D01*
X156978958Y-50474809D01*
X156964215Y-50464958D01*
X156798791Y-50354425D01*
X156798790Y-50354424D01*
X156798787Y-50354422D01*
X156645578Y-50201213D01*
X156525191Y-50021042D01*
X156442272Y-49820857D01*
X156400000Y-49608342D01*
X156400000Y-49391658D01*
X156442272Y-49179143D01*
X156525191Y-48978958D01*
X156575677Y-48903401D01*
X156645575Y-48798791D01*
X156645576Y-48798790D01*
X156645578Y-48798787D01*
X156798787Y-48645578D01*
X156812264Y-48636573D01*
X156978955Y-48525193D01*
X156978958Y-48525191D01*
X157179143Y-48442272D01*
X157391658Y-48400000D01*
X157608342Y-48400000D01*
X157820857Y-48442272D01*
X157820857Y-48442272D01*
G37*
G36*
X184141716Y-44284544D02*
X184542090Y-44450384D01*
X184902421Y-44691150D01*
X185208850Y-44997579D01*
X185449616Y-45357910D01*
X185615456Y-45758284D01*
X185700000Y-46183317D01*
X185700000Y-46616683D01*
X185615456Y-47041716D01*
X185449616Y-47442090D01*
X185208850Y-47802421D01*
X184902421Y-48108850D01*
X184542090Y-48349616D01*
X184141716Y-48515456D01*
X183716683Y-48600000D01*
X183283317Y-48600000D01*
X182858284Y-48515456D01*
X182457910Y-48349616D01*
X182097579Y-48108850D01*
X181791150Y-47802421D01*
X181550384Y-47442090D01*
X181384544Y-47041716D01*
X181300000Y-46616683D01*
X181300000Y-46183317D01*
X181384544Y-45758284D01*
X181550384Y-45357910D01*
X181791150Y-44997579D01*
X182097579Y-44691150D01*
X182457910Y-44450384D01*
X182858284Y-44284544D01*
X183283317Y-44200000D01*
X183716683Y-44200000D01*
X184141716Y-44284544D01*
X184141716Y-44284544D01*
G37*
G36*
X131850026Y-46246115D02*
X132068412Y-46336573D01*
X132264958Y-46467901D01*
X132432099Y-46635042D01*
X132563427Y-46831588D01*
X132653885Y-47049974D01*
X132700000Y-47281809D01*
X132700000Y-47518191D01*
X132653885Y-47750026D01*
X132563427Y-47968412D01*
X132432099Y-48164958D01*
X132264958Y-48332099D01*
X132068412Y-48463427D01*
X131850026Y-48553885D01*
X131618191Y-48600000D01*
X131381809Y-48600000D01*
X131149974Y-48553885D01*
X130931588Y-48463427D01*
X130735042Y-48332099D01*
X130567901Y-48164958D01*
X130436573Y-47968412D01*
X130346115Y-47750026D01*
X130300000Y-47518191D01*
X130300000Y-47281809D01*
X130346115Y-47049974D01*
X130436573Y-46831588D01*
X130567901Y-46635042D01*
X130735042Y-46467901D01*
X130931588Y-46336573D01*
X131149974Y-46246115D01*
X131381809Y-46200000D01*
X131618191Y-46200000D01*
X131850026Y-46246115D01*
X131850026Y-46246115D01*
G37*
G36*
X126850026Y-46246115D02*
X127068412Y-46336573D01*
X127264958Y-46467901D01*
X127432099Y-46635042D01*
X127563427Y-46831588D01*
X127653885Y-47049974D01*
X127700000Y-47281809D01*
X127700000Y-47518191D01*
X127653885Y-47750026D01*
X127563427Y-47968412D01*
X127432099Y-48164958D01*
X127264958Y-48332099D01*
X127068412Y-48463427D01*
X126850026Y-48553885D01*
X126618191Y-48600000D01*
X126381809Y-48600000D01*
X126149974Y-48553885D01*
X125931588Y-48463427D01*
X125735042Y-48332099D01*
X125567901Y-48164958D01*
X125436573Y-47968412D01*
X125346115Y-47750026D01*
X125300000Y-47518191D01*
X125300000Y-47281809D01*
X125346115Y-47049974D01*
X125436573Y-46831588D01*
X125567901Y-46635042D01*
X125735042Y-46467901D01*
X125931588Y-46336573D01*
X126149974Y-46246115D01*
X126381809Y-46200000D01*
X126618191Y-46200000D01*
X126850026Y-46246115D01*
X126850026Y-46246115D01*
G37*
G36*
X105350026Y-44846115D02*
X105568412Y-44936573D01*
X105764958Y-45067901D01*
X105932099Y-45235042D01*
X106063427Y-45431588D01*
X106153885Y-45649974D01*
X106200000Y-45881809D01*
X106200000Y-46118191D01*
X106153885Y-46350026D01*
X106063427Y-46568412D01*
X105932099Y-46764958D01*
X105764958Y-46932099D01*
X105568412Y-47063427D01*
X105350026Y-47153885D01*
X105118191Y-47200000D01*
X104881809Y-47200000D01*
X104649974Y-47153885D01*
X104431588Y-47063427D01*
X104235042Y-46932099D01*
X104067901Y-46764958D01*
X103936573Y-46568412D01*
X103846115Y-46350026D01*
X103800000Y-46118191D01*
X103800000Y-45881809D01*
X103846115Y-45649974D01*
X103936573Y-45431588D01*
X104067901Y-45235042D01*
X104235042Y-45067901D01*
X104431588Y-44936573D01*
X104649974Y-44846115D01*
X104881809Y-44800000D01*
X105118191Y-44800000D01*
X105350026Y-44846115D01*
X105350026Y-44846115D01*
G37*
G36*
X137826030Y-44114469D02*
X137826033Y-44114470D01*
X137826034Y-44114470D01*
X138014535Y-44171651D01*
X138014537Y-44171652D01*
X138188260Y-44264509D01*
X138340528Y-44389472D01*
X138465491Y-44541740D01*
X138558349Y-44715464D01*
X138615531Y-44903969D01*
X138630000Y-45050877D01*
X138630000Y-45949124D01*
X138615531Y-46096030D01*
X138615530Y-46096033D01*
X138615530Y-46096034D01*
X138564288Y-46264958D01*
X138558348Y-46284537D01*
X138465491Y-46458260D01*
X138340528Y-46610528D01*
X138188258Y-46735493D01*
X138014539Y-46828347D01*
X138014536Y-46828348D01*
X138014534Y-46828349D01*
X137826033Y-46885530D01*
X137826032Y-46885530D01*
X137826029Y-46885531D01*
X137630000Y-46904838D01*
X137433970Y-46885531D01*
X137433967Y-46885530D01*
X137433966Y-46885530D01*
X137245465Y-46828349D01*
X137106680Y-46754167D01*
X137071740Y-46735491D01*
X136919472Y-46610528D01*
X136794507Y-46458258D01*
X136701653Y-46284539D01*
X136670948Y-46183317D01*
X136644470Y-46096033D01*
X136644470Y-46096032D01*
X136644469Y-46096029D01*
X136630000Y-45949123D01*
X136630000Y-45050876D01*
X136644469Y-44903965D01*
X136701651Y-44715467D01*
X136794510Y-44541740D01*
X136919473Y-44389472D01*
X137071741Y-44264509D01*
X137245464Y-44171652D01*
X137245466Y-44171651D01*
X137433967Y-44114470D01*
X137433968Y-44114470D01*
X137433971Y-44114469D01*
X137630000Y-44095162D01*
X137826030Y-44114469D01*
X137826030Y-44114469D01*
G37*
G36*
X140366030Y-44114469D02*
X140366033Y-44114470D01*
X140366034Y-44114470D01*
X140554535Y-44171651D01*
X140554537Y-44171652D01*
X140728260Y-44264509D01*
X140880528Y-44389472D01*
X141005491Y-44541740D01*
X141098349Y-44715464D01*
X141155531Y-44903969D01*
X141170000Y-45050877D01*
X141170000Y-45949124D01*
X141155531Y-46096030D01*
X141155530Y-46096033D01*
X141155530Y-46096034D01*
X141104288Y-46264958D01*
X141098348Y-46284537D01*
X141005491Y-46458260D01*
X140880528Y-46610528D01*
X140728258Y-46735493D01*
X140554539Y-46828347D01*
X140554536Y-46828348D01*
X140554534Y-46828349D01*
X140366033Y-46885530D01*
X140366032Y-46885530D01*
X140366029Y-46885531D01*
X140170000Y-46904838D01*
X139973970Y-46885531D01*
X139973967Y-46885530D01*
X139973966Y-46885530D01*
X139785465Y-46828349D01*
X139646680Y-46754167D01*
X139611740Y-46735491D01*
X139459472Y-46610528D01*
X139334507Y-46458258D01*
X139241653Y-46284539D01*
X139210948Y-46183317D01*
X139184470Y-46096033D01*
X139184470Y-46096032D01*
X139184469Y-46096029D01*
X139170000Y-45949123D01*
X139170000Y-45050876D01*
X139184469Y-44903965D01*
X139241651Y-44715467D01*
X139334510Y-44541740D01*
X139459473Y-44389472D01*
X139611741Y-44264509D01*
X139785464Y-44171652D01*
X139785466Y-44171651D01*
X139973967Y-44114470D01*
X139973968Y-44114470D01*
X139973971Y-44114469D01*
X140170000Y-44095162D01*
X140366030Y-44114469D01*
X140366030Y-44114469D01*
G37*
G36*
X142906030Y-44114469D02*
X142906033Y-44114470D01*
X142906034Y-44114470D01*
X143094535Y-44171651D01*
X143094537Y-44171652D01*
X143268260Y-44264509D01*
X143420528Y-44389472D01*
X143545491Y-44541740D01*
X143638349Y-44715464D01*
X143695531Y-44903969D01*
X143710000Y-45050877D01*
X143710000Y-45949124D01*
X143695531Y-46096030D01*
X143695530Y-46096033D01*
X143695530Y-46096034D01*
X143644288Y-46264958D01*
X143638348Y-46284537D01*
X143545491Y-46458260D01*
X143420528Y-46610528D01*
X143268258Y-46735493D01*
X143094539Y-46828347D01*
X143094536Y-46828348D01*
X143094534Y-46828349D01*
X142906033Y-46885530D01*
X142906032Y-46885530D01*
X142906029Y-46885531D01*
X142710000Y-46904838D01*
X142513970Y-46885531D01*
X142513967Y-46885530D01*
X142513966Y-46885530D01*
X142325465Y-46828349D01*
X142186680Y-46754167D01*
X142151740Y-46735491D01*
X141999472Y-46610528D01*
X141874507Y-46458258D01*
X141781653Y-46284539D01*
X141750948Y-46183317D01*
X141724470Y-46096033D01*
X141724470Y-46096032D01*
X141724469Y-46096029D01*
X141710000Y-45949123D01*
X141710000Y-45050876D01*
X141724469Y-44903965D01*
X141781651Y-44715467D01*
X141874510Y-44541740D01*
X141999473Y-44389472D01*
X142151741Y-44264509D01*
X142325464Y-44171652D01*
X142325466Y-44171651D01*
X142513967Y-44114470D01*
X142513968Y-44114470D01*
X142513971Y-44114469D01*
X142710000Y-44095162D01*
X142906030Y-44114469D01*
X142906030Y-44114469D01*
G37*
G36*
X146250000Y-46900000D02*
X144250000Y-46900000D01*
X144250000Y-44100000D01*
X146250000Y-44100000D01*
X146250000Y-46900000D01*
X146250000Y-46900000D01*
G37*
G36*
X109350026Y-44346115D02*
X109568412Y-44436573D01*
X109764958Y-44567901D01*
X109932099Y-44735042D01*
X110063427Y-44931588D01*
X110153885Y-45149974D01*
X110200000Y-45381809D01*
X110200000Y-45618191D01*
X110153885Y-45850026D01*
X110063427Y-46068412D01*
X109932099Y-46264958D01*
X109764958Y-46432099D01*
X109568412Y-46563427D01*
X109350026Y-46653885D01*
X109118191Y-46700000D01*
X108881809Y-46700000D01*
X108649974Y-46653885D01*
X108431588Y-46563427D01*
X108235042Y-46432099D01*
X108067901Y-46264958D01*
X107936573Y-46068412D01*
X107846115Y-45850026D01*
X107800000Y-45618191D01*
X107800000Y-45381809D01*
X107846115Y-45149974D01*
X107936573Y-44931588D01*
X108067901Y-44735042D01*
X108235042Y-44567901D01*
X108431588Y-44436573D01*
X108649974Y-44346115D01*
X108881809Y-44300000D01*
X109118191Y-44300000D01*
X109350026Y-44346115D01*
X109350026Y-44346115D01*
G37*
G36*
X114350026Y-44346115D02*
X114568412Y-44436573D01*
X114764958Y-44567901D01*
X114932099Y-44735042D01*
X115063427Y-44931588D01*
X115153885Y-45149974D01*
X115200000Y-45381809D01*
X115200000Y-45618191D01*
X115153885Y-45850026D01*
X115063427Y-46068412D01*
X114932099Y-46264958D01*
X114764958Y-46432099D01*
X114568412Y-46563427D01*
X114350026Y-46653885D01*
X114118191Y-46700000D01*
X113881809Y-46700000D01*
X113649974Y-46653885D01*
X113431588Y-46563427D01*
X113235042Y-46432099D01*
X113067901Y-46264958D01*
X112936573Y-46068412D01*
X112846115Y-45850026D01*
X112800000Y-45618191D01*
X112800000Y-45381809D01*
X112846115Y-45149974D01*
X112936573Y-44931588D01*
X113067901Y-44735042D01*
X113235042Y-44567901D01*
X113431588Y-44436573D01*
X113649974Y-44346115D01*
X113881809Y-44300000D01*
X114118191Y-44300000D01*
X114350026Y-44346115D01*
X114350026Y-44346115D01*
G37*
G36*
X92034249Y-42570981D02*
X92307575Y-42653894D01*
X92559473Y-42788536D01*
X92559474Y-42788537D01*
X92559476Y-42788538D01*
X92780265Y-42969735D01*
X92852354Y-43057576D01*
X92961464Y-43190526D01*
X93096106Y-43442424D01*
X93179019Y-43715750D01*
X93200000Y-43928775D01*
X93200000Y-45071225D01*
X93179019Y-45284250D01*
X93096106Y-45557576D01*
X92961464Y-45809474D01*
X92780265Y-46030265D01*
X92559474Y-46211464D01*
X92307576Y-46346106D01*
X92034250Y-46429019D01*
X91750000Y-46457015D01*
X91465751Y-46429019D01*
X91192425Y-46346106D01*
X90940527Y-46211464D01*
X90826873Y-46118190D01*
X90719738Y-46030267D01*
X90653144Y-45949123D01*
X90538536Y-45809474D01*
X90403894Y-45557576D01*
X90320981Y-45284250D01*
X90300000Y-45071225D01*
X90300000Y-43928776D01*
X90320981Y-43715751D01*
X90403894Y-43442425D01*
X90538536Y-43190527D01*
X90578594Y-43141716D01*
X90719735Y-42969735D01*
X90940524Y-42788538D01*
X90940526Y-42788536D01*
X91192424Y-42653894D01*
X91465750Y-42570981D01*
X91750000Y-42542985D01*
X92034249Y-42570981D01*
X92034249Y-42570981D01*
G37*
G36*
X96784249Y-42570981D02*
X97057575Y-42653894D01*
X97309473Y-42788536D01*
X97309474Y-42788537D01*
X97309476Y-42788538D01*
X97530265Y-42969735D01*
X97602354Y-43057576D01*
X97711464Y-43190526D01*
X97846106Y-43442424D01*
X97929019Y-43715750D01*
X97950000Y-43928775D01*
X97950000Y-45071225D01*
X97929019Y-45284250D01*
X97846106Y-45557576D01*
X97711464Y-45809474D01*
X97530265Y-46030265D01*
X97309474Y-46211464D01*
X97057576Y-46346106D01*
X96784250Y-46429019D01*
X96500000Y-46457015D01*
X96215751Y-46429019D01*
X95942425Y-46346106D01*
X95690527Y-46211464D01*
X95576873Y-46118190D01*
X95469738Y-46030267D01*
X95403144Y-45949123D01*
X95288536Y-45809474D01*
X95153894Y-45557576D01*
X95070981Y-45284250D01*
X95050000Y-45071225D01*
X95050000Y-43928776D01*
X95070981Y-43715751D01*
X95153894Y-43442425D01*
X95288536Y-43190527D01*
X95328594Y-43141716D01*
X95469735Y-42969735D01*
X95690524Y-42788538D01*
X95690526Y-42788536D01*
X95942424Y-42653894D01*
X96215750Y-42570981D01*
X96500000Y-42542985D01*
X96784249Y-42570981D01*
X96784249Y-42570981D01*
G37*
G36*
X101534249Y-42570981D02*
X101807575Y-42653894D01*
X102059473Y-42788536D01*
X102059474Y-42788537D01*
X102059476Y-42788538D01*
X102280265Y-42969735D01*
X102352354Y-43057576D01*
X102461464Y-43190526D01*
X102596106Y-43442424D01*
X102679019Y-43715750D01*
X102700000Y-43928775D01*
X102700000Y-45071225D01*
X102679019Y-45284250D01*
X102596106Y-45557576D01*
X102461464Y-45809474D01*
X102280265Y-46030265D01*
X102059474Y-46211464D01*
X101807576Y-46346106D01*
X101534250Y-46429019D01*
X101250000Y-46457015D01*
X100965751Y-46429019D01*
X100692425Y-46346106D01*
X100440527Y-46211464D01*
X100326873Y-46118190D01*
X100219738Y-46030267D01*
X100153144Y-45949123D01*
X100038536Y-45809474D01*
X99903894Y-45557576D01*
X99820981Y-45284250D01*
X99800000Y-45071225D01*
X99800000Y-43928776D01*
X99820981Y-43715751D01*
X99903894Y-43442425D01*
X100038536Y-43190527D01*
X100078594Y-43141716D01*
X100219735Y-42969735D01*
X100440524Y-42788538D01*
X100440526Y-42788536D01*
X100692424Y-42653894D01*
X100965750Y-42570981D01*
X101250000Y-42542985D01*
X101534249Y-42570981D01*
X101534249Y-42570981D01*
G37*
G36*
X176820857Y-43442272D02*
X177021042Y-43525191D01*
X177201213Y-43645578D01*
X177354422Y-43798787D01*
X177354424Y-43798790D01*
X177354425Y-43798791D01*
X177441277Y-43928774D01*
X177474809Y-43978958D01*
X177557728Y-44179143D01*
X177600000Y-44391658D01*
X177600000Y-44608342D01*
X177557728Y-44820857D01*
X177474809Y-45021042D01*
X177474807Y-45021045D01*
X177454875Y-45050876D01*
X177354422Y-45201213D01*
X177201213Y-45354422D01*
X177201210Y-45354424D01*
X177201209Y-45354425D01*
X177021045Y-45474807D01*
X177021042Y-45474809D01*
X176820857Y-45557728D01*
X176608342Y-45600000D01*
X176391658Y-45600000D01*
X176179143Y-45557728D01*
X175978958Y-45474809D01*
X175978955Y-45474807D01*
X175798791Y-45354425D01*
X175798790Y-45354424D01*
X175798787Y-45354422D01*
X175645578Y-45201213D01*
X175545126Y-45050876D01*
X175525193Y-45021045D01*
X175525191Y-45021042D01*
X175442272Y-44820857D01*
X175400000Y-44608342D01*
X175400000Y-44391658D01*
X175442272Y-44179143D01*
X175525191Y-43978958D01*
X175558723Y-43928774D01*
X175645575Y-43798791D01*
X175645576Y-43798790D01*
X175645578Y-43798787D01*
X175798787Y-43645578D01*
X175978958Y-43525191D01*
X176179143Y-43442272D01*
X176391658Y-43400000D01*
X176608342Y-43400000D01*
X176820857Y-43442272D01*
X176820857Y-43442272D01*
G37*
G36*
X151241716Y-40384544D02*
X151642090Y-40550384D01*
X152002421Y-40791150D01*
X152308850Y-41097579D01*
X152549616Y-41457910D01*
X152715456Y-41858284D01*
X152800000Y-42283317D01*
X152800000Y-42716683D01*
X152715456Y-43141716D01*
X152549616Y-43542090D01*
X152308850Y-43902421D01*
X152002421Y-44208850D01*
X151642090Y-44449616D01*
X151241716Y-44615456D01*
X150816683Y-44700000D01*
X150383317Y-44700000D01*
X149958284Y-44615456D01*
X149557910Y-44449616D01*
X149197579Y-44208850D01*
X148891150Y-43902421D01*
X148650384Y-43542090D01*
X148484544Y-43141716D01*
X148400000Y-42716683D01*
X148400000Y-42283317D01*
X148484544Y-41858284D01*
X148650384Y-41457910D01*
X148891150Y-41097579D01*
X149197579Y-40791150D01*
X149557910Y-40550384D01*
X149958284Y-40384544D01*
X150383317Y-40300000D01*
X150816683Y-40300000D01*
X151241716Y-40384544D01*
X151241716Y-40384544D01*
G37*
G36*
X160041716Y-40384544D02*
X160442090Y-40550384D01*
X160802421Y-40791150D01*
X161108850Y-41097579D01*
X161349616Y-41457910D01*
X161515456Y-41858284D01*
X161600000Y-42283317D01*
X161600000Y-42716683D01*
X161515456Y-43141716D01*
X161349616Y-43542090D01*
X161108850Y-43902421D01*
X160802421Y-44208850D01*
X160442090Y-44449616D01*
X160041716Y-44615456D01*
X159616683Y-44700000D01*
X159183317Y-44700000D01*
X158758284Y-44615456D01*
X158357910Y-44449616D01*
X157997579Y-44208850D01*
X157691150Y-43902421D01*
X157450384Y-43542090D01*
X157284544Y-43141716D01*
X157200000Y-42716683D01*
X157200000Y-42283317D01*
X157284544Y-41858284D01*
X157450384Y-41457910D01*
X157691150Y-41097579D01*
X157997579Y-40791150D01*
X158357910Y-40550384D01*
X158758284Y-40384544D01*
X159183317Y-40300000D01*
X159616683Y-40300000D01*
X160041716Y-40384544D01*
X160041716Y-40384544D01*
G37*
G36*
X125284249Y-40070981D02*
X125557575Y-40153894D01*
X125809473Y-40288536D01*
X125809474Y-40288537D01*
X125809476Y-40288538D01*
X126030265Y-40469735D01*
X126102478Y-40557727D01*
X126211464Y-40690526D01*
X126346106Y-40942424D01*
X126429019Y-41215750D01*
X126450000Y-41428775D01*
X126450000Y-42571225D01*
X126429019Y-42784250D01*
X126346106Y-43057576D01*
X126211464Y-43309474D01*
X126030265Y-43530265D01*
X125809474Y-43711464D01*
X125557576Y-43846106D01*
X125284250Y-43929019D01*
X125000000Y-43957015D01*
X124715751Y-43929019D01*
X124442425Y-43846106D01*
X124190527Y-43711464D01*
X123984146Y-43542091D01*
X123969738Y-43530267D01*
X123969736Y-43530265D01*
X123788536Y-43309474D01*
X123653894Y-43057576D01*
X123570981Y-42784250D01*
X123550000Y-42571225D01*
X123550000Y-41428776D01*
X123570981Y-41215751D01*
X123653894Y-40942425D01*
X123788536Y-40690527D01*
X123788538Y-40690524D01*
X123969735Y-40469735D01*
X124132244Y-40336367D01*
X124190526Y-40288536D01*
X124442424Y-40153894D01*
X124715750Y-40070981D01*
X125000000Y-40042985D01*
X125284249Y-40070981D01*
X125284249Y-40070981D01*
G37*
G36*
X129684249Y-40070981D02*
X129957575Y-40153894D01*
X130209473Y-40288536D01*
X130209474Y-40288537D01*
X130209476Y-40288538D01*
X130430265Y-40469735D01*
X130502478Y-40557727D01*
X130611464Y-40690526D01*
X130746106Y-40942424D01*
X130829019Y-41215750D01*
X130850000Y-41428775D01*
X130850000Y-42571225D01*
X130829019Y-42784250D01*
X130746106Y-43057576D01*
X130611464Y-43309474D01*
X130430265Y-43530265D01*
X130209474Y-43711464D01*
X129957576Y-43846106D01*
X129684250Y-43929019D01*
X129400000Y-43957015D01*
X129115751Y-43929019D01*
X128842425Y-43846106D01*
X128590527Y-43711464D01*
X128384146Y-43542091D01*
X128369738Y-43530267D01*
X128369736Y-43530265D01*
X128188536Y-43309474D01*
X128053894Y-43057576D01*
X127970981Y-42784250D01*
X127950000Y-42571225D01*
X127950000Y-41428776D01*
X127970981Y-41215751D01*
X128053894Y-40942425D01*
X128188536Y-40690527D01*
X128188538Y-40690524D01*
X128369735Y-40469735D01*
X128532244Y-40336367D01*
X128590526Y-40288536D01*
X128842424Y-40153894D01*
X129115750Y-40070981D01*
X129400000Y-40042985D01*
X129684249Y-40070981D01*
X129684249Y-40070981D01*
G37*
G36*
X120884249Y-40070981D02*
X121157575Y-40153894D01*
X121409473Y-40288536D01*
X121409474Y-40288537D01*
X121409476Y-40288538D01*
X121630265Y-40469735D01*
X121702478Y-40557727D01*
X121811464Y-40690526D01*
X121946106Y-40942424D01*
X122029019Y-41215750D01*
X122050000Y-41428775D01*
X122050000Y-42571225D01*
X122029019Y-42784250D01*
X121946106Y-43057576D01*
X121811464Y-43309474D01*
X121630265Y-43530265D01*
X121409474Y-43711464D01*
X121157576Y-43846106D01*
X120884250Y-43929019D01*
X120600000Y-43957015D01*
X120315751Y-43929019D01*
X120042425Y-43846106D01*
X119790527Y-43711464D01*
X119584146Y-43542091D01*
X119569738Y-43530267D01*
X119569736Y-43530265D01*
X119388536Y-43309474D01*
X119253894Y-43057576D01*
X119170981Y-42784250D01*
X119150000Y-42571225D01*
X119150000Y-41428776D01*
X119170981Y-41215751D01*
X119253894Y-40942425D01*
X119388536Y-40690527D01*
X119388538Y-40690524D01*
X119569735Y-40469735D01*
X119732244Y-40336367D01*
X119790526Y-40288536D01*
X120042424Y-40153894D01*
X120315750Y-40070981D01*
X120600000Y-40042985D01*
X120884249Y-40070981D01*
X120884249Y-40070981D01*
G37*
G36*
X176820857Y-40942272D02*
X177021042Y-41025191D01*
X177021045Y-41025193D01*
X177129383Y-41097582D01*
X177201213Y-41145578D01*
X177354422Y-41298787D01*
X177354424Y-41298790D01*
X177354425Y-41298791D01*
X177396302Y-41361464D01*
X177474809Y-41478958D01*
X177557728Y-41679143D01*
X177600000Y-41891658D01*
X177600000Y-42108342D01*
X177557728Y-42320857D01*
X177474809Y-42521042D01*
X177354422Y-42701213D01*
X177201213Y-42854422D01*
X177021042Y-42974809D01*
X176820857Y-43057728D01*
X176608342Y-43100000D01*
X176391658Y-43100000D01*
X176179143Y-43057728D01*
X175978958Y-42974809D01*
X175798787Y-42854422D01*
X175645578Y-42701213D01*
X175525191Y-42521042D01*
X175442272Y-42320857D01*
X175400000Y-42108342D01*
X175400000Y-41891658D01*
X175442272Y-41679143D01*
X175525191Y-41478958D01*
X175603698Y-41361464D01*
X175645575Y-41298791D01*
X175645576Y-41298790D01*
X175645578Y-41298787D01*
X175798787Y-41145578D01*
X175870618Y-41097582D01*
X175978955Y-41025193D01*
X175978958Y-41025191D01*
X176179143Y-40942272D01*
X176391658Y-40900000D01*
X176608342Y-40900000D01*
X176820857Y-40942272D01*
X176820857Y-40942272D01*
G37*
G36*
X101534249Y-37720981D02*
X101807575Y-37803894D01*
X102059473Y-37938536D01*
X102059474Y-37938537D01*
X102059476Y-37938538D01*
X102280265Y-38119735D01*
X102413633Y-38282244D01*
X102461464Y-38340526D01*
X102596106Y-38592424D01*
X102679019Y-38865750D01*
X102700000Y-39078775D01*
X102700000Y-40221225D01*
X102679019Y-40434250D01*
X102596106Y-40707576D01*
X102461464Y-40959474D01*
X102280265Y-41180265D01*
X102059474Y-41361464D01*
X101807576Y-41496106D01*
X101534250Y-41579019D01*
X101250000Y-41607015D01*
X100965751Y-41579019D01*
X100692425Y-41496106D01*
X100440527Y-41361464D01*
X100330132Y-41270865D01*
X100219738Y-41180267D01*
X100191269Y-41145578D01*
X100038536Y-40959474D01*
X99903894Y-40707576D01*
X99820981Y-40434250D01*
X99800000Y-40221225D01*
X99800000Y-39078776D01*
X99820981Y-38865751D01*
X99903894Y-38592425D01*
X100038536Y-38340527D01*
X100038538Y-38340524D01*
X100219735Y-38119735D01*
X100440524Y-37938538D01*
X100440526Y-37938536D01*
X100692424Y-37803894D01*
X100965750Y-37720981D01*
X101250000Y-37692985D01*
X101534249Y-37720981D01*
X101534249Y-37720981D01*
G37*
G36*
X96784249Y-37720981D02*
X97057575Y-37803894D01*
X97309473Y-37938536D01*
X97309474Y-37938537D01*
X97309476Y-37938538D01*
X97530265Y-38119735D01*
X97663633Y-38282244D01*
X97711464Y-38340526D01*
X97846106Y-38592424D01*
X97929019Y-38865750D01*
X97950000Y-39078775D01*
X97950000Y-40221225D01*
X97929019Y-40434250D01*
X97846106Y-40707576D01*
X97711464Y-40959474D01*
X97530265Y-41180265D01*
X97309474Y-41361464D01*
X97057576Y-41496106D01*
X96784250Y-41579019D01*
X96500000Y-41607015D01*
X96215751Y-41579019D01*
X95942425Y-41496106D01*
X95690527Y-41361464D01*
X95580132Y-41270865D01*
X95469738Y-41180267D01*
X95441269Y-41145578D01*
X95288536Y-40959474D01*
X95153894Y-40707576D01*
X95070981Y-40434250D01*
X95050000Y-40221225D01*
X95050000Y-39078776D01*
X95070981Y-38865751D01*
X95153894Y-38592425D01*
X95288536Y-38340527D01*
X95288538Y-38340524D01*
X95469735Y-38119735D01*
X95690524Y-37938538D01*
X95690526Y-37938536D01*
X95942424Y-37803894D01*
X96215750Y-37720981D01*
X96500000Y-37692985D01*
X96784249Y-37720981D01*
X96784249Y-37720981D01*
G37*
G36*
X92034249Y-37720981D02*
X92307575Y-37803894D01*
X92559473Y-37938536D01*
X92559474Y-37938537D01*
X92559476Y-37938538D01*
X92780265Y-38119735D01*
X92913633Y-38282244D01*
X92961464Y-38340526D01*
X93096106Y-38592424D01*
X93179019Y-38865750D01*
X93200000Y-39078775D01*
X93200000Y-40221225D01*
X93179019Y-40434250D01*
X93096106Y-40707576D01*
X92961464Y-40959474D01*
X92780265Y-41180265D01*
X92559474Y-41361464D01*
X92307576Y-41496106D01*
X92034250Y-41579019D01*
X91750000Y-41607015D01*
X91465751Y-41579019D01*
X91192425Y-41496106D01*
X90940527Y-41361464D01*
X90830132Y-41270865D01*
X90719738Y-41180267D01*
X90691269Y-41145578D01*
X90538536Y-40959474D01*
X90403894Y-40707576D01*
X90320981Y-40434250D01*
X90300000Y-40221225D01*
X90300000Y-39078776D01*
X90320981Y-38865751D01*
X90403894Y-38592425D01*
X90538536Y-38340527D01*
X90538538Y-38340524D01*
X90719735Y-38119735D01*
X90940524Y-37938538D01*
X90940526Y-37938536D01*
X91192424Y-37803894D01*
X91465750Y-37720981D01*
X91750000Y-37692985D01*
X92034249Y-37720981D01*
X92034249Y-37720981D01*
G37*
G36*
X176820857Y-38442272D02*
X177021042Y-38525191D01*
X177021045Y-38525193D01*
X177195995Y-38642091D01*
X177201213Y-38645578D01*
X177354422Y-38798787D01*
X177354424Y-38798790D01*
X177354425Y-38798791D01*
X177399166Y-38865751D01*
X177474809Y-38978958D01*
X177557728Y-39179143D01*
X177600000Y-39391658D01*
X177600000Y-39608342D01*
X177557728Y-39820857D01*
X177474809Y-40021042D01*
X177354422Y-40201213D01*
X177201213Y-40354422D01*
X177201210Y-40354424D01*
X177201209Y-40354425D01*
X177156131Y-40384545D01*
X177021042Y-40474809D01*
X176820857Y-40557728D01*
X176608342Y-40600000D01*
X176391658Y-40600000D01*
X176179143Y-40557728D01*
X175978958Y-40474809D01*
X175843869Y-40384545D01*
X175798791Y-40354425D01*
X175798790Y-40354424D01*
X175798787Y-40354422D01*
X175645578Y-40201213D01*
X175525191Y-40021042D01*
X175442272Y-39820857D01*
X175400000Y-39608342D01*
X175400000Y-39391658D01*
X175442272Y-39179143D01*
X175525191Y-38978958D01*
X175600834Y-38865751D01*
X175645575Y-38798791D01*
X175645576Y-38798790D01*
X175645578Y-38798787D01*
X175798787Y-38645578D01*
X175804006Y-38642091D01*
X175978955Y-38525193D01*
X175978958Y-38525191D01*
X176179143Y-38442272D01*
X176391658Y-38400000D01*
X176608342Y-38400000D01*
X176820857Y-38442272D01*
X176820857Y-38442272D01*
G37*
G36*
X184141716Y-35484544D02*
X184542090Y-35650384D01*
X184902421Y-35891150D01*
X185208850Y-36197579D01*
X185449616Y-36557910D01*
X185615456Y-36958284D01*
X185700000Y-37383317D01*
X185700000Y-37816683D01*
X185615456Y-38241716D01*
X185449616Y-38642090D01*
X185208850Y-39002421D01*
X184902421Y-39308850D01*
X184542090Y-39549616D01*
X184141716Y-39715456D01*
X183716683Y-39800000D01*
X183283317Y-39800000D01*
X182858284Y-39715456D01*
X182457910Y-39549616D01*
X182097579Y-39308850D01*
X181791150Y-39002421D01*
X181550384Y-38642090D01*
X181384544Y-38241716D01*
X181300000Y-37816683D01*
X181300000Y-37383317D01*
X181384544Y-36958284D01*
X181550384Y-36557910D01*
X181791150Y-36197579D01*
X182097579Y-35891150D01*
X182457910Y-35650384D01*
X182858284Y-35484544D01*
X183283317Y-35400000D01*
X183716683Y-35400000D01*
X184141716Y-35484544D01*
X184141716Y-35484544D01*
G37*
G36*
X105350026Y-37046115D02*
X105568412Y-37136573D01*
X105764958Y-37267901D01*
X105932099Y-37435042D01*
X106063427Y-37631588D01*
X106153885Y-37849974D01*
X106200000Y-38081809D01*
X106200000Y-38318191D01*
X106153885Y-38550026D01*
X106063427Y-38768412D01*
X105932099Y-38964958D01*
X105764958Y-39132099D01*
X105568412Y-39263427D01*
X105350026Y-39353885D01*
X105118191Y-39400000D01*
X104881809Y-39400000D01*
X104649974Y-39353885D01*
X104431588Y-39263427D01*
X104235042Y-39132099D01*
X104067901Y-38964958D01*
X103936573Y-38768412D01*
X103846115Y-38550026D01*
X103800000Y-38318191D01*
X103800000Y-38081809D01*
X103846115Y-37849974D01*
X103936573Y-37631588D01*
X104067901Y-37435042D01*
X104235042Y-37267901D01*
X104431588Y-37136573D01*
X104649974Y-37046115D01*
X104881809Y-37000000D01*
X105118191Y-37000000D01*
X105350026Y-37046115D01*
X105350026Y-37046115D01*
G37*
G36*
X114350026Y-36346115D02*
X114568412Y-36436573D01*
X114764958Y-36567901D01*
X114932099Y-36735042D01*
X115063427Y-36931588D01*
X115153885Y-37149974D01*
X115200000Y-37381809D01*
X115200000Y-37618191D01*
X115153885Y-37850026D01*
X115063427Y-38068412D01*
X114932099Y-38264958D01*
X114764958Y-38432099D01*
X114568412Y-38563427D01*
X114350026Y-38653885D01*
X114118191Y-38700000D01*
X113881809Y-38700000D01*
X113649974Y-38653885D01*
X113431588Y-38563427D01*
X113235042Y-38432099D01*
X113067901Y-38264958D01*
X112936573Y-38068412D01*
X112846115Y-37850026D01*
X112800000Y-37618191D01*
X112800000Y-37381809D01*
X112846115Y-37149974D01*
X112936573Y-36931588D01*
X113067901Y-36735042D01*
X113235042Y-36567901D01*
X113431588Y-36436573D01*
X113649974Y-36346115D01*
X113881809Y-36300000D01*
X114118191Y-36300000D01*
X114350026Y-36346115D01*
X114350026Y-36346115D01*
G37*
G36*
X109350026Y-36346115D02*
X109568412Y-36436573D01*
X109764958Y-36567901D01*
X109932099Y-36735042D01*
X110063427Y-36931588D01*
X110153885Y-37149974D01*
X110200000Y-37381809D01*
X110200000Y-37618191D01*
X110153885Y-37850026D01*
X110063427Y-38068412D01*
X109932099Y-38264958D01*
X109764958Y-38432099D01*
X109568412Y-38563427D01*
X109350026Y-38653885D01*
X109118191Y-38700000D01*
X108881809Y-38700000D01*
X108649974Y-38653885D01*
X108431588Y-38563427D01*
X108235042Y-38432099D01*
X108067901Y-38264958D01*
X107936573Y-38068412D01*
X107846115Y-37850026D01*
X107800000Y-37618191D01*
X107800000Y-37381809D01*
X107846115Y-37149974D01*
X107936573Y-36931588D01*
X108067901Y-36735042D01*
X108235042Y-36567901D01*
X108431588Y-36436573D01*
X108649974Y-36346115D01*
X108881809Y-36300000D01*
X109118191Y-36300000D01*
X109350026Y-36346115D01*
X109350026Y-36346115D01*
G37*
M02*
