M48
INCH,TZ
T1C0.0299
T2C0.0300
T3C0.0315
T4C0.0354
T5C0.0394
T6C0.0433
T7C0.0591
%
G90
G05
T3
X65610Y-34843
X65610Y-36811
X41339Y-15039
X41339Y-18110
X47244Y-36457
X49213Y-36457
X69488Y-30433
X71457Y-30433
X47244Y-38268
X49213Y-38268
X49803Y-18661
X51772Y-18661
X54185Y-17913
X54185Y-20913
X55185Y-17913
X55185Y-20913
X56185Y-17913
X56185Y-20913
X57185Y-17913
X57185Y-20913
X41929Y-41142
X41929Y-42142
X41929Y-43142
X41929Y-44142
X44929Y-41142
X44929Y-42142
X44929Y-43142
X44929Y-44142
X53201Y-23819
X56201Y-23819
X42224Y-37894
X44193Y-37894
X40335Y-28543
X43406Y-28543
X44882Y-20276
X44882Y-22244
X65110Y-28433
X65110Y-29433
X65110Y-30433
X65110Y-31433
X68110Y-28433
X68110Y-29433
X68110Y-30433
X68110Y-31433
X46220Y-43839
X46220Y-45807
X53248Y-25787
X56248Y-25787
X49803Y-21417
X51772Y-21417
X62067Y-28406
X62067Y-31476
X59646Y-28406
X59646Y-30374
X66181Y-32874
X68150Y-32874
X42913Y-14764
X44882Y-14764
X60039Y-20925
X63110Y-20925
X68268Y-22874
X68268Y-25945
X41929Y-32866
X41929Y-33866
X41929Y-34866
X41929Y-35866
X44929Y-32866
X44929Y-33866
X44929Y-34866
X44929Y-35866
X40335Y-45787
X43406Y-45787
X42224Y-39862
X44193Y-39862
X61299Y-27028
X64370Y-27028
X66831Y-27028
X69902Y-27028
X41929Y-23811
X41929Y-24811
X41929Y-25811
X41929Y-26811
X44929Y-23811
X44929Y-24811
X44929Y-25811
X44929Y-26811
X68268Y-19567
X68268Y-21535
X65118Y-24626
X66496Y-24626
X41929Y-20276
X41929Y-22244
X40335Y-30118
X43406Y-30118
X67008Y-42146
X70079Y-42146
X64213Y-19469
X64213Y-22539
X42913Y-17913
X44882Y-17913
X56142Y-22402
X59213Y-22402
X49803Y-20039
X51772Y-20039
X63622Y-28386
X63622Y-31457
X40453Y-20276
X40453Y-22244
T4
X71441Y-42146
X72441Y-42146
T5
X69488Y-15551
X69488Y-16535
X69488Y-17520
X40748Y-41142
X40748Y-42126
X40748Y-43110
X40748Y-32874
X40748Y-33858
X40748Y-34843
X60039Y-19488
X61024Y-19488
X62008Y-19488
X40748Y-23819
X40748Y-24803
X40748Y-25787
X60079Y-39173
X61063Y-39173
X62047Y-39173
X52165Y-23780
X52165Y-24764
X52165Y-25748
X69488Y-32874
X69488Y-33858
X69488Y-34843
X52165Y-41142
X52165Y-42126
X52165Y-43110
X69488Y-23819
X69488Y-24803
X69488Y-25787
T6
X57205Y-28386
X57205Y-31386
T7
X66220Y-18602
X67618Y-18602
X55807Y-33819
X57205Y-33819
T1
X37992Y-15860G85X37992Y-15360
G05
X39862Y-15860G85X39862Y-15360
G05
T2
X36122Y-15860G85X36122Y-15361
G05
X36122Y-17769G85X36122Y-17270
G05
X37992Y-17769G85X37992Y-17270
G05
X39862Y-17769G85X39862Y-17270
G05
T3
X47480Y-16791G85X47480Y-16280
G05
X49213Y-16791G85X49213Y-16280
G05
X50945Y-16772G85X50945Y-16299
G05
X59291Y-25059G85X59291Y-24547
G05
X61024Y-25059G85X61024Y-24547
G05
X62756Y-25039G85X62756Y-24567
G05
X47480Y-33622G85X47480Y-34094
G05
X49213Y-33602G85X49213Y-34114
G05
X50945Y-33602G85X50945Y-34114
G05
X59291Y-34114G85X59291Y-33602
G05
X61024Y-34114G85X61024Y-33602
G05
X62756Y-34094G85X62756Y-33622
G05
T0
M30
